<?xml version="1.0" encoding="UTF-8" standalone="no"?>
<!DOCTYPE svg PUBLIC "-//W3C//DTD SVG 1.1//EN" "http://www.w3.org/Graphics/SVG/1.1/DTD/svg11.dtd">
<svg width="100%" height="100%" viewBox="0 0 416 373" version="1.1" xmlns="http://www.w3.org/2000/svg" xmlns:xlink="http://www.w3.org/1999/xlink" xml:space="preserve" xmlns:serif="http://www.serif.com/" style="fill-rule:evenodd;clip-rule:evenodd;stroke-linejoin:round;stroke-miterlimit:2;">
    <g transform="matrix(1.11742,0,0,1.15318,-4.72086,-37.6248)">
        <rect x="27" y="47" width="333" height="112" style="fill:url(#_Linear1);"/>
    </g>
    <g transform="matrix(1.70082e-17,0.277765,-1.64078,1.00469e-16,403.253,80.1958)">
        <path d="M259.503,124.6L259.503,135L164.99,119L259.503,103L259.503,113.4L331,113.4L331,124.6L259.503,124.6Z" style="fill:rgb(164,164,164);"/>
    </g>
    <g transform="matrix(1.70082e-17,-0.277765,1.64078,1.00469e-16,12.7471,296.796)">
        <path d="M259.503,124.6L259.503,135L164.99,119L259.503,103L259.503,113.4L331,113.4L331,124.6L259.503,124.6Z" style="fill:rgb(164,164,164);"/>
    </g>
    <g transform="matrix(1,0,0,0.649501,24,46.1693)">
        <rect x="27" y="190" width="333" height="63" style="fill:rgb(20,22,26);"/>
    </g>
    <g transform="matrix(2.8277,0,0,2.8277,-60.9339,-443.837)">
        <g transform="matrix(8.48748,0,0,8.48748,52.3405,226.098)">
            <path d="M0.033,-0.44C0.033,-0.485 0.04,-0.526 0.053,-0.562C0.066,-0.597 0.084,-0.627 0.109,-0.653C0.133,-0.678 0.162,-0.697 0.197,-0.71C0.232,-0.723 0.271,-0.73 0.315,-0.73C0.396,-0.73 0.459,-0.711 0.504,-0.673C0.549,-0.635 0.572,-0.581 0.572,-0.51L0.572,-0.075L0.477,-0.075L0.476,-0.171C0.468,-0.137 0.454,-0.111 0.435,-0.093C0.415,-0.074 0.389,-0.065 0.358,-0.065C0.271,-0.065 0.228,-0.123 0.228,-0.24L0.228,-0.32C0.228,-0.437 0.271,-0.495 0.358,-0.495C0.412,-0.495 0.449,-0.468 0.468,-0.415L0.472,-0.403C0.471,-0.412 0.47,-0.424 0.469,-0.44C0.468,-0.456 0.468,-0.473 0.468,-0.49L0.468,-0.51C0.468,-0.552 0.455,-0.584 0.428,-0.607C0.401,-0.629 0.363,-0.64 0.315,-0.64C0.258,-0.64 0.215,-0.623 0.184,-0.588C0.153,-0.553 0.137,-0.504 0.137,-0.44L0.137,-0.125C0.137,-0.064 0.154,-0.017 0.187,0.018C0.22,0.053 0.266,0.07 0.325,0.07L0.395,0.07L0.395,0.165L0.325,0.165C0.28,0.165 0.24,0.158 0.203,0.145C0.167,0.132 0.137,0.112 0.112,0.087C0.086,0.062 0.067,0.032 0.054,-0.004C0.04,-0.04 0.033,-0.08 0.033,-0.125L0.033,-0.44ZM0.332,-0.24C0.332,-0.208 0.337,-0.184 0.347,-0.167C0.357,-0.15 0.373,-0.141 0.394,-0.141C0.443,-0.141 0.468,-0.175 0.468,-0.244L0.468,-0.316C0.468,-0.385 0.443,-0.419 0.394,-0.419C0.353,-0.419 0.332,-0.386 0.332,-0.32L0.332,-0.24Z" style="fill:white;fill-rule:nonzero;"/>
        </g>
        <g transform="matrix(8.48748,0,0,8.48748,57.433,226.098)">
            <path d="M0.073,-0.73L0.199,-0.73L0.199,-0.554C0.199,-0.545 0.199,-0.534 0.199,-0.523C0.198,-0.511 0.198,-0.5 0.197,-0.49C0.196,-0.479 0.195,-0.467 0.194,-0.455L0.203,-0.455C0.21,-0.488 0.226,-0.513 0.252,-0.532C0.277,-0.551 0.31,-0.56 0.35,-0.56C0.379,-0.56 0.405,-0.555 0.428,-0.545C0.451,-0.535 0.471,-0.521 0.488,-0.502C0.504,-0.483 0.517,-0.461 0.526,-0.435C0.535,-0.408 0.539,-0.378 0.539,-0.345L0.539,-0.208C0.539,-0.175 0.535,-0.145 0.526,-0.117C0.517,-0.091 0.504,-0.068 0.488,-0.049C0.471,-0.029 0.451,-0.015 0.428,-0.005C0.405,0.005 0.379,0.01 0.35,0.01C0.31,0.01 0.277,0.001 0.252,-0.018C0.226,-0.037 0.21,-0.063 0.203,-0.096L0.194,-0.096L0.194,-0L0.073,-0L0.073,-0.73ZM0.199,-0.208C0.199,-0.175 0.209,-0.149 0.228,-0.129C0.247,-0.109 0.272,-0.099 0.305,-0.099C0.339,-0.099 0.366,-0.109 0.385,-0.13C0.404,-0.15 0.414,-0.177 0.414,-0.211L0.414,-0.342C0.414,-0.376 0.404,-0.403 0.385,-0.423C0.366,-0.442 0.339,-0.452 0.305,-0.452C0.273,-0.452 0.247,-0.442 0.228,-0.422C0.209,-0.402 0.199,-0.375 0.199,-0.342L0.199,-0.208Z" style="fill:white;fill-rule:nonzero;"/>
        </g>
        <g transform="matrix(8.48748,0,0,8.48748,62.5255,226.098)">
            <path d="M0.058,-0.347C0.058,-0.379 0.063,-0.408 0.071,-0.435C0.081,-0.461 0.093,-0.483 0.11,-0.502C0.127,-0.521 0.147,-0.535 0.17,-0.545C0.193,-0.555 0.219,-0.56 0.248,-0.56C0.289,-0.56 0.323,-0.55 0.35,-0.531C0.377,-0.511 0.393,-0.484 0.4,-0.45L0.407,-0.45L0.407,-0.55L0.527,-0.55L0.527,-0.034C0.527,-0.003 0.522,0.024 0.511,0.048C0.5,0.073 0.485,0.094 0.465,0.111C0.445,0.128 0.421,0.142 0.393,0.151C0.364,0.16 0.333,0.165 0.298,0.165L0.151,0.165L0.151,0.061L0.298,0.061C0.33,0.061 0.355,0.053 0.374,0.036C0.393,0.019 0.402,-0.004 0.402,-0.034L0.402,-0.045L0.406,-0.155L0.4,-0.155C0.393,-0.121 0.377,-0.094 0.349,-0.075C0.323,-0.055 0.289,-0.045 0.248,-0.045C0.219,-0.045 0.193,-0.05 0.17,-0.06C0.147,-0.07 0.127,-0.084 0.11,-0.103C0.093,-0.122 0.081,-0.144 0.071,-0.171C0.063,-0.197 0.058,-0.226 0.058,-0.258L0.058,-0.347ZM0.184,-0.261C0.184,-0.227 0.194,-0.201 0.213,-0.182C0.232,-0.163 0.259,-0.153 0.293,-0.153C0.326,-0.153 0.353,-0.163 0.373,-0.182C0.392,-0.201 0.402,-0.228 0.402,-0.261L0.402,-0.344C0.402,-0.377 0.392,-0.404 0.373,-0.423C0.353,-0.442 0.326,-0.452 0.293,-0.452C0.259,-0.452 0.232,-0.442 0.213,-0.423C0.194,-0.404 0.184,-0.377 0.184,-0.344L0.184,-0.261Z" style="fill:white;fill-rule:nonzero;"/>
        </g>
        <g transform="matrix(8.48748,0,0,8.48748,72.7105,226.098)">
            <path d="M0.347,-0.73L0.473,-0.73L0.473,-0.574L0.461,-0.43L0.36,-0.43L0.347,-0.574L0.347,-0.73ZM0.127,-0.574L0.127,-0.73L0.253,-0.73L0.253,-0.574L0.241,-0.43L0.14,-0.43L0.127,-0.574Z" style="fill:white;fill-rule:nonzero;"/>
        </g>
        <g transform="matrix(8.48748,0,0,8.48748,77.803,226.098)">
            <path d="M0.045,-0.55L0.197,-0.55L0.197,-0.72L0.322,-0.72L0.322,-0.55L0.531,-0.55L0.531,-0.437L0.322,-0.437L0.322,-0.17C0.322,-0.153 0.327,-0.139 0.338,-0.129C0.348,-0.118 0.362,-0.113 0.381,-0.113L0.521,-0.113L0.521,-0L0.372,-0C0.318,-0 0.275,-0.015 0.244,-0.046C0.213,-0.077 0.197,-0.118 0.197,-0.17L0.197,-0.437L0.045,-0.437L0.045,-0.55Z" style="fill:rgb(51,153,255);fill-rule:nonzero;"/>
        </g>
        <g transform="matrix(8.48748,0,0,8.48748,82.8954,226.098)">
            <path d="M0.3,0.01C0.264,0.01 0.231,0.005 0.202,-0.006C0.172,-0.016 0.147,-0.03 0.126,-0.049C0.105,-0.068 0.089,-0.09 0.078,-0.117C0.067,-0.144 0.061,-0.173 0.061,-0.206L0.061,-0.345C0.061,-0.378 0.067,-0.407 0.078,-0.434C0.089,-0.461 0.105,-0.483 0.126,-0.502C0.147,-0.521 0.172,-0.535 0.202,-0.545C0.231,-0.555 0.264,-0.56 0.3,-0.56C0.336,-0.56 0.369,-0.555 0.398,-0.545C0.427,-0.534 0.452,-0.52 0.473,-0.501C0.494,-0.482 0.51,-0.46 0.521,-0.433C0.532,-0.406 0.538,-0.377 0.538,-0.344L0.538,-0.244L0.185,-0.244L0.185,-0.208C0.185,-0.171 0.195,-0.143 0.216,-0.122C0.236,-0.101 0.264,-0.091 0.3,-0.091C0.327,-0.091 0.35,-0.095 0.37,-0.103C0.389,-0.112 0.402,-0.124 0.41,-0.14L0.533,-0.14C0.527,-0.117 0.517,-0.097 0.503,-0.078C0.489,-0.059 0.472,-0.043 0.452,-0.031C0.431,-0.018 0.408,-0.008 0.383,-0.001C0.357,0.006 0.329,0.01 0.3,0.01ZM0.415,-0.328L0.415,-0.344C0.415,-0.381 0.405,-0.409 0.385,-0.43C0.365,-0.45 0.337,-0.46 0.3,-0.46C0.264,-0.46 0.236,-0.45 0.216,-0.43C0.195,-0.409 0.185,-0.381 0.185,-0.345L0.185,-0.328L0.415,-0.328Z" style="fill:rgb(51,153,255);fill-rule:nonzero;"/>
        </g>
        <g transform="matrix(8.48748,0,0,8.48748,87.9879,226.098)">
            <path d="M0.279,0.01C0.214,0.01 0.163,-0.003 0.125,-0.029C0.086,-0.056 0.064,-0.093 0.058,-0.141L0.186,-0.141C0.19,-0.124 0.2,-0.11 0.217,-0.101C0.234,-0.091 0.254,-0.086 0.279,-0.086L0.319,-0.086C0.35,-0.086 0.375,-0.092 0.392,-0.105C0.408,-0.117 0.417,-0.134 0.417,-0.155C0.417,-0.192 0.389,-0.214 0.332,-0.222L0.254,-0.231C0.191,-0.239 0.145,-0.256 0.115,-0.283C0.085,-0.31 0.07,-0.348 0.07,-0.398C0.07,-0.45 0.088,-0.49 0.125,-0.518C0.161,-0.546 0.213,-0.56 0.281,-0.56L0.322,-0.56C0.383,-0.56 0.432,-0.547 0.469,-0.522C0.505,-0.496 0.527,-0.46 0.534,-0.414L0.406,-0.414C0.403,-0.429 0.394,-0.442 0.379,-0.451C0.364,-0.46 0.345,-0.464 0.322,-0.464L0.281,-0.464C0.222,-0.464 0.193,-0.443 0.193,-0.402C0.193,-0.367 0.218,-0.346 0.267,-0.34L0.348,-0.329C0.413,-0.321 0.462,-0.303 0.493,-0.276C0.524,-0.248 0.54,-0.209 0.54,-0.159C0.54,-0.105 0.521,-0.063 0.483,-0.034C0.445,-0.005 0.39,0.01 0.319,0.01L0.279,0.01Z" style="fill:rgb(51,153,255);fill-rule:nonzero;"/>
        </g>
        <g transform="matrix(8.48748,0,0,8.48748,93.0804,226.098)">
            <path d="M0.045,-0.55L0.197,-0.55L0.197,-0.72L0.322,-0.72L0.322,-0.55L0.531,-0.55L0.531,-0.437L0.322,-0.437L0.322,-0.17C0.322,-0.153 0.327,-0.139 0.338,-0.129C0.348,-0.118 0.362,-0.113 0.381,-0.113L0.521,-0.113L0.521,-0L0.372,-0C0.318,-0 0.275,-0.015 0.244,-0.046C0.213,-0.077 0.197,-0.118 0.197,-0.17L0.197,-0.437L0.045,-0.437L0.045,-0.55Z" style="fill:rgb(51,153,255);fill-rule:nonzero;"/>
        </g>
        <g transform="matrix(8.48748,0,0,8.48748,98.1729,226.098)">
            <path d="M0.347,-0.73L0.473,-0.73L0.473,-0.574L0.461,-0.43L0.36,-0.43L0.347,-0.574L0.347,-0.73ZM0.127,-0.574L0.127,-0.73L0.253,-0.73L0.253,-0.574L0.241,-0.43L0.14,-0.43L0.127,-0.574Z" style="fill:white;fill-rule:nonzero;"/>
        </g>
    </g>
    <g transform="matrix(1.11742,0,0,0.699809,-4.72086,247.829)">
        <rect x="27" y="47" width="333" height="112" style="fill:url(#_Linear2);"/>
    </g>
    <g transform="matrix(2.34192,0,0,2.34192,15.8121,257.411)">
        <g transform="matrix(8.53999,0,0,8.53999,36.2348,28.3518)">
            <path d="M0.467,-0.527L0.594,-0.527C0.591,-0.65 0.486,-0.737 0.332,-0.737C0.179,-0.737 0.064,-0.651 0.065,-0.523C0.065,-0.418 0.139,-0.358 0.259,-0.327L0.341,-0.306C0.42,-0.286 0.472,-0.262 0.472,-0.205C0.472,-0.143 0.413,-0.102 0.327,-0.102C0.244,-0.102 0.18,-0.138 0.175,-0.215L0.045,-0.215C0.051,-0.07 0.158,0.011 0.328,0.011C0.502,0.011 0.603,-0.076 0.604,-0.204C0.603,-0.33 0.499,-0.388 0.39,-0.414L0.322,-0.431C0.262,-0.445 0.197,-0.47 0.198,-0.531C0.199,-0.586 0.248,-0.626 0.33,-0.626C0.408,-0.626 0.46,-0.589 0.467,-0.527Z" style="fill-rule:nonzero;"/>
        </g>
        <g transform="matrix(8.53999,0,0,8.53999,41.7785,28.3518)">
            <path d="M0.308,0.011C0.435,0.011 0.522,-0.051 0.545,-0.146L0.425,-0.16C0.407,-0.114 0.365,-0.089 0.309,-0.089C0.226,-0.089 0.171,-0.144 0.17,-0.238L0.55,-0.238L0.55,-0.277C0.55,-0.468 0.435,-0.553 0.301,-0.553C0.145,-0.553 0.043,-0.438 0.043,-0.27C0.043,-0.098 0.143,0.011 0.308,0.011ZM0.17,-0.324C0.174,-0.394 0.226,-0.452 0.303,-0.452C0.376,-0.452 0.426,-0.398 0.427,-0.324L0.17,-0.324Z" style="fill-rule:nonzero;"/>
        </g>
        <g transform="matrix(8.53999,0,0,8.53999,46.84,28.3518)">
            <path d="M0.338,-0.545L0.231,-0.545L0.231,-0.676L0.102,-0.676L0.102,-0.545L0.025,-0.545L0.025,-0.446L0.102,-0.446L0.102,-0.143C0.102,-0.04 0.176,0.01 0.273,0.007C0.309,0.006 0.335,-0.001 0.348,-0.005L0.327,-0.106C0.32,-0.104 0.305,-0.101 0.289,-0.101C0.257,-0.101 0.231,-0.112 0.231,-0.164L0.231,-0.446L0.338,-0.446L0.338,-0.545Z" style="fill-rule:nonzero;"/>
        </g>
        <g transform="matrix(8.53999,0,0,8.53999,52.2048,28.3518)">
            <path d="M0.338,-0.545L0.231,-0.545L0.231,-0.676L0.102,-0.676L0.102,-0.545L0.025,-0.545L0.025,-0.446L0.102,-0.446L0.102,-0.143C0.102,-0.04 0.176,0.01 0.273,0.007C0.309,0.006 0.335,-0.001 0.348,-0.005L0.327,-0.106C0.32,-0.104 0.305,-0.101 0.289,-0.101C0.257,-0.101 0.231,-0.112 0.231,-0.164L0.231,-0.446L0.338,-0.446L0.338,-0.545Z" style="fill-rule:nonzero;"/>
        </g>
        <g transform="matrix(8.53999,0,0,8.53999,55.5468,28.3518)">
            <path d="M0.195,-0.32C0.195,-0.398 0.244,-0.444 0.312,-0.444C0.38,-0.444 0.42,-0.401 0.42,-0.327L0.42,-0L0.548,-0L0.548,-0.347C0.548,-0.479 0.474,-0.553 0.36,-0.553C0.277,-0.553 0.223,-0.515 0.198,-0.453L0.192,-0.453L0.192,-0.727L0.066,-0.727L0.066,-0L0.195,-0L0.195,-0.32Z" style="fill-rule:nonzero;"/>
        </g>
        <g transform="matrix(8.53999,0,0,8.53999,60.7812,28.3518)">
            <path d="M0.308,0.011C0.435,0.011 0.522,-0.051 0.545,-0.146L0.425,-0.16C0.407,-0.114 0.365,-0.089 0.309,-0.089C0.226,-0.089 0.171,-0.144 0.17,-0.238L0.55,-0.238L0.55,-0.277C0.55,-0.468 0.435,-0.553 0.301,-0.553C0.145,-0.553 0.043,-0.438 0.043,-0.27C0.043,-0.098 0.143,0.011 0.308,0.011ZM0.17,-0.324C0.174,-0.394 0.226,-0.452 0.303,-0.452C0.376,-0.452 0.426,-0.398 0.427,-0.324L0.17,-0.324Z" style="fill-rule:nonzero;"/>
        </g>
        <g transform="matrix(8.53999,0,0,8.53999,67.9625,28.3518)">
            <path d="M0.072,-0L0.198,-0L0.198,-0.086L0.206,-0.086C0.226,-0.046 0.268,0.01 0.362,0.01C0.49,0.01 0.587,-0.092 0.587,-0.272C0.587,-0.454 0.488,-0.553 0.362,-0.553C0.265,-0.553 0.225,-0.495 0.206,-0.455L0.2,-0.455L0.2,-0.727L0.072,-0.727L0.072,-0ZM0.198,-0.273C0.198,-0.379 0.243,-0.447 0.326,-0.447C0.412,-0.447 0.456,-0.374 0.456,-0.273C0.456,-0.17 0.411,-0.096 0.326,-0.096C0.244,-0.096 0.198,-0.167 0.198,-0.273Z" style="fill-rule:nonzero;"/>
        </g>
        <g transform="matrix(8.53999,0,0,8.53999,73.3455,28.3518)">
            <path d="M0.223,0.011C0.309,0.011 0.36,-0.029 0.383,-0.075L0.387,-0.075L0.387,-0L0.511,-0L0.511,-0.365C0.511,-0.509 0.393,-0.553 0.289,-0.553C0.175,-0.553 0.087,-0.501 0.058,-0.402L0.178,-0.385C0.191,-0.422 0.227,-0.454 0.29,-0.454C0.35,-0.454 0.382,-0.424 0.382,-0.37L0.382,-0.368C0.382,-0.331 0.344,-0.329 0.248,-0.319C0.142,-0.308 0.04,-0.276 0.04,-0.153C0.04,-0.046 0.119,0.011 0.223,0.011ZM0.256,-0.083C0.203,-0.083 0.164,-0.108 0.164,-0.155C0.164,-0.205 0.207,-0.225 0.265,-0.233C0.299,-0.238 0.366,-0.246 0.383,-0.26L0.383,-0.196C0.383,-0.135 0.334,-0.083 0.256,-0.083Z" style="fill-rule:nonzero;"/>
        </g>
        <g transform="matrix(8.53999,0,0,8.53999,78.2524,28.3518)">
            <path d="M0.304,0.011C0.441,0.011 0.528,-0.071 0.538,-0.186L0.415,-0.186C0.404,-0.128 0.362,-0.094 0.305,-0.094C0.225,-0.094 0.173,-0.161 0.173,-0.273C0.173,-0.383 0.226,-0.449 0.305,-0.449C0.367,-0.449 0.405,-0.409 0.415,-0.357L0.538,-0.357C0.529,-0.475 0.436,-0.553 0.303,-0.553C0.143,-0.553 0.043,-0.437 0.043,-0.271C0.043,-0.105 0.141,0.011 0.304,0.011Z" style="fill-rule:nonzero;"/>
        </g>
        <g transform="matrix(8.53999,0,0,8.53999,83.1835,28.3518)">
            <path d="M0.066,-0L0.195,-0L0.195,-0.183L0.241,-0.233L0.408,-0L0.562,-0L0.338,-0.31L0.55,-0.545L0.399,-0.545L0.203,-0.326L0.195,-0.326L0.195,-0.727L0.066,-0.727L0.066,-0Z" style="fill-rule:nonzero;"/>
        </g>
        <g transform="matrix(8.53999,0,0,8.53999,87.8477,28.3518)">
            <path d="M0.303,0.216C0.451,0.216 0.559,0.148 0.559,0.009L0.559,-0.545L0.433,-0.545L0.433,-0.455L0.425,-0.455C0.406,-0.495 0.365,-0.553 0.269,-0.553C0.143,-0.553 0.044,-0.454 0.044,-0.274C0.044,-0.097 0.143,-0.008 0.268,-0.008C0.362,-0.008 0.406,-0.058 0.425,-0.098L0.432,-0.098L0.432,0.005C0.432,0.086 0.379,0.119 0.305,0.119C0.228,0.119 0.194,0.082 0.178,0.05L0.062,0.078C0.086,0.154 0.164,0.216 0.303,0.216ZM0.304,-0.109C0.219,-0.109 0.175,-0.175 0.175,-0.275C0.175,-0.374 0.219,-0.447 0.304,-0.447C0.387,-0.447 0.433,-0.379 0.433,-0.275C0.433,-0.171 0.386,-0.109 0.304,-0.109Z" style="fill-rule:nonzero;"/>
        </g>
        <g transform="matrix(8.53999,0,0,8.53999,93.1883,28.3518)">
            <path d="M0.066,-0L0.195,-0L0.195,-0.321C0.195,-0.39 0.247,-0.439 0.317,-0.439C0.339,-0.439 0.366,-0.435 0.377,-0.431L0.377,-0.55C0.365,-0.552 0.345,-0.553 0.331,-0.553C0.268,-0.553 0.216,-0.518 0.196,-0.455L0.191,-0.455L0.191,-0.545L0.066,-0.545L0.066,-0Z" style="fill-rule:nonzero;"/>
        </g>
        <g transform="matrix(8.53999,0,0,8.53999,96.3817,28.3518)">
            <path d="M0.304,0.011C0.464,0.011 0.565,-0.102 0.565,-0.271C0.565,-0.44 0.464,-0.553 0.304,-0.553C0.144,-0.553 0.043,-0.44 0.043,-0.271C0.043,-0.102 0.144,0.011 0.304,0.011ZM0.305,-0.092C0.216,-0.092 0.173,-0.171 0.173,-0.271C0.173,-0.371 0.216,-0.451 0.305,-0.451C0.392,-0.451 0.435,-0.371 0.435,-0.271C0.435,-0.171 0.392,-0.092 0.305,-0.092Z" style="fill-rule:nonzero;"/>
        </g>
        <g transform="matrix(8.53999,0,0,8.53999,101.574,28.3518)">
            <path d="M0.414,-0.229C0.414,-0.146 0.354,-0.105 0.298,-0.105C0.236,-0.105 0.195,-0.149 0.195,-0.218L0.195,-0.545L0.066,-0.545L0.066,-0.198C0.066,-0.067 0.141,0.007 0.248,0.007C0.33,0.007 0.387,-0.036 0.412,-0.097L0.418,-0.097L0.418,-0L0.542,-0L0.542,-0.545L0.414,-0.545L0.414,-0.229Z" style="fill-rule:nonzero;"/>
        </g>
        <g transform="matrix(8.53999,0,0,8.53999,106.769,28.3518)">
            <path d="M0.195,-0.32C0.195,-0.398 0.242,-0.444 0.31,-0.444C0.376,-0.444 0.416,-0.4 0.416,-0.327L0.416,-0L0.545,-0L0.545,-0.347C0.545,-0.478 0.471,-0.553 0.358,-0.553C0.276,-0.553 0.22,-0.513 0.195,-0.453L0.189,-0.453L0.189,-0.545L0.066,-0.545L0.066,-0L0.195,-0L0.195,-0.32Z" style="fill-rule:nonzero;"/>
        </g>
        <g transform="matrix(8.53999,0,0,8.53999,111.976,28.3518)">
            <path d="M0.268,0.01C0.362,0.01 0.404,-0.046 0.425,-0.086L0.433,-0.086L0.433,-0L0.559,-0L0.559,-0.727L0.43,-0.727L0.43,-0.455L0.425,-0.455C0.405,-0.495 0.365,-0.553 0.269,-0.553C0.143,-0.553 0.044,-0.454 0.044,-0.272C0.044,-0.092 0.14,0.01 0.268,0.01ZM0.304,-0.096C0.219,-0.096 0.175,-0.17 0.175,-0.273C0.175,-0.374 0.219,-0.447 0.304,-0.447C0.387,-0.447 0.433,-0.379 0.433,-0.273C0.433,-0.167 0.386,-0.096 0.304,-0.096Z" style="fill-rule:nonzero;"/>
        </g>
        <g transform="matrix(8.53999,0,0,8.53999,119.478,28.3518)">
            <path d="M0.338,-0.545L0.231,-0.545L0.231,-0.676L0.102,-0.676L0.102,-0.545L0.025,-0.545L0.025,-0.446L0.102,-0.446L0.102,-0.143C0.102,-0.04 0.176,0.01 0.273,0.007C0.309,0.006 0.335,-0.001 0.348,-0.005L0.327,-0.106C0.32,-0.104 0.305,-0.101 0.289,-0.101C0.257,-0.101 0.231,-0.112 0.231,-0.164L0.231,-0.446L0.338,-0.446L0.338,-0.545Z" style="fill-rule:nonzero;"/>
        </g>
        <g transform="matrix(8.53999,0,0,8.53999,122.675,28.3518)">
            <path d="M0.304,0.011C0.464,0.011 0.565,-0.102 0.565,-0.271C0.565,-0.44 0.464,-0.553 0.304,-0.553C0.144,-0.553 0.043,-0.44 0.043,-0.271C0.043,-0.102 0.144,0.011 0.304,0.011ZM0.305,-0.092C0.216,-0.092 0.173,-0.171 0.173,-0.271C0.173,-0.371 0.216,-0.451 0.305,-0.451C0.392,-0.451 0.435,-0.371 0.435,-0.271C0.435,-0.171 0.392,-0.092 0.305,-0.092Z" style="fill-rule:nonzero;"/>
        </g>
        <g transform="matrix(8.53999,0,0,8.53999,28.2489,36.8917)">
            <path d="M0.41,-0.83L0.54,-0.83L0.191,0.11L0.06,0.11L0.41,-0.83Z" style="fill-rule:nonzero;"/>
        </g>
        <g transform="matrix(8.53999,0,0,8.53999,33.3729,36.8917)">
            <path d="M0.073,-0.73L0.199,-0.73L0.199,-0.554C0.199,-0.545 0.199,-0.534 0.199,-0.523C0.198,-0.511 0.198,-0.5 0.197,-0.49C0.196,-0.479 0.195,-0.467 0.194,-0.455L0.203,-0.455C0.21,-0.488 0.226,-0.513 0.252,-0.532C0.277,-0.551 0.31,-0.56 0.35,-0.56C0.379,-0.56 0.405,-0.555 0.428,-0.545C0.451,-0.535 0.471,-0.521 0.488,-0.502C0.504,-0.483 0.517,-0.461 0.526,-0.435C0.535,-0.408 0.539,-0.378 0.539,-0.345L0.539,-0.208C0.539,-0.175 0.535,-0.145 0.526,-0.117C0.517,-0.091 0.504,-0.068 0.488,-0.049C0.471,-0.029 0.451,-0.015 0.428,-0.005C0.405,0.005 0.379,0.01 0.35,0.01C0.31,0.01 0.277,0.001 0.252,-0.018C0.226,-0.037 0.21,-0.063 0.203,-0.096L0.194,-0.096L0.194,-0L0.073,-0L0.073,-0.73ZM0.199,-0.208C0.199,-0.175 0.209,-0.149 0.228,-0.129C0.247,-0.109 0.272,-0.099 0.305,-0.099C0.339,-0.099 0.366,-0.109 0.385,-0.13C0.404,-0.15 0.414,-0.177 0.414,-0.211L0.414,-0.342C0.414,-0.376 0.404,-0.403 0.385,-0.423C0.366,-0.442 0.339,-0.452 0.305,-0.452C0.273,-0.452 0.247,-0.442 0.228,-0.422C0.209,-0.402 0.199,-0.375 0.199,-0.342L0.199,-0.208Z" style="fill-rule:nonzero;"/>
        </g>
        <g transform="matrix(8.53999,0,0,8.53999,38.4969,36.8917)">
            <path d="M0.051,-0.154C0.051,-0.181 0.056,-0.206 0.066,-0.228C0.076,-0.249 0.09,-0.268 0.109,-0.283C0.128,-0.298 0.15,-0.31 0.177,-0.319C0.203,-0.327 0.232,-0.331 0.265,-0.331L0.403,-0.331L0.403,-0.378C0.403,-0.403 0.394,-0.424 0.375,-0.439C0.356,-0.454 0.329,-0.461 0.296,-0.461C0.269,-0.461 0.246,-0.456 0.227,-0.446C0.208,-0.436 0.196,-0.422 0.191,-0.405L0.068,-0.405C0.077,-0.453 0.101,-0.491 0.142,-0.519C0.183,-0.546 0.234,-0.56 0.296,-0.56C0.331,-0.56 0.363,-0.556 0.392,-0.548C0.421,-0.539 0.445,-0.527 0.465,-0.511C0.485,-0.496 0.5,-0.477 0.511,-0.455C0.523,-0.432 0.528,-0.407 0.528,-0.38L0.528,-0L0.41,-0L0.41,-0.108L0.402,-0.108C0.395,-0.072 0.377,-0.043 0.345,-0.022C0.315,-0.001 0.276,0.01 0.23,0.01C0.175,0.01 0.132,-0.005 0.1,-0.035C0.067,-0.064 0.051,-0.104 0.051,-0.154ZM0.273,-0.088C0.311,-0.088 0.342,-0.097 0.367,-0.116C0.391,-0.134 0.403,-0.157 0.403,-0.185L0.403,-0.249L0.266,-0.249C0.238,-0.249 0.216,-0.242 0.2,-0.228C0.184,-0.214 0.176,-0.194 0.176,-0.169C0.176,-0.144 0.185,-0.124 0.202,-0.11C0.219,-0.095 0.242,-0.088 0.273,-0.088Z" style="fill-rule:nonzero;"/>
        </g>
        <g transform="matrix(8.53999,0,0,8.53999,43.6209,36.8917)">
            <path d="M0.306,0.01C0.27,0.01 0.237,0.005 0.208,-0.005C0.179,-0.015 0.154,-0.029 0.133,-0.048C0.112,-0.067 0.096,-0.089 0.085,-0.116C0.074,-0.142 0.068,-0.171 0.068,-0.204L0.068,-0.345C0.068,-0.378 0.074,-0.407 0.085,-0.434C0.096,-0.46 0.112,-0.482 0.133,-0.501C0.154,-0.52 0.179,-0.534 0.208,-0.545C0.237,-0.555 0.27,-0.56 0.306,-0.56C0.338,-0.56 0.368,-0.556 0.395,-0.547C0.422,-0.538 0.446,-0.525 0.467,-0.507C0.488,-0.491 0.505,-0.47 0.519,-0.447C0.532,-0.423 0.541,-0.396 0.546,-0.366L0.421,-0.366C0.416,-0.391 0.404,-0.412 0.383,-0.428C0.362,-0.443 0.337,-0.451 0.306,-0.451C0.271,-0.451 0.243,-0.442 0.223,-0.423C0.203,-0.404 0.193,-0.378 0.193,-0.345L0.193,-0.204C0.193,-0.171 0.203,-0.146 0.223,-0.127C0.242,-0.108 0.27,-0.099 0.306,-0.099C0.336,-0.099 0.362,-0.107 0.383,-0.123C0.404,-0.138 0.416,-0.159 0.421,-0.184L0.546,-0.184C0.541,-0.154 0.532,-0.127 0.519,-0.103C0.505,-0.08 0.488,-0.059 0.467,-0.043C0.446,-0.025 0.422,-0.013 0.395,-0.004C0.368,0.005 0.338,0.01 0.306,0.01Z" style="fill-rule:nonzero;"/>
        </g>
        <g transform="matrix(8.53999,0,0,8.53999,48.7448,36.8917)">
            <path d="M0.205,-0.73L0.205,-0.333L0.293,-0.333L0.43,-0.55L0.57,-0.55L0.4,-0.282L0.573,-0L0.43,-0L0.293,-0.226L0.205,-0.226L0.205,-0L0.08,-0L0.08,-0.73L0.205,-0.73Z" style="fill-rule:nonzero;"/>
        </g>
        <g transform="matrix(8.53999,0,0,8.53999,53.8688,36.8917)">
            <path d="M0.058,-0.347C0.058,-0.379 0.063,-0.408 0.071,-0.435C0.081,-0.461 0.093,-0.483 0.11,-0.502C0.127,-0.521 0.147,-0.535 0.17,-0.545C0.193,-0.555 0.219,-0.56 0.248,-0.56C0.289,-0.56 0.323,-0.55 0.35,-0.531C0.377,-0.511 0.393,-0.484 0.4,-0.45L0.407,-0.45L0.407,-0.55L0.527,-0.55L0.527,-0.034C0.527,-0.003 0.522,0.024 0.511,0.048C0.5,0.073 0.485,0.094 0.465,0.111C0.445,0.128 0.421,0.142 0.393,0.151C0.364,0.16 0.333,0.165 0.298,0.165L0.151,0.165L0.151,0.061L0.298,0.061C0.33,0.061 0.355,0.053 0.374,0.036C0.393,0.019 0.402,-0.004 0.402,-0.034L0.402,-0.045L0.406,-0.155L0.4,-0.155C0.393,-0.121 0.377,-0.094 0.349,-0.075C0.323,-0.055 0.289,-0.045 0.248,-0.045C0.219,-0.045 0.193,-0.05 0.17,-0.06C0.147,-0.07 0.127,-0.084 0.11,-0.103C0.093,-0.122 0.081,-0.144 0.071,-0.171C0.063,-0.197 0.058,-0.226 0.058,-0.258L0.058,-0.347ZM0.184,-0.261C0.184,-0.227 0.194,-0.201 0.213,-0.182C0.232,-0.163 0.259,-0.153 0.293,-0.153C0.326,-0.153 0.353,-0.163 0.373,-0.182C0.392,-0.201 0.402,-0.228 0.402,-0.261L0.402,-0.344C0.402,-0.377 0.392,-0.404 0.373,-0.423C0.353,-0.442 0.326,-0.452 0.293,-0.452C0.259,-0.452 0.232,-0.442 0.213,-0.423C0.194,-0.404 0.184,-0.377 0.184,-0.344L0.184,-0.261Z" style="fill-rule:nonzero;"/>
        </g>
        <g transform="matrix(8.53999,0,0,8.53999,58.9928,36.8917)">
            <path d="M0.095,-0.55L0.213,-0.55L0.213,-0.455L0.222,-0.455C0.229,-0.488 0.245,-0.514 0.272,-0.533C0.299,-0.551 0.333,-0.56 0.374,-0.56C0.433,-0.56 0.48,-0.542 0.513,-0.505C0.546,-0.468 0.563,-0.418 0.563,-0.353L0.563,-0.313L0.432,-0.313L0.432,-0.342C0.432,-0.377 0.422,-0.405 0.403,-0.425C0.384,-0.444 0.357,-0.454 0.323,-0.454C0.291,-0.454 0.266,-0.444 0.248,-0.424C0.229,-0.404 0.22,-0.377 0.22,-0.342L0.22,-0L0.095,-0L0.095,-0.55Z" style="fill-rule:nonzero;"/>
        </g>
        <g transform="matrix(8.53999,0,0,8.53999,64.1168,36.8917)">
            <path d="M0.186,-0.208C0.186,-0.175 0.196,-0.148 0.217,-0.129C0.237,-0.11 0.265,-0.1 0.3,-0.1C0.335,-0.1 0.363,-0.11 0.384,-0.129C0.404,-0.148 0.414,-0.175 0.414,-0.208L0.414,-0.343C0.414,-0.376 0.404,-0.403 0.384,-0.422C0.363,-0.441 0.335,-0.451 0.3,-0.451C0.265,-0.451 0.238,-0.441 0.217,-0.422C0.196,-0.403 0.186,-0.376 0.186,-0.343L0.186,-0.208ZM0.061,-0.343C0.061,-0.376 0.067,-0.405 0.078,-0.432C0.089,-0.459 0.106,-0.482 0.127,-0.5C0.148,-0.52 0.173,-0.534 0.202,-0.545C0.231,-0.555 0.264,-0.56 0.3,-0.56C0.336,-0.56 0.369,-0.555 0.398,-0.545C0.427,-0.534 0.453,-0.52 0.473,-0.5C0.495,-0.482 0.511,-0.459 0.522,-0.432C0.533,-0.405 0.539,-0.376 0.539,-0.343L0.539,-0.208C0.539,-0.175 0.533,-0.146 0.522,-0.118C0.511,-0.092 0.495,-0.069 0.474,-0.05C0.453,-0.031 0.428,-0.016 0.399,-0.006C0.369,0.005 0.336,0.01 0.3,0.01C0.264,0.01 0.231,0.005 0.202,-0.006C0.173,-0.017 0.148,-0.032 0.127,-0.051C0.106,-0.07 0.089,-0.092 0.078,-0.119C0.067,-0.146 0.061,-0.175 0.061,-0.208L0.061,-0.343Z" style="fill-rule:nonzero;"/>
        </g>
        <g transform="matrix(8.53999,0,0,8.53999,69.2408,36.8917)">
            <path d="M0.075,-0.55L0.201,-0.55L0.201,-0.206C0.201,-0.135 0.234,-0.099 0.3,-0.099C0.367,-0.099 0.4,-0.135 0.4,-0.206L0.4,-0.55L0.525,-0.55L0.525,-0.206C0.525,-0.137 0.505,-0.084 0.466,-0.047C0.426,-0.009 0.371,0.01 0.3,0.01C0.229,0.01 0.173,-0.009 0.134,-0.047C0.095,-0.085 0.075,-0.138 0.075,-0.206L0.075,-0.55Z" style="fill-rule:nonzero;"/>
        </g>
        <g transform="matrix(8.53999,0,0,8.53999,74.3648,36.8917)">
            <path d="M0.072,-0L0.072,-0.55L0.191,-0.55L0.191,-0.455L0.2,-0.455C0.206,-0.488 0.222,-0.514 0.247,-0.533C0.272,-0.551 0.305,-0.56 0.345,-0.56C0.4,-0.56 0.444,-0.542 0.477,-0.506C0.51,-0.47 0.526,-0.421 0.526,-0.36L0.526,-0L0.401,-0L0.401,-0.345C0.401,-0.378 0.392,-0.405 0.374,-0.424C0.356,-0.443 0.331,-0.452 0.3,-0.452C0.268,-0.452 0.243,-0.442 0.225,-0.423C0.206,-0.403 0.197,-0.376 0.197,-0.342L0.197,-0L0.072,-0Z" style="fill-rule:nonzero;"/>
        </g>
        <g transform="matrix(8.53999,0,0,8.53999,79.4888,36.8917)">
            <path d="M0.061,-0.345C0.061,-0.378 0.066,-0.408 0.075,-0.435C0.084,-0.461 0.096,-0.483 0.113,-0.502C0.13,-0.521 0.15,-0.535 0.173,-0.545C0.196,-0.555 0.222,-0.56 0.25,-0.56C0.29,-0.56 0.323,-0.551 0.349,-0.532C0.375,-0.513 0.391,-0.488 0.397,-0.455L0.407,-0.455C0.406,-0.466 0.406,-0.478 0.405,-0.489C0.404,-0.499 0.403,-0.509 0.403,-0.521C0.402,-0.532 0.402,-0.541 0.402,-0.55L0.402,-0.73L0.527,-0.73L0.527,-0L0.407,-0L0.407,-0.096L0.397,-0.096C0.391,-0.063 0.375,-0.037 0.349,-0.018C0.323,0.001 0.29,0.01 0.25,0.01C0.222,0.01 0.196,0.005 0.173,-0.005C0.15,-0.015 0.13,-0.029 0.113,-0.049C0.096,-0.068 0.084,-0.091 0.075,-0.117C0.066,-0.145 0.061,-0.175 0.061,-0.208L0.061,-0.345ZM0.295,-0.099C0.328,-0.099 0.354,-0.109 0.373,-0.129C0.392,-0.149 0.402,-0.175 0.402,-0.208L0.402,-0.342C0.402,-0.375 0.392,-0.402 0.373,-0.422C0.353,-0.442 0.327,-0.452 0.295,-0.452C0.261,-0.452 0.234,-0.442 0.215,-0.423C0.196,-0.403 0.186,-0.376 0.186,-0.342L0.186,-0.211C0.186,-0.177 0.196,-0.15 0.215,-0.13C0.234,-0.109 0.261,-0.099 0.295,-0.099Z" style="fill-rule:nonzero;"/>
        </g>
        <g transform="matrix(8.53999,0,0,8.53999,84.6128,36.8917)">
            <path d="M0.279,0.01C0.214,0.01 0.163,-0.003 0.125,-0.029C0.086,-0.056 0.064,-0.093 0.058,-0.141L0.186,-0.141C0.19,-0.124 0.2,-0.11 0.217,-0.101C0.234,-0.091 0.254,-0.086 0.279,-0.086L0.319,-0.086C0.35,-0.086 0.375,-0.092 0.392,-0.105C0.408,-0.117 0.417,-0.134 0.417,-0.155C0.417,-0.192 0.389,-0.214 0.332,-0.222L0.254,-0.231C0.191,-0.239 0.145,-0.256 0.115,-0.283C0.085,-0.31 0.07,-0.348 0.07,-0.398C0.07,-0.45 0.088,-0.49 0.125,-0.518C0.161,-0.546 0.213,-0.56 0.281,-0.56L0.322,-0.56C0.383,-0.56 0.432,-0.547 0.469,-0.522C0.505,-0.496 0.527,-0.46 0.534,-0.414L0.406,-0.414C0.403,-0.429 0.394,-0.442 0.379,-0.451C0.364,-0.46 0.345,-0.464 0.322,-0.464L0.281,-0.464C0.222,-0.464 0.193,-0.443 0.193,-0.402C0.193,-0.367 0.218,-0.346 0.267,-0.34L0.348,-0.329C0.413,-0.321 0.462,-0.303 0.493,-0.276C0.524,-0.248 0.54,-0.209 0.54,-0.159C0.54,-0.105 0.521,-0.063 0.483,-0.034C0.445,-0.005 0.39,0.01 0.319,0.01L0.279,0.01Z" style="fill-rule:nonzero;"/>
        </g>
        <g transform="matrix(8.53999,0,0,8.53999,89.7368,36.8917)">
            <path d="M0.41,-0.83L0.54,-0.83L0.191,0.11L0.06,0.11L0.41,-0.83Z" style="fill-rule:nonzero;"/>
        </g>
        <g transform="matrix(8.53999,0,0,8.53999,94.8608,36.8917)">
            <path d="M0.045,-0.55L0.197,-0.55L0.197,-0.72L0.322,-0.72L0.322,-0.55L0.531,-0.55L0.531,-0.437L0.322,-0.437L0.322,-0.17C0.322,-0.153 0.327,-0.139 0.338,-0.129C0.348,-0.118 0.362,-0.113 0.381,-0.113L0.521,-0.113L0.521,-0L0.372,-0C0.318,-0 0.275,-0.015 0.244,-0.046C0.213,-0.077 0.197,-0.118 0.197,-0.17L0.197,-0.437L0.045,-0.437L0.045,-0.55Z" style="fill:rgb(51,153,255);fill-rule:nonzero;"/>
        </g>
        <g transform="matrix(8.53999,0,0,8.53999,99.9848,36.8917)">
            <path d="M0.3,0.01C0.264,0.01 0.231,0.005 0.202,-0.006C0.172,-0.016 0.147,-0.03 0.126,-0.049C0.105,-0.068 0.089,-0.09 0.078,-0.117C0.067,-0.144 0.061,-0.173 0.061,-0.206L0.061,-0.345C0.061,-0.378 0.067,-0.407 0.078,-0.434C0.089,-0.461 0.105,-0.483 0.126,-0.502C0.147,-0.521 0.172,-0.535 0.202,-0.545C0.231,-0.555 0.264,-0.56 0.3,-0.56C0.336,-0.56 0.369,-0.555 0.398,-0.545C0.427,-0.534 0.452,-0.52 0.473,-0.501C0.494,-0.482 0.51,-0.46 0.521,-0.433C0.532,-0.406 0.538,-0.377 0.538,-0.344L0.538,-0.244L0.185,-0.244L0.185,-0.208C0.185,-0.171 0.195,-0.143 0.216,-0.122C0.236,-0.101 0.264,-0.091 0.3,-0.091C0.327,-0.091 0.35,-0.095 0.37,-0.103C0.389,-0.112 0.402,-0.124 0.41,-0.14L0.533,-0.14C0.527,-0.117 0.517,-0.097 0.503,-0.078C0.489,-0.059 0.472,-0.043 0.452,-0.031C0.431,-0.018 0.408,-0.008 0.383,-0.001C0.357,0.006 0.329,0.01 0.3,0.01ZM0.415,-0.328L0.415,-0.344C0.415,-0.381 0.405,-0.409 0.385,-0.43C0.365,-0.45 0.337,-0.46 0.3,-0.46C0.264,-0.46 0.236,-0.45 0.216,-0.43C0.195,-0.409 0.185,-0.381 0.185,-0.345L0.185,-0.328L0.415,-0.328Z" style="fill:rgb(51,153,255);fill-rule:nonzero;"/>
        </g>
        <g transform="matrix(8.53999,0,0,8.53999,105.109,36.8917)">
            <path d="M0.279,0.01C0.214,0.01 0.163,-0.003 0.125,-0.029C0.086,-0.056 0.064,-0.093 0.058,-0.141L0.186,-0.141C0.19,-0.124 0.2,-0.11 0.217,-0.101C0.234,-0.091 0.254,-0.086 0.279,-0.086L0.319,-0.086C0.35,-0.086 0.375,-0.092 0.392,-0.105C0.408,-0.117 0.417,-0.134 0.417,-0.155C0.417,-0.192 0.389,-0.214 0.332,-0.222L0.254,-0.231C0.191,-0.239 0.145,-0.256 0.115,-0.283C0.085,-0.31 0.07,-0.348 0.07,-0.398C0.07,-0.45 0.088,-0.49 0.125,-0.518C0.161,-0.546 0.213,-0.56 0.281,-0.56L0.322,-0.56C0.383,-0.56 0.432,-0.547 0.469,-0.522C0.505,-0.496 0.527,-0.46 0.534,-0.414L0.406,-0.414C0.403,-0.429 0.394,-0.442 0.379,-0.451C0.364,-0.46 0.345,-0.464 0.322,-0.464L0.281,-0.464C0.222,-0.464 0.193,-0.443 0.193,-0.402C0.193,-0.367 0.218,-0.346 0.267,-0.34L0.348,-0.329C0.413,-0.321 0.462,-0.303 0.493,-0.276C0.524,-0.248 0.54,-0.209 0.54,-0.159C0.54,-0.105 0.521,-0.063 0.483,-0.034C0.445,-0.005 0.39,0.01 0.319,0.01L0.279,0.01Z" style="fill:rgb(51,153,255);fill-rule:nonzero;"/>
        </g>
        <g transform="matrix(8.53999,0,0,8.53999,110.233,36.8917)">
            <path d="M0.045,-0.55L0.197,-0.55L0.197,-0.72L0.322,-0.72L0.322,-0.55L0.531,-0.55L0.531,-0.437L0.322,-0.437L0.322,-0.17C0.322,-0.153 0.327,-0.139 0.338,-0.129C0.348,-0.118 0.362,-0.113 0.381,-0.113L0.521,-0.113L0.521,-0L0.372,-0C0.318,-0 0.275,-0.015 0.244,-0.046C0.213,-0.077 0.197,-0.118 0.197,-0.17L0.197,-0.437L0.045,-0.437L0.045,-0.55Z" style="fill:rgb(51,153,255);fill-rule:nonzero;"/>
        </g>
        <g transform="matrix(8.53999,0,0,8.53999,115.357,36.8917)">
            <path d="M0.203,-0.088C0.203,-0.118 0.212,-0.142 0.23,-0.16C0.247,-0.177 0.271,-0.186 0.3,-0.186C0.33,-0.186 0.354,-0.177 0.371,-0.16C0.388,-0.142 0.397,-0.118 0.397,-0.088C0.397,-0.059 0.388,-0.035 0.371,-0.017C0.354,0.001 0.33,0.01 0.3,0.01C0.271,0.01 0.247,0.001 0.23,-0.017C0.212,-0.035 0.203,-0.059 0.203,-0.088Z" style="fill-rule:nonzero;"/>
        </g>
        <g transform="matrix(8.53999,0,0,8.53999,120.481,36.8917)">
            <path d="M0.045,-0.55L0.197,-0.55L0.197,-0.72L0.322,-0.72L0.322,-0.55L0.531,-0.55L0.531,-0.437L0.322,-0.437L0.322,-0.17C0.322,-0.153 0.327,-0.139 0.338,-0.129C0.348,-0.118 0.362,-0.113 0.381,-0.113L0.521,-0.113L0.521,-0L0.372,-0C0.318,-0 0.275,-0.015 0.244,-0.046C0.213,-0.077 0.197,-0.118 0.197,-0.17L0.197,-0.437L0.045,-0.437L0.045,-0.55Z" style="fill-rule:nonzero;"/>
        </g>
        <g transform="matrix(8.53999,0,0,8.53999,125.605,36.8917)">
            <path d="M0.058,-0.347C0.058,-0.379 0.063,-0.408 0.071,-0.435C0.081,-0.461 0.093,-0.483 0.11,-0.502C0.127,-0.521 0.147,-0.535 0.17,-0.545C0.193,-0.555 0.219,-0.56 0.248,-0.56C0.289,-0.56 0.323,-0.55 0.35,-0.531C0.377,-0.511 0.393,-0.484 0.4,-0.45L0.407,-0.45L0.407,-0.55L0.527,-0.55L0.527,-0.034C0.527,-0.003 0.522,0.024 0.511,0.048C0.5,0.073 0.485,0.094 0.465,0.111C0.445,0.128 0.421,0.142 0.393,0.151C0.364,0.16 0.333,0.165 0.298,0.165L0.151,0.165L0.151,0.061L0.298,0.061C0.33,0.061 0.355,0.053 0.374,0.036C0.393,0.019 0.402,-0.004 0.402,-0.034L0.402,-0.045L0.406,-0.155L0.4,-0.155C0.393,-0.121 0.377,-0.094 0.349,-0.075C0.323,-0.055 0.289,-0.045 0.248,-0.045C0.219,-0.045 0.193,-0.05 0.17,-0.06C0.147,-0.07 0.127,-0.084 0.11,-0.103C0.093,-0.122 0.081,-0.144 0.071,-0.171C0.063,-0.197 0.058,-0.226 0.058,-0.258L0.058,-0.347ZM0.184,-0.261C0.184,-0.227 0.194,-0.201 0.213,-0.182C0.232,-0.163 0.259,-0.153 0.293,-0.153C0.326,-0.153 0.353,-0.163 0.373,-0.182C0.392,-0.201 0.402,-0.228 0.402,-0.261L0.402,-0.344C0.402,-0.377 0.392,-0.404 0.373,-0.423C0.353,-0.442 0.326,-0.452 0.293,-0.452C0.259,-0.452 0.232,-0.442 0.213,-0.423C0.194,-0.404 0.184,-0.377 0.184,-0.344L0.184,-0.261Z" style="fill-rule:nonzero;"/>
        </g>
        <g transform="matrix(8.53999,0,0,8.53999,130.729,36.8917)">
            <path d="M0.051,-0.154C0.051,-0.181 0.056,-0.206 0.066,-0.228C0.076,-0.249 0.09,-0.268 0.109,-0.283C0.128,-0.298 0.15,-0.31 0.177,-0.319C0.203,-0.327 0.232,-0.331 0.265,-0.331L0.403,-0.331L0.403,-0.378C0.403,-0.403 0.394,-0.424 0.375,-0.439C0.356,-0.454 0.329,-0.461 0.296,-0.461C0.269,-0.461 0.246,-0.456 0.227,-0.446C0.208,-0.436 0.196,-0.422 0.191,-0.405L0.068,-0.405C0.077,-0.453 0.101,-0.491 0.142,-0.519C0.183,-0.546 0.234,-0.56 0.296,-0.56C0.331,-0.56 0.363,-0.556 0.392,-0.548C0.421,-0.539 0.445,-0.527 0.465,-0.511C0.485,-0.496 0.5,-0.477 0.511,-0.455C0.523,-0.432 0.528,-0.407 0.528,-0.38L0.528,-0L0.41,-0L0.41,-0.108L0.402,-0.108C0.395,-0.072 0.377,-0.043 0.345,-0.022C0.315,-0.001 0.276,0.01 0.23,0.01C0.175,0.01 0.132,-0.005 0.1,-0.035C0.067,-0.064 0.051,-0.104 0.051,-0.154ZM0.273,-0.088C0.311,-0.088 0.342,-0.097 0.367,-0.116C0.391,-0.134 0.403,-0.157 0.403,-0.185L0.403,-0.249L0.266,-0.249C0.238,-0.249 0.216,-0.242 0.2,-0.228C0.184,-0.214 0.176,-0.194 0.176,-0.169C0.176,-0.144 0.185,-0.124 0.202,-0.11C0.219,-0.095 0.242,-0.088 0.273,-0.088Z" style="fill-rule:nonzero;"/>
        </g>
    </g>
    <g transform="matrix(2.34192,0,0,2.34192,15.8121,-22.2605)">
        <g transform="matrix(8.53999,0,0,8.53999,36.2348,28.3518)">
            <path d="M0.467,-0.527L0.594,-0.527C0.591,-0.65 0.486,-0.737 0.332,-0.737C0.179,-0.737 0.064,-0.651 0.065,-0.523C0.065,-0.418 0.139,-0.358 0.259,-0.327L0.341,-0.306C0.42,-0.286 0.472,-0.262 0.472,-0.205C0.472,-0.143 0.413,-0.102 0.327,-0.102C0.244,-0.102 0.18,-0.138 0.175,-0.215L0.045,-0.215C0.051,-0.07 0.158,0.011 0.328,0.011C0.502,0.011 0.603,-0.076 0.604,-0.204C0.603,-0.33 0.499,-0.388 0.39,-0.414L0.322,-0.431C0.262,-0.445 0.197,-0.47 0.198,-0.531C0.199,-0.586 0.248,-0.626 0.33,-0.626C0.408,-0.626 0.46,-0.589 0.467,-0.527Z" style="fill-rule:nonzero;"/>
        </g>
        <g transform="matrix(8.53999,0,0,8.53999,41.7785,28.3518)">
            <path d="M0.308,0.011C0.435,0.011 0.522,-0.051 0.545,-0.146L0.425,-0.16C0.407,-0.114 0.365,-0.089 0.309,-0.089C0.226,-0.089 0.171,-0.144 0.17,-0.238L0.55,-0.238L0.55,-0.277C0.55,-0.468 0.435,-0.553 0.301,-0.553C0.145,-0.553 0.043,-0.438 0.043,-0.27C0.043,-0.098 0.143,0.011 0.308,0.011ZM0.17,-0.324C0.174,-0.394 0.226,-0.452 0.303,-0.452C0.376,-0.452 0.426,-0.398 0.427,-0.324L0.17,-0.324Z" style="fill-rule:nonzero;"/>
        </g>
        <g transform="matrix(8.53999,0,0,8.53999,46.84,28.3518)">
            <path d="M0.338,-0.545L0.231,-0.545L0.231,-0.676L0.102,-0.676L0.102,-0.545L0.025,-0.545L0.025,-0.446L0.102,-0.446L0.102,-0.143C0.102,-0.04 0.176,0.01 0.273,0.007C0.309,0.006 0.335,-0.001 0.348,-0.005L0.327,-0.106C0.32,-0.104 0.305,-0.101 0.289,-0.101C0.257,-0.101 0.231,-0.112 0.231,-0.164L0.231,-0.446L0.338,-0.446L0.338,-0.545Z" style="fill-rule:nonzero;"/>
        </g>
        <g transform="matrix(8.53999,0,0,8.53999,52.2048,28.3518)">
            <path d="M0.338,-0.545L0.231,-0.545L0.231,-0.676L0.102,-0.676L0.102,-0.545L0.025,-0.545L0.025,-0.446L0.102,-0.446L0.102,-0.143C0.102,-0.04 0.176,0.01 0.273,0.007C0.309,0.006 0.335,-0.001 0.348,-0.005L0.327,-0.106C0.32,-0.104 0.305,-0.101 0.289,-0.101C0.257,-0.101 0.231,-0.112 0.231,-0.164L0.231,-0.446L0.338,-0.446L0.338,-0.545Z" style="fill-rule:nonzero;"/>
        </g>
        <g transform="matrix(8.53999,0,0,8.53999,55.5468,28.3518)">
            <path d="M0.195,-0.32C0.195,-0.398 0.244,-0.444 0.312,-0.444C0.38,-0.444 0.42,-0.401 0.42,-0.327L0.42,-0L0.548,-0L0.548,-0.347C0.548,-0.479 0.474,-0.553 0.36,-0.553C0.277,-0.553 0.223,-0.515 0.198,-0.453L0.192,-0.453L0.192,-0.727L0.066,-0.727L0.066,-0L0.195,-0L0.195,-0.32Z" style="fill-rule:nonzero;"/>
        </g>
        <g transform="matrix(8.53999,0,0,8.53999,60.7812,28.3518)">
            <path d="M0.308,0.011C0.435,0.011 0.522,-0.051 0.545,-0.146L0.425,-0.16C0.407,-0.114 0.365,-0.089 0.309,-0.089C0.226,-0.089 0.171,-0.144 0.17,-0.238L0.55,-0.238L0.55,-0.277C0.55,-0.468 0.435,-0.553 0.301,-0.553C0.145,-0.553 0.043,-0.438 0.043,-0.27C0.043,-0.098 0.143,0.011 0.308,0.011ZM0.17,-0.324C0.174,-0.394 0.226,-0.452 0.303,-0.452C0.376,-0.452 0.426,-0.398 0.427,-0.324L0.17,-0.324Z" style="fill-rule:nonzero;"/>
        </g>
        <g transform="matrix(8.53999,0,0,8.53999,67.9625,28.3518)">
            <path d="M0.072,-0L0.198,-0L0.198,-0.086L0.206,-0.086C0.226,-0.046 0.268,0.01 0.362,0.01C0.49,0.01 0.587,-0.092 0.587,-0.272C0.587,-0.454 0.488,-0.553 0.362,-0.553C0.265,-0.553 0.225,-0.495 0.206,-0.455L0.2,-0.455L0.2,-0.727L0.072,-0.727L0.072,-0ZM0.198,-0.273C0.198,-0.379 0.243,-0.447 0.326,-0.447C0.412,-0.447 0.456,-0.374 0.456,-0.273C0.456,-0.17 0.411,-0.096 0.326,-0.096C0.244,-0.096 0.198,-0.167 0.198,-0.273Z" style="fill-rule:nonzero;"/>
        </g>
        <g transform="matrix(8.53999,0,0,8.53999,73.3455,28.3518)">
            <path d="M0.223,0.011C0.309,0.011 0.36,-0.029 0.383,-0.075L0.387,-0.075L0.387,-0L0.511,-0L0.511,-0.365C0.511,-0.509 0.393,-0.553 0.289,-0.553C0.175,-0.553 0.087,-0.501 0.058,-0.402L0.178,-0.385C0.191,-0.422 0.227,-0.454 0.29,-0.454C0.35,-0.454 0.382,-0.424 0.382,-0.37L0.382,-0.368C0.382,-0.331 0.344,-0.329 0.248,-0.319C0.142,-0.308 0.04,-0.276 0.04,-0.153C0.04,-0.046 0.119,0.011 0.223,0.011ZM0.256,-0.083C0.203,-0.083 0.164,-0.108 0.164,-0.155C0.164,-0.205 0.207,-0.225 0.265,-0.233C0.299,-0.238 0.366,-0.246 0.383,-0.26L0.383,-0.196C0.383,-0.135 0.334,-0.083 0.256,-0.083Z" style="fill-rule:nonzero;"/>
        </g>
        <g transform="matrix(8.53999,0,0,8.53999,78.2524,28.3518)">
            <path d="M0.304,0.011C0.441,0.011 0.528,-0.071 0.538,-0.186L0.415,-0.186C0.404,-0.128 0.362,-0.094 0.305,-0.094C0.225,-0.094 0.173,-0.161 0.173,-0.273C0.173,-0.383 0.226,-0.449 0.305,-0.449C0.367,-0.449 0.405,-0.409 0.415,-0.357L0.538,-0.357C0.529,-0.475 0.436,-0.553 0.303,-0.553C0.143,-0.553 0.043,-0.437 0.043,-0.271C0.043,-0.105 0.141,0.011 0.304,0.011Z" style="fill-rule:nonzero;"/>
        </g>
        <g transform="matrix(8.53999,0,0,8.53999,83.1835,28.3518)">
            <path d="M0.066,-0L0.195,-0L0.195,-0.183L0.241,-0.233L0.408,-0L0.562,-0L0.338,-0.31L0.55,-0.545L0.399,-0.545L0.203,-0.326L0.195,-0.326L0.195,-0.727L0.066,-0.727L0.066,-0Z" style="fill-rule:nonzero;"/>
        </g>
        <g transform="matrix(8.53999,0,0,8.53999,87.8477,28.3518)">
            <path d="M0.303,0.216C0.451,0.216 0.559,0.148 0.559,0.009L0.559,-0.545L0.433,-0.545L0.433,-0.455L0.425,-0.455C0.406,-0.495 0.365,-0.553 0.269,-0.553C0.143,-0.553 0.044,-0.454 0.044,-0.274C0.044,-0.097 0.143,-0.008 0.268,-0.008C0.362,-0.008 0.406,-0.058 0.425,-0.098L0.432,-0.098L0.432,0.005C0.432,0.086 0.379,0.119 0.305,0.119C0.228,0.119 0.194,0.082 0.178,0.05L0.062,0.078C0.086,0.154 0.164,0.216 0.303,0.216ZM0.304,-0.109C0.219,-0.109 0.175,-0.175 0.175,-0.275C0.175,-0.374 0.219,-0.447 0.304,-0.447C0.387,-0.447 0.433,-0.379 0.433,-0.275C0.433,-0.171 0.386,-0.109 0.304,-0.109Z" style="fill-rule:nonzero;"/>
        </g>
        <g transform="matrix(8.53999,0,0,8.53999,93.1883,28.3518)">
            <path d="M0.066,-0L0.195,-0L0.195,-0.321C0.195,-0.39 0.247,-0.439 0.317,-0.439C0.339,-0.439 0.366,-0.435 0.377,-0.431L0.377,-0.55C0.365,-0.552 0.345,-0.553 0.331,-0.553C0.268,-0.553 0.216,-0.518 0.196,-0.455L0.191,-0.455L0.191,-0.545L0.066,-0.545L0.066,-0Z" style="fill-rule:nonzero;"/>
        </g>
        <g transform="matrix(8.53999,0,0,8.53999,96.3817,28.3518)">
            <path d="M0.304,0.011C0.464,0.011 0.565,-0.102 0.565,-0.271C0.565,-0.44 0.464,-0.553 0.304,-0.553C0.144,-0.553 0.043,-0.44 0.043,-0.271C0.043,-0.102 0.144,0.011 0.304,0.011ZM0.305,-0.092C0.216,-0.092 0.173,-0.171 0.173,-0.271C0.173,-0.371 0.216,-0.451 0.305,-0.451C0.392,-0.451 0.435,-0.371 0.435,-0.271C0.435,-0.171 0.392,-0.092 0.305,-0.092Z" style="fill-rule:nonzero;"/>
        </g>
        <g transform="matrix(8.53999,0,0,8.53999,101.574,28.3518)">
            <path d="M0.414,-0.229C0.414,-0.146 0.354,-0.105 0.298,-0.105C0.236,-0.105 0.195,-0.149 0.195,-0.218L0.195,-0.545L0.066,-0.545L0.066,-0.198C0.066,-0.067 0.141,0.007 0.248,0.007C0.33,0.007 0.387,-0.036 0.412,-0.097L0.418,-0.097L0.418,-0L0.542,-0L0.542,-0.545L0.414,-0.545L0.414,-0.229Z" style="fill-rule:nonzero;"/>
        </g>
        <g transform="matrix(8.53999,0,0,8.53999,106.769,28.3518)">
            <path d="M0.195,-0.32C0.195,-0.398 0.242,-0.444 0.31,-0.444C0.376,-0.444 0.416,-0.4 0.416,-0.327L0.416,-0L0.545,-0L0.545,-0.347C0.545,-0.478 0.471,-0.553 0.358,-0.553C0.276,-0.553 0.22,-0.513 0.195,-0.453L0.189,-0.453L0.189,-0.545L0.066,-0.545L0.066,-0L0.195,-0L0.195,-0.32Z" style="fill-rule:nonzero;"/>
        </g>
        <g transform="matrix(8.53999,0,0,8.53999,111.976,28.3518)">
            <path d="M0.268,0.01C0.362,0.01 0.404,-0.046 0.425,-0.086L0.433,-0.086L0.433,-0L0.559,-0L0.559,-0.727L0.43,-0.727L0.43,-0.455L0.425,-0.455C0.405,-0.495 0.365,-0.553 0.269,-0.553C0.143,-0.553 0.044,-0.454 0.044,-0.272C0.044,-0.092 0.14,0.01 0.268,0.01ZM0.304,-0.096C0.219,-0.096 0.175,-0.17 0.175,-0.273C0.175,-0.374 0.219,-0.447 0.304,-0.447C0.387,-0.447 0.433,-0.379 0.433,-0.273C0.433,-0.167 0.386,-0.096 0.304,-0.096Z" style="fill-rule:nonzero;"/>
        </g>
        <g transform="matrix(8.53999,0,0,8.53999,119.478,28.3518)">
            <path d="M0.338,-0.545L0.231,-0.545L0.231,-0.676L0.102,-0.676L0.102,-0.545L0.025,-0.545L0.025,-0.446L0.102,-0.446L0.102,-0.143C0.102,-0.04 0.176,0.01 0.273,0.007C0.309,0.006 0.335,-0.001 0.348,-0.005L0.327,-0.106C0.32,-0.104 0.305,-0.101 0.289,-0.101C0.257,-0.101 0.231,-0.112 0.231,-0.164L0.231,-0.446L0.338,-0.446L0.338,-0.545Z" style="fill-rule:nonzero;"/>
        </g>
        <g transform="matrix(8.53999,0,0,8.53999,122.675,28.3518)">
            <path d="M0.304,0.011C0.464,0.011 0.565,-0.102 0.565,-0.271C0.565,-0.44 0.464,-0.553 0.304,-0.553C0.144,-0.553 0.043,-0.44 0.043,-0.271C0.043,-0.102 0.144,0.011 0.304,0.011ZM0.305,-0.092C0.216,-0.092 0.173,-0.171 0.173,-0.271C0.173,-0.371 0.216,-0.451 0.305,-0.451C0.392,-0.451 0.435,-0.371 0.435,-0.271C0.435,-0.171 0.392,-0.092 0.305,-0.092Z" style="fill-rule:nonzero;"/>
        </g>
        <g transform="matrix(8.53999,0,0,8.53999,33.3729,38.1727)">
            <path d="M0.41,-0.83L0.54,-0.83L0.191,0.11L0.06,0.11L0.41,-0.83Z" style="fill-rule:nonzero;"/>
        </g>
        <g transform="matrix(8.53999,0,0,8.53999,38.4969,38.1727)">
            <path d="M0.051,-0.154C0.051,-0.181 0.056,-0.206 0.066,-0.228C0.076,-0.249 0.09,-0.268 0.109,-0.283C0.128,-0.298 0.15,-0.31 0.177,-0.319C0.203,-0.327 0.232,-0.331 0.265,-0.331L0.403,-0.331L0.403,-0.378C0.403,-0.403 0.394,-0.424 0.375,-0.439C0.356,-0.454 0.329,-0.461 0.296,-0.461C0.269,-0.461 0.246,-0.456 0.227,-0.446C0.208,-0.436 0.196,-0.422 0.191,-0.405L0.068,-0.405C0.077,-0.453 0.101,-0.491 0.142,-0.519C0.183,-0.546 0.234,-0.56 0.296,-0.56C0.331,-0.56 0.363,-0.556 0.392,-0.548C0.421,-0.539 0.445,-0.527 0.465,-0.511C0.485,-0.496 0.5,-0.477 0.511,-0.455C0.523,-0.432 0.528,-0.407 0.528,-0.38L0.528,-0L0.41,-0L0.41,-0.108L0.402,-0.108C0.395,-0.072 0.377,-0.043 0.345,-0.022C0.315,-0.001 0.276,0.01 0.23,0.01C0.175,0.01 0.132,-0.005 0.1,-0.035C0.067,-0.064 0.051,-0.104 0.051,-0.154ZM0.273,-0.088C0.311,-0.088 0.342,-0.097 0.367,-0.116C0.391,-0.134 0.403,-0.157 0.403,-0.185L0.403,-0.249L0.266,-0.249C0.238,-0.249 0.216,-0.242 0.2,-0.228C0.184,-0.214 0.176,-0.194 0.176,-0.169C0.176,-0.144 0.185,-0.124 0.202,-0.11C0.219,-0.095 0.242,-0.088 0.273,-0.088Z" style="fill-rule:nonzero;"/>
        </g>
        <g transform="matrix(8.53999,0,0,8.53999,43.6209,38.1727)">
            <path d="M0.279,0.01C0.214,0.01 0.163,-0.003 0.125,-0.029C0.086,-0.056 0.064,-0.093 0.058,-0.141L0.186,-0.141C0.19,-0.124 0.2,-0.11 0.217,-0.101C0.234,-0.091 0.254,-0.086 0.279,-0.086L0.319,-0.086C0.35,-0.086 0.375,-0.092 0.392,-0.105C0.408,-0.117 0.417,-0.134 0.417,-0.155C0.417,-0.192 0.389,-0.214 0.332,-0.222L0.254,-0.231C0.191,-0.239 0.145,-0.256 0.115,-0.283C0.085,-0.31 0.07,-0.348 0.07,-0.398C0.07,-0.45 0.088,-0.49 0.125,-0.518C0.161,-0.546 0.213,-0.56 0.281,-0.56L0.322,-0.56C0.383,-0.56 0.432,-0.547 0.469,-0.522C0.505,-0.496 0.527,-0.46 0.534,-0.414L0.406,-0.414C0.403,-0.429 0.394,-0.442 0.379,-0.451C0.364,-0.46 0.345,-0.464 0.322,-0.464L0.281,-0.464C0.222,-0.464 0.193,-0.443 0.193,-0.402C0.193,-0.367 0.218,-0.346 0.267,-0.34L0.348,-0.329C0.413,-0.321 0.462,-0.303 0.493,-0.276C0.524,-0.248 0.54,-0.209 0.54,-0.159C0.54,-0.105 0.521,-0.063 0.483,-0.034C0.445,-0.005 0.39,0.01 0.319,0.01L0.279,0.01Z" style="fill-rule:nonzero;"/>
        </g>
        <g transform="matrix(8.53999,0,0,8.53999,48.7448,38.1727)">
            <path d="M0.279,0.01C0.214,0.01 0.163,-0.003 0.125,-0.029C0.086,-0.056 0.064,-0.093 0.058,-0.141L0.186,-0.141C0.19,-0.124 0.2,-0.11 0.217,-0.101C0.234,-0.091 0.254,-0.086 0.279,-0.086L0.319,-0.086C0.35,-0.086 0.375,-0.092 0.392,-0.105C0.408,-0.117 0.417,-0.134 0.417,-0.155C0.417,-0.192 0.389,-0.214 0.332,-0.222L0.254,-0.231C0.191,-0.239 0.145,-0.256 0.115,-0.283C0.085,-0.31 0.07,-0.348 0.07,-0.398C0.07,-0.45 0.088,-0.49 0.125,-0.518C0.161,-0.546 0.213,-0.56 0.281,-0.56L0.322,-0.56C0.383,-0.56 0.432,-0.547 0.469,-0.522C0.505,-0.496 0.527,-0.46 0.534,-0.414L0.406,-0.414C0.403,-0.429 0.394,-0.442 0.379,-0.451C0.364,-0.46 0.345,-0.464 0.322,-0.464L0.281,-0.464C0.222,-0.464 0.193,-0.443 0.193,-0.402C0.193,-0.367 0.218,-0.346 0.267,-0.34L0.348,-0.329C0.413,-0.321 0.462,-0.303 0.493,-0.276C0.524,-0.248 0.54,-0.209 0.54,-0.159C0.54,-0.105 0.521,-0.063 0.483,-0.034C0.445,-0.005 0.39,0.01 0.319,0.01L0.279,0.01Z" style="fill-rule:nonzero;"/>
        </g>
        <g transform="matrix(8.53999,0,0,8.53999,53.8688,38.1727)">
            <path d="M0.3,0.01C0.264,0.01 0.231,0.005 0.202,-0.006C0.172,-0.016 0.147,-0.03 0.126,-0.049C0.105,-0.068 0.089,-0.09 0.078,-0.117C0.067,-0.144 0.061,-0.173 0.061,-0.206L0.061,-0.345C0.061,-0.378 0.067,-0.407 0.078,-0.434C0.089,-0.461 0.105,-0.483 0.126,-0.502C0.147,-0.521 0.172,-0.535 0.202,-0.545C0.231,-0.555 0.264,-0.56 0.3,-0.56C0.336,-0.56 0.369,-0.555 0.398,-0.545C0.427,-0.534 0.452,-0.52 0.473,-0.501C0.494,-0.482 0.51,-0.46 0.521,-0.433C0.532,-0.406 0.538,-0.377 0.538,-0.344L0.538,-0.244L0.185,-0.244L0.185,-0.208C0.185,-0.171 0.195,-0.143 0.216,-0.122C0.236,-0.101 0.264,-0.091 0.3,-0.091C0.327,-0.091 0.35,-0.095 0.37,-0.103C0.389,-0.112 0.402,-0.124 0.41,-0.14L0.533,-0.14C0.527,-0.117 0.517,-0.097 0.503,-0.078C0.489,-0.059 0.472,-0.043 0.452,-0.031C0.431,-0.018 0.408,-0.008 0.383,-0.001C0.357,0.006 0.329,0.01 0.3,0.01ZM0.415,-0.328L0.415,-0.344C0.415,-0.381 0.405,-0.409 0.385,-0.43C0.365,-0.45 0.337,-0.46 0.3,-0.46C0.264,-0.46 0.236,-0.45 0.216,-0.43C0.195,-0.409 0.185,-0.381 0.185,-0.345L0.185,-0.328L0.415,-0.328Z" style="fill-rule:nonzero;"/>
        </g>
        <g transform="matrix(8.53999,0,0,8.53999,58.9928,38.1727)">
            <path d="M0.045,-0.55L0.197,-0.55L0.197,-0.72L0.322,-0.72L0.322,-0.55L0.531,-0.55L0.531,-0.437L0.322,-0.437L0.322,-0.17C0.322,-0.153 0.327,-0.139 0.338,-0.129C0.348,-0.118 0.362,-0.113 0.381,-0.113L0.521,-0.113L0.521,-0L0.372,-0C0.318,-0 0.275,-0.015 0.244,-0.046C0.213,-0.077 0.197,-0.118 0.197,-0.17L0.197,-0.437L0.045,-0.437L0.045,-0.55Z" style="fill-rule:nonzero;"/>
        </g>
        <g transform="matrix(8.53999,0,0,8.53999,64.1168,38.1727)">
            <path d="M0.279,0.01C0.214,0.01 0.163,-0.003 0.125,-0.029C0.086,-0.056 0.064,-0.093 0.058,-0.141L0.186,-0.141C0.19,-0.124 0.2,-0.11 0.217,-0.101C0.234,-0.091 0.254,-0.086 0.279,-0.086L0.319,-0.086C0.35,-0.086 0.375,-0.092 0.392,-0.105C0.408,-0.117 0.417,-0.134 0.417,-0.155C0.417,-0.192 0.389,-0.214 0.332,-0.222L0.254,-0.231C0.191,-0.239 0.145,-0.256 0.115,-0.283C0.085,-0.31 0.07,-0.348 0.07,-0.398C0.07,-0.45 0.088,-0.49 0.125,-0.518C0.161,-0.546 0.213,-0.56 0.281,-0.56L0.322,-0.56C0.383,-0.56 0.432,-0.547 0.469,-0.522C0.505,-0.496 0.527,-0.46 0.534,-0.414L0.406,-0.414C0.403,-0.429 0.394,-0.442 0.379,-0.451C0.364,-0.46 0.345,-0.464 0.322,-0.464L0.281,-0.464C0.222,-0.464 0.193,-0.443 0.193,-0.402C0.193,-0.367 0.218,-0.346 0.267,-0.34L0.348,-0.329C0.413,-0.321 0.462,-0.303 0.493,-0.276C0.524,-0.248 0.54,-0.209 0.54,-0.159C0.54,-0.105 0.521,-0.063 0.483,-0.034C0.445,-0.005 0.39,0.01 0.319,0.01L0.279,0.01Z" style="fill-rule:nonzero;"/>
        </g>
        <g transform="matrix(8.53999,0,0,8.53999,69.2408,38.1727)">
            <path d="M0.41,-0.83L0.54,-0.83L0.191,0.11L0.06,0.11L0.41,-0.83Z" style="fill-rule:nonzero;"/>
        </g>
        <g transform="matrix(8.53999,0,0,8.53999,74.3648,38.1727)">
            <path d="M0.073,-0.73L0.199,-0.73L0.199,-0.554C0.199,-0.545 0.199,-0.534 0.199,-0.523C0.198,-0.511 0.198,-0.5 0.197,-0.49C0.196,-0.479 0.195,-0.467 0.194,-0.455L0.203,-0.455C0.21,-0.488 0.226,-0.513 0.252,-0.532C0.277,-0.551 0.31,-0.56 0.35,-0.56C0.379,-0.56 0.405,-0.555 0.428,-0.545C0.451,-0.535 0.471,-0.521 0.488,-0.502C0.504,-0.483 0.517,-0.461 0.526,-0.435C0.535,-0.408 0.539,-0.378 0.539,-0.345L0.539,-0.208C0.539,-0.175 0.535,-0.145 0.526,-0.117C0.517,-0.091 0.504,-0.068 0.488,-0.049C0.471,-0.029 0.451,-0.015 0.428,-0.005C0.405,0.005 0.379,0.01 0.35,0.01C0.31,0.01 0.277,0.001 0.252,-0.018C0.226,-0.037 0.21,-0.063 0.203,-0.096L0.194,-0.096L0.194,-0L0.073,-0L0.073,-0.73ZM0.199,-0.208C0.199,-0.175 0.209,-0.149 0.228,-0.129C0.247,-0.109 0.272,-0.099 0.305,-0.099C0.339,-0.099 0.366,-0.109 0.385,-0.13C0.404,-0.15 0.414,-0.177 0.414,-0.211L0.414,-0.342C0.414,-0.376 0.404,-0.403 0.385,-0.423C0.366,-0.442 0.339,-0.452 0.305,-0.452C0.273,-0.452 0.247,-0.442 0.228,-0.422C0.209,-0.402 0.199,-0.375 0.199,-0.342L0.199,-0.208Z" style="fill-rule:nonzero;"/>
        </g>
        <g transform="matrix(8.53999,0,0,8.53999,79.4888,38.1727)">
            <path d="M0.058,-0.347C0.058,-0.379 0.063,-0.408 0.071,-0.435C0.081,-0.461 0.093,-0.483 0.11,-0.502C0.127,-0.521 0.147,-0.535 0.17,-0.545C0.193,-0.555 0.219,-0.56 0.248,-0.56C0.289,-0.56 0.323,-0.55 0.35,-0.531C0.377,-0.511 0.393,-0.484 0.4,-0.45L0.407,-0.45L0.407,-0.55L0.527,-0.55L0.527,-0.034C0.527,-0.003 0.522,0.024 0.511,0.048C0.5,0.073 0.485,0.094 0.465,0.111C0.445,0.128 0.421,0.142 0.393,0.151C0.364,0.16 0.333,0.165 0.298,0.165L0.151,0.165L0.151,0.061L0.298,0.061C0.33,0.061 0.355,0.053 0.374,0.036C0.393,0.019 0.402,-0.004 0.402,-0.034L0.402,-0.045L0.406,-0.155L0.4,-0.155C0.393,-0.121 0.377,-0.094 0.349,-0.075C0.323,-0.055 0.289,-0.045 0.248,-0.045C0.219,-0.045 0.193,-0.05 0.17,-0.06C0.147,-0.07 0.127,-0.084 0.11,-0.103C0.093,-0.122 0.081,-0.144 0.071,-0.171C0.063,-0.197 0.058,-0.226 0.058,-0.258L0.058,-0.347ZM0.184,-0.261C0.184,-0.227 0.194,-0.201 0.213,-0.182C0.232,-0.163 0.259,-0.153 0.293,-0.153C0.326,-0.153 0.353,-0.163 0.373,-0.182C0.392,-0.201 0.402,-0.228 0.402,-0.261L0.402,-0.344C0.402,-0.377 0.392,-0.404 0.373,-0.423C0.353,-0.442 0.326,-0.452 0.293,-0.452C0.259,-0.452 0.232,-0.442 0.213,-0.423C0.194,-0.404 0.184,-0.377 0.184,-0.344L0.184,-0.261Z" style="fill-rule:nonzero;"/>
        </g>
        <g transform="matrix(8.53999,0,0,8.53999,84.6128,38.1727)">
            <path d="M0.41,-0.83L0.54,-0.83L0.191,0.11L0.06,0.11L0.41,-0.83Z" style="fill-rule:nonzero;"/>
        </g>
        <g transform="matrix(8.53999,0,0,8.53999,89.7368,38.1727)">
            <path d="M0.045,-0.55L0.197,-0.55L0.197,-0.72L0.322,-0.72L0.322,-0.55L0.531,-0.55L0.531,-0.437L0.322,-0.437L0.322,-0.17C0.322,-0.153 0.327,-0.139 0.338,-0.129C0.348,-0.118 0.362,-0.113 0.381,-0.113L0.521,-0.113L0.521,-0L0.372,-0C0.318,-0 0.275,-0.015 0.244,-0.046C0.213,-0.077 0.197,-0.118 0.197,-0.17L0.197,-0.437L0.045,-0.437L0.045,-0.55Z" style="fill:rgb(51,153,255);fill-rule:nonzero;"/>
        </g>
        <g transform="matrix(8.53999,0,0,8.53999,94.8608,38.1727)">
            <path d="M0.3,0.01C0.264,0.01 0.231,0.005 0.202,-0.006C0.172,-0.016 0.147,-0.03 0.126,-0.049C0.105,-0.068 0.089,-0.09 0.078,-0.117C0.067,-0.144 0.061,-0.173 0.061,-0.206L0.061,-0.345C0.061,-0.378 0.067,-0.407 0.078,-0.434C0.089,-0.461 0.105,-0.483 0.126,-0.502C0.147,-0.521 0.172,-0.535 0.202,-0.545C0.231,-0.555 0.264,-0.56 0.3,-0.56C0.336,-0.56 0.369,-0.555 0.398,-0.545C0.427,-0.534 0.452,-0.52 0.473,-0.501C0.494,-0.482 0.51,-0.46 0.521,-0.433C0.532,-0.406 0.538,-0.377 0.538,-0.344L0.538,-0.244L0.185,-0.244L0.185,-0.208C0.185,-0.171 0.195,-0.143 0.216,-0.122C0.236,-0.101 0.264,-0.091 0.3,-0.091C0.327,-0.091 0.35,-0.095 0.37,-0.103C0.389,-0.112 0.402,-0.124 0.41,-0.14L0.533,-0.14C0.527,-0.117 0.517,-0.097 0.503,-0.078C0.489,-0.059 0.472,-0.043 0.452,-0.031C0.431,-0.018 0.408,-0.008 0.383,-0.001C0.357,0.006 0.329,0.01 0.3,0.01ZM0.415,-0.328L0.415,-0.344C0.415,-0.381 0.405,-0.409 0.385,-0.43C0.365,-0.45 0.337,-0.46 0.3,-0.46C0.264,-0.46 0.236,-0.45 0.216,-0.43C0.195,-0.409 0.185,-0.381 0.185,-0.345L0.185,-0.328L0.415,-0.328Z" style="fill:rgb(51,153,255);fill-rule:nonzero;"/>
        </g>
        <g transform="matrix(8.53999,0,0,8.53999,99.9848,38.1727)">
            <path d="M0.279,0.01C0.214,0.01 0.163,-0.003 0.125,-0.029C0.086,-0.056 0.064,-0.093 0.058,-0.141L0.186,-0.141C0.19,-0.124 0.2,-0.11 0.217,-0.101C0.234,-0.091 0.254,-0.086 0.279,-0.086L0.319,-0.086C0.35,-0.086 0.375,-0.092 0.392,-0.105C0.408,-0.117 0.417,-0.134 0.417,-0.155C0.417,-0.192 0.389,-0.214 0.332,-0.222L0.254,-0.231C0.191,-0.239 0.145,-0.256 0.115,-0.283C0.085,-0.31 0.07,-0.348 0.07,-0.398C0.07,-0.45 0.088,-0.49 0.125,-0.518C0.161,-0.546 0.213,-0.56 0.281,-0.56L0.322,-0.56C0.383,-0.56 0.432,-0.547 0.469,-0.522C0.505,-0.496 0.527,-0.46 0.534,-0.414L0.406,-0.414C0.403,-0.429 0.394,-0.442 0.379,-0.451C0.364,-0.46 0.345,-0.464 0.322,-0.464L0.281,-0.464C0.222,-0.464 0.193,-0.443 0.193,-0.402C0.193,-0.367 0.218,-0.346 0.267,-0.34L0.348,-0.329C0.413,-0.321 0.462,-0.303 0.493,-0.276C0.524,-0.248 0.54,-0.209 0.54,-0.159C0.54,-0.105 0.521,-0.063 0.483,-0.034C0.445,-0.005 0.39,0.01 0.319,0.01L0.279,0.01Z" style="fill:rgb(51,153,255);fill-rule:nonzero;"/>
        </g>
        <g transform="matrix(8.53999,0,0,8.53999,105.109,38.1727)">
            <path d="M0.045,-0.55L0.197,-0.55L0.197,-0.72L0.322,-0.72L0.322,-0.55L0.531,-0.55L0.531,-0.437L0.322,-0.437L0.322,-0.17C0.322,-0.153 0.327,-0.139 0.338,-0.129C0.348,-0.118 0.362,-0.113 0.381,-0.113L0.521,-0.113L0.521,-0L0.372,-0C0.318,-0 0.275,-0.015 0.244,-0.046C0.213,-0.077 0.197,-0.118 0.197,-0.17L0.197,-0.437L0.045,-0.437L0.045,-0.55Z" style="fill:rgb(51,153,255);fill-rule:nonzero;"/>
        </g>
        <g transform="matrix(8.53999,0,0,8.53999,110.233,38.1727)">
            <path d="M0.203,-0.088C0.203,-0.118 0.212,-0.142 0.23,-0.16C0.247,-0.177 0.271,-0.186 0.3,-0.186C0.33,-0.186 0.354,-0.177 0.371,-0.16C0.388,-0.142 0.397,-0.118 0.397,-0.088C0.397,-0.059 0.388,-0.035 0.371,-0.017C0.354,0.001 0.33,0.01 0.3,0.01C0.271,0.01 0.247,0.001 0.23,-0.017C0.212,-0.035 0.203,-0.059 0.203,-0.088Z" style="fill-rule:nonzero;"/>
        </g>
        <g transform="matrix(8.53999,0,0,8.53999,115.357,38.1727)">
            <path d="M0.194,-0.55L0.194,-0.455L0.203,-0.455C0.21,-0.488 0.226,-0.513 0.252,-0.532C0.277,-0.551 0.31,-0.56 0.35,-0.56C0.379,-0.56 0.405,-0.555 0.428,-0.545C0.451,-0.535 0.471,-0.521 0.488,-0.502C0.504,-0.483 0.517,-0.461 0.526,-0.435C0.535,-0.408 0.539,-0.378 0.539,-0.345L0.539,-0.208C0.539,-0.175 0.535,-0.145 0.526,-0.117C0.517,-0.091 0.504,-0.068 0.488,-0.049C0.471,-0.029 0.451,-0.015 0.428,-0.005C0.405,0.005 0.379,0.01 0.35,0.01C0.31,0.01 0.277,0.001 0.252,-0.018C0.226,-0.037 0.21,-0.063 0.203,-0.096L0.194,-0.096C0.194,-0.094 0.194,-0.09 0.195,-0.084C0.196,-0.077 0.196,-0.07 0.197,-0.061C0.198,-0.051 0.198,-0.042 0.199,-0.031C0.199,-0.02 0.199,-0.01 0.199,-0L0.199,0.165L0.073,0.165L0.073,-0.55L0.194,-0.55ZM0.199,-0.208C0.199,-0.175 0.209,-0.149 0.228,-0.129C0.247,-0.109 0.272,-0.099 0.305,-0.099C0.339,-0.099 0.366,-0.109 0.385,-0.13C0.404,-0.15 0.414,-0.177 0.414,-0.211L0.414,-0.342C0.414,-0.376 0.404,-0.403 0.385,-0.423C0.366,-0.442 0.339,-0.452 0.305,-0.452C0.273,-0.452 0.247,-0.442 0.228,-0.422C0.209,-0.402 0.199,-0.375 0.199,-0.342L0.199,-0.208Z" style="fill-rule:nonzero;"/>
        </g>
        <g transform="matrix(8.53999,0,0,8.53999,120.481,38.1727)">
            <path d="M0.072,-0L0.072,-0.55L0.191,-0.55L0.191,-0.455L0.2,-0.455C0.206,-0.488 0.222,-0.514 0.247,-0.533C0.272,-0.551 0.305,-0.56 0.345,-0.56C0.4,-0.56 0.444,-0.542 0.477,-0.506C0.51,-0.47 0.526,-0.421 0.526,-0.36L0.526,-0L0.401,-0L0.401,-0.345C0.401,-0.378 0.392,-0.405 0.374,-0.424C0.356,-0.443 0.331,-0.452 0.3,-0.452C0.268,-0.452 0.243,-0.442 0.225,-0.423C0.206,-0.403 0.197,-0.376 0.197,-0.342L0.197,-0L0.072,-0Z" style="fill-rule:nonzero;"/>
        </g>
        <g transform="matrix(8.53999,0,0,8.53999,125.605,38.1727)">
            <path d="M0.058,-0.347C0.058,-0.379 0.063,-0.408 0.071,-0.435C0.081,-0.461 0.093,-0.483 0.11,-0.502C0.127,-0.521 0.147,-0.535 0.17,-0.545C0.193,-0.555 0.219,-0.56 0.248,-0.56C0.289,-0.56 0.323,-0.55 0.35,-0.531C0.377,-0.511 0.393,-0.484 0.4,-0.45L0.407,-0.45L0.407,-0.55L0.527,-0.55L0.527,-0.034C0.527,-0.003 0.522,0.024 0.511,0.048C0.5,0.073 0.485,0.094 0.465,0.111C0.445,0.128 0.421,0.142 0.393,0.151C0.364,0.16 0.333,0.165 0.298,0.165L0.151,0.165L0.151,0.061L0.298,0.061C0.33,0.061 0.355,0.053 0.374,0.036C0.393,0.019 0.402,-0.004 0.402,-0.034L0.402,-0.045L0.406,-0.155L0.4,-0.155C0.393,-0.121 0.377,-0.094 0.349,-0.075C0.323,-0.055 0.289,-0.045 0.248,-0.045C0.219,-0.045 0.193,-0.05 0.17,-0.06C0.147,-0.07 0.127,-0.084 0.11,-0.103C0.093,-0.122 0.081,-0.144 0.071,-0.171C0.063,-0.197 0.058,-0.226 0.058,-0.258L0.058,-0.347ZM0.184,-0.261C0.184,-0.227 0.194,-0.201 0.213,-0.182C0.232,-0.163 0.259,-0.153 0.293,-0.153C0.326,-0.153 0.353,-0.163 0.373,-0.182C0.392,-0.201 0.402,-0.228 0.402,-0.261L0.402,-0.344C0.402,-0.377 0.392,-0.404 0.373,-0.423C0.353,-0.442 0.326,-0.452 0.293,-0.452C0.259,-0.452 0.232,-0.442 0.213,-0.423C0.194,-0.404 0.184,-0.377 0.184,-0.344L0.184,-0.261Z" style="fill-rule:nonzero;"/>
        </g>
    </g>
    <g id="icon.svg" transform="matrix(0.985781,0,0,0.985781,51,190.034)">
        <g transform="matrix(1,0,0,1,-25.5,-25.5)">
            <g transform="matrix(1.19563,0,0,1.19563,-5.76736,-18.9428)">
                <g>
                    <g>
                        <circle cx="26.044" cy="37.064" r="21.22" style="fill:rgb(255,78,80);"/>
                        <g transform="matrix(0.897144,0,0,0.897144,4.58919,17.2899)">
                            <g>
                                <path d="M15.184,23.75C16.848,24.767 18.227,26.206 19.171,27.917L14.344,30.574C14.794,31.389 15.05,32.326 15.05,33.323L9.348,33.323L14.344,30.574C13.864,29.703 13.162,28.972 12.316,28.454L15.184,23.75ZM20.915,14.349C24.213,16.365 26.946,19.217 28.818,22.609L24.001,25.259C25.322,27.652 26.073,30.4 26.073,33.323L20.56,33.323C20.56,31.364 20.056,29.521 19.171,27.917L24.001,25.259C22.593,22.707 20.536,20.56 18.054,19.043L20.915,14.349ZM38.481,17.292L33.653,19.948C35.843,23.917 37.089,28.475 37.089,33.323L31.57,33.323C31.57,29.44 30.572,25.788 28.818,22.609L33.653,19.948C31.317,15.714 27.906,12.154 23.788,9.637L26.656,4.932C31.591,7.949 35.68,12.217 38.481,17.292Z" style="fill:white;"/>
                            </g>
                        </g>
                    </g>
                </g>
            </g>
        </g>
    </g>
    <g transform="matrix(0.292429,0,0,0.445524,257.537,77.7118)">
        <path d="M386.68,45.195C386.68,32.807 371.357,22.75 352.483,22.75L59.725,22.75C40.851,22.75 25.529,32.807 25.529,45.195L25.529,74.715C25.529,87.103 40.851,97.16 59.725,97.16L352.483,97.16C371.357,97.16 386.68,87.103 386.68,74.715L386.68,45.195Z" style="fill:rgb(255,78,80);fill-opacity:0.18;"/>
        <clipPath id="_clip3">
            <path d="M386.68,45.195C386.68,32.807 371.357,22.75 352.483,22.75L59.725,22.75C40.851,22.75 25.529,32.807 25.529,45.195L25.529,74.715C25.529,87.103 40.851,97.16 59.725,97.16L352.483,97.16C371.357,97.16 386.68,87.103 386.68,74.715L386.68,45.195Z"/>
        </clipPath>
        <g clip-path="url(#_clip3)">
            <g transform="matrix(7.54307,0,0,4.95105,-800.401,-245.049)">
                <g transform="matrix(12,0,0,12,117.148,65.0641)">
                    <path d="M0.477,-0.727L0.477,-0.278C0.477,-0.211 0.429,-0.162 0.361,-0.162C0.293,-0.162 0.244,-0.211 0.244,-0.278L0.244,-0.727L0.047,-0.727L0.047,-0.261C0.047,-0.095 0.173,0.009 0.361,0.009C0.548,0.009 0.675,-0.095 0.675,-0.261L0.675,-0.727L0.477,-0.727Z" style="fill:rgb(255,78,80);fill-rule:nonzero;"/>
                </g>
                <g transform="matrix(12,0,0,12,125.807,65.0641)">
                    <path d="M0.246,-0.307C0.246,-0.361 0.277,-0.393 0.325,-0.393C0.375,-0.393 0.404,-0.361 0.403,-0.307L0.403,-0L0.599,-0L0.599,-0.348C0.6,-0.467 0.525,-0.553 0.409,-0.553C0.329,-0.553 0.265,-0.511 0.241,-0.442L0.236,-0.442L0.236,-0.545L0.05,-0.545L0.05,-0L0.246,-0L0.246,-0.307Z" style="fill:rgb(255,78,80);fill-rule:nonzero;"/>
                </g>
                <g transform="matrix(12,0,0,12,133.562,65.0641)">
                    <path d="M0.05,-0L0.246,-0L0.246,-0.545L0.05,-0.545L0.05,-0ZM0.148,-0.602C0.201,-0.602 0.244,-0.642 0.244,-0.692C0.244,-0.741 0.201,-0.781 0.148,-0.781C0.094,-0.781 0.051,-0.741 0.051,-0.692C0.051,-0.642 0.094,-0.602 0.148,-0.602Z" style="fill:rgb(255,78,80);fill-rule:nonzero;"/>
                </g>
                <g transform="matrix(12,0,0,12,137.108,65.0641)">
                    <path d="M0.375,-0.545L0.281,-0.545L0.281,-0.676L0.085,-0.676L0.085,-0.545L0.016,-0.545L0.016,-0.403L0.085,-0.403L0.085,-0.157C0.084,-0.043 0.154,0.015 0.29,0.008C0.334,0.005 0.367,-0.004 0.385,-0.009L0.357,-0.147C0.349,-0.145 0.33,-0.141 0.318,-0.141C0.293,-0.141 0.281,-0.153 0.281,-0.175L0.281,-0.403L0.375,-0.403L0.375,-0.545Z" style="fill:rgb(255,78,80);fill-rule:nonzero;"/>
                </g>
                <g transform="matrix(12,0,0,12,141.966,65.0641)">
                    <path d="M0.169,0.205C0.306,0.205 0.37,0.136 0.401,0.045L0.599,-0.545L0.393,-0.545L0.304,-0.168L0.298,-0.168L0.21,-0.545L0.006,-0.545L0.197,0.024L0.193,0.034C0.18,0.064 0.142,0.063 0.094,0.046L0.051,0.185C0.082,0.197 0.124,0.205 0.169,0.205Z" style="fill:rgb(255,78,80);fill-rule:nonzero;"/>
                </g>
            </g>
        </g>
        <path d="M399.844,45.195C399.844,28.038 378.622,14.109 352.483,14.109L59.725,14.109C33.586,14.109 12.365,28.038 12.365,45.195L12.365,74.715C12.365,91.871 33.586,105.801 59.725,105.801L352.483,105.801C378.622,105.801 399.844,91.871 399.844,74.715C399.844,74.715 399.844,45.195 399.844,45.195ZM386.68,45.195C386.68,32.807 371.357,22.75 352.483,22.75L59.725,22.75C40.851,22.75 25.529,32.807 25.529,45.195L25.529,74.715C25.529,87.103 40.851,97.16 59.725,97.16L352.483,97.16C371.357,97.16 386.68,87.103 386.68,74.715L386.68,45.195Z" style="fill:rgb(255,78,80);"/>
    </g>
    <g transform="matrix(2.20581,0,0,2.20581,-98.9075,-31.4635)">
        <g transform="matrix(12,0,0,12,71.9772,65.0641)">
            <path d="M0.047,-0L0.244,-0L0.244,-0.216L0.354,-0.216C0.52,-0.216 0.631,-0.314 0.631,-0.47C0.631,-0.625 0.522,-0.727 0.361,-0.727L0.047,-0.727L0.047,-0ZM0.244,-0.369L0.244,-0.57L0.314,-0.57C0.383,-0.57 0.425,-0.533 0.425,-0.47C0.425,-0.408 0.383,-0.369 0.314,-0.369L0.244,-0.369Z" style="fill:rgb(255,78,80);fill-rule:nonzero;"/>
        </g>
        <g transform="matrix(12,0,0,12,79.8522,65.0641)">
            <path d="M0.05,-0L0.246,-0L0.246,-0.284C0.246,-0.347 0.289,-0.388 0.347,-0.388C0.367,-0.388 0.399,-0.385 0.419,-0.378L0.419,-0.545C0.403,-0.55 0.386,-0.553 0.369,-0.553C0.311,-0.553 0.266,-0.518 0.246,-0.442L0.24,-0.442L0.24,-0.545L0.05,-0.545L0.05,-0Z" style="fill:rgb(255,78,80);fill-rule:nonzero;"/>
        </g>
        <g transform="matrix(12,0,0,12,84.676,65.0641)">
            <path d="M0.312,0.01C0.49,0.01 0.595,-0.104 0.595,-0.271C0.595,-0.439 0.49,-0.553 0.312,-0.553C0.135,-0.553 0.03,-0.439 0.03,-0.271C0.03,-0.104 0.135,0.01 0.312,0.01ZM0.314,-0.135C0.261,-0.135 0.23,-0.187 0.23,-0.273C0.23,-0.358 0.261,-0.411 0.314,-0.411C0.364,-0.411 0.395,-0.358 0.395,-0.273C0.395,-0.187 0.364,-0.135 0.314,-0.135Z" style="fill:rgb(255,78,80);fill-rule:nonzero;"/>
        </g>
        <g transform="matrix(12,0,0,12,92.176,65.0641)">
            <path d="M0.05,-0.545L0.05,0.014C0.05,0.046 0.036,0.06 -0.011,0.06C-0.018,0.06 -0.025,0.059 -0.034,0.058L-0.034,0.203C-0.02,0.204 -0.009,0.205 0.006,0.205C0.15,0.205 0.246,0.162 0.246,0.018L0.246,-0.545L0.05,-0.545ZM0.148,-0.602C0.201,-0.602 0.244,-0.642 0.244,-0.692C0.244,-0.741 0.201,-0.781 0.148,-0.781C0.094,-0.781 0.051,-0.741 0.051,-0.692C0.051,-0.642 0.094,-0.602 0.148,-0.602Z" style="fill:rgb(255,78,80);fill-rule:nonzero;"/>
        </g>
        <g transform="matrix(12,0,0,12,95.7215,65.0641)">
            <path d="M0.311,0.01C0.462,0.01 0.56,-0.062 0.578,-0.176L0.399,-0.176C0.388,-0.145 0.355,-0.128 0.315,-0.128C0.257,-0.128 0.223,-0.166 0.223,-0.219L0.223,-0.227L0.578,-0.227L0.578,-0.273C0.578,-0.446 0.472,-0.553 0.307,-0.553C0.138,-0.553 0.03,-0.44 0.03,-0.271C0.03,-0.095 0.136,0.01 0.311,0.01ZM0.223,-0.335C0.224,-0.382 0.263,-0.415 0.311,-0.415C0.36,-0.415 0.397,-0.382 0.398,-0.335L0.223,-0.335Z" style="fill:rgb(255,78,80);fill-rule:nonzero;"/>
        </g>
        <g transform="matrix(12,0,0,12,103.017,65.0641)">
            <path d="M0.312,0.01C0.474,0.01 0.573,-0.083 0.575,-0.227L0.393,-0.227C0.389,-0.17 0.358,-0.139 0.315,-0.139C0.264,-0.139 0.23,-0.183 0.23,-0.273C0.23,-0.362 0.264,-0.406 0.315,-0.406C0.359,-0.406 0.388,-0.375 0.393,-0.318L0.575,-0.318C0.574,-0.46 0.473,-0.553 0.312,-0.553C0.135,-0.553 0.03,-0.439 0.03,-0.271C0.03,-0.104 0.135,0.01 0.312,0.01Z" style="fill:rgb(255,78,80);fill-rule:nonzero;"/>
        </g>
        <g transform="matrix(12,0,0,12,110.295,65.0641)">
            <path d="M0.375,-0.545L0.281,-0.545L0.281,-0.676L0.085,-0.676L0.085,-0.545L0.016,-0.545L0.016,-0.403L0.085,-0.403L0.085,-0.157C0.084,-0.043 0.154,0.015 0.29,0.008C0.334,0.005 0.367,-0.004 0.385,-0.009L0.357,-0.147C0.349,-0.145 0.33,-0.141 0.318,-0.141C0.293,-0.141 0.281,-0.153 0.281,-0.175L0.281,-0.403L0.375,-0.403L0.375,-0.545Z" style="fill:rgb(255,78,80);fill-rule:nonzero;"/>
        </g>
        <g transform="matrix(12,0,0,12,117.54,65.0641)">
            <path d="M0.405,-0.727L0.223,-0.727L0.044,-0.618L0.044,-0.45L0.203,-0.545L0.207,-0.545L0.207,-0L0.405,-0L0.405,-0.727Z" style="fill:rgb(255,78,80);fill-rule:nonzero;"/>
        </g>
        <g transform="matrix(12,0,0,12,125.994,65.0641)">
            <path d="M0.403,-0.239C0.404,-0.185 0.373,-0.152 0.324,-0.152C0.274,-0.152 0.246,-0.185 0.246,-0.239L0.246,-0.545L0.05,-0.545L0.05,-0.197C0.05,-0.078 0.125,0.007 0.24,0.007C0.321,0.007 0.384,-0.034 0.408,-0.104L0.413,-0.104L0.413,-0L0.599,-0L0.599,-0.545L0.403,-0.545L0.403,-0.239Z" style="fill:rgb(255,78,80);fill-rule:nonzero;"/>
        </g>
        <g transform="matrix(12,0,0,12,133.784,65.0641)">
            <path d="M0.548,-0.368C0.543,-0.483 0.447,-0.553 0.29,-0.553C0.134,-0.553 0.038,-0.489 0.038,-0.375C0.038,-0.289 0.093,-0.234 0.205,-0.214L0.301,-0.197C0.344,-0.19 0.363,-0.178 0.364,-0.158C0.363,-0.135 0.337,-0.122 0.301,-0.122C0.257,-0.122 0.225,-0.141 0.22,-0.176L0.026,-0.176C0.036,-0.064 0.133,0.01 0.3,0.01C0.451,0.01 0.562,-0.064 0.562,-0.18C0.562,-0.261 0.508,-0.308 0.396,-0.328L0.286,-0.348C0.244,-0.355 0.232,-0.37 0.233,-0.386C0.232,-0.409 0.26,-0.422 0.294,-0.422C0.333,-0.422 0.365,-0.401 0.368,-0.368L0.548,-0.368Z" style="fill:rgb(255,78,80);fill-rule:nonzero;"/>
        </g>
        <g transform="matrix(12,0,0,12,140.841,65.0641)">
            <path d="M0.05,-0L0.246,-0L0.246,-0.545L0.05,-0.545L0.05,-0ZM0.148,-0.602C0.201,-0.602 0.244,-0.642 0.244,-0.692C0.244,-0.741 0.201,-0.781 0.148,-0.781C0.094,-0.781 0.051,-0.741 0.051,-0.692C0.051,-0.642 0.094,-0.602 0.148,-0.602Z" style="fill:rgb(255,78,80);fill-rule:nonzero;"/>
        </g>
        <g transform="matrix(12,0,0,12,144.386,65.0641)">
            <path d="M0.246,-0.307C0.246,-0.361 0.277,-0.393 0.325,-0.393C0.375,-0.393 0.404,-0.361 0.403,-0.307L0.403,-0L0.599,-0L0.599,-0.348C0.6,-0.467 0.525,-0.553 0.409,-0.553C0.329,-0.553 0.265,-0.511 0.241,-0.442L0.236,-0.442L0.236,-0.545L0.05,-0.545L0.05,-0L0.246,-0L0.246,-0.307Z" style="fill:rgb(255,78,80);fill-rule:nonzero;"/>
        </g>
        <g transform="matrix(12,0,0,12,152.142,65.0641)">
            <path d="M0.312,0.216C0.485,0.216 0.599,0.137 0.599,-0.001L0.599,-0.545L0.403,-0.545L0.403,-0.45L0.399,-0.45C0.378,-0.506 0.327,-0.553 0.246,-0.553C0.138,-0.553 0.033,-0.47 0.033,-0.273C0.033,-0.084 0.131,-0.007 0.247,-0.007C0.321,-0.007 0.379,-0.038 0.401,-0.094L0.406,-0.094L0.406,-0.001C0.406,0.063 0.369,0.084 0.318,0.084C0.273,0.084 0.24,0.07 0.234,0.036L0.045,0.036C0.053,0.141 0.148,0.216 0.312,0.216ZM0.32,-0.146C0.266,-0.146 0.234,-0.192 0.234,-0.273C0.234,-0.354 0.266,-0.402 0.32,-0.402C0.374,-0.402 0.406,-0.354 0.406,-0.273C0.406,-0.193 0.374,-0.146 0.32,-0.146Z" style="fill:rgb(255,78,80);fill-rule:nonzero;"/>
        </g>
    </g>
    <g transform="matrix(0.292429,0,0,0.48634,261.266,244.747)">
        <path d="M386.68,43.311C386.68,31.963 371.357,22.75 352.483,22.75L59.725,22.75C40.851,22.75 25.529,31.963 25.529,43.311L25.529,76.598C25.529,87.947 40.851,97.16 59.725,97.16L352.483,97.16C371.357,97.16 386.68,87.947 386.68,76.598L386.68,43.311Z" style="fill:rgb(255,78,80);fill-opacity:0.18;"/>
        <clipPath id="_clip4">
            <path d="M386.68,43.311C386.68,31.963 371.357,22.75 352.483,22.75L59.725,22.75C40.851,22.75 25.529,31.963 25.529,43.311L25.529,76.598C25.529,87.947 40.851,97.16 59.725,97.16L352.483,97.16C371.357,97.16 386.68,87.947 386.68,76.598L386.68,43.311Z"/>
        </clipPath>
        <g clip-path="url(#_clip4)">
            <g transform="matrix(7.54307,0,0,4.53554,-799.63,-215.354)">
                <g transform="matrix(12,0,0,12,114.753,65.0641)">
                    <path d="M0.519,-0.487L0.719,-0.487C0.703,-0.633 0.571,-0.737 0.399,-0.737C0.203,-0.737 0.044,-0.602 0.044,-0.362C0.044,-0.132 0.188,0.01 0.401,0.01C0.591,0.01 0.727,-0.107 0.727,-0.305L0.727,-0.406L0.405,-0.406L0.405,-0.266L0.537,-0.266C0.535,-0.202 0.49,-0.162 0.402,-0.162C0.3,-0.162 0.247,-0.237 0.247,-0.365C0.247,-0.491 0.304,-0.565 0.403,-0.565C0.465,-0.565 0.507,-0.537 0.519,-0.487Z" style="fill:rgb(255,78,80);fill-rule:nonzero;"/>
                </g>
                <g transform="matrix(12,0,0,12,124.025,65.0641)">
                    <path d="M0.312,0.01C0.49,0.01 0.595,-0.104 0.595,-0.271C0.595,-0.439 0.49,-0.553 0.312,-0.553C0.135,-0.553 0.03,-0.439 0.03,-0.271C0.03,-0.104 0.135,0.01 0.312,0.01ZM0.314,-0.135C0.261,-0.135 0.23,-0.187 0.23,-0.273C0.23,-0.358 0.261,-0.411 0.314,-0.411C0.364,-0.411 0.395,-0.358 0.395,-0.273C0.395,-0.187 0.364,-0.135 0.314,-0.135Z" style="fill:rgb(255,78,80);fill-rule:nonzero;"/>
                </g>
                <g transform="matrix(12,0,0,12,131.525,65.0641)">
                    <path d="M0.247,0.007C0.324,0.007 0.376,-0.034 0.399,-0.089L0.403,-0.089L0.403,-0L0.598,-0L0.598,-0.727L0.402,-0.727L0.402,-0.45L0.399,-0.45C0.378,-0.506 0.327,-0.553 0.246,-0.553C0.138,-0.553 0.033,-0.47 0.033,-0.273C0.033,-0.084 0.131,0.007 0.247,0.007ZM0.32,-0.143C0.266,-0.143 0.234,-0.192 0.234,-0.273C0.234,-0.354 0.266,-0.402 0.32,-0.402C0.374,-0.402 0.406,-0.354 0.406,-0.273C0.406,-0.193 0.374,-0.143 0.32,-0.143Z" style="fill:rgb(255,78,80);fill-rule:nonzero;"/>
                </g>
                <g transform="matrix(12,0,0,12,139.264,65.0641)">
                    <path d="M0.312,0.01C0.49,0.01 0.595,-0.104 0.595,-0.271C0.595,-0.439 0.49,-0.553 0.312,-0.553C0.135,-0.553 0.03,-0.439 0.03,-0.271C0.03,-0.104 0.135,0.01 0.312,0.01ZM0.314,-0.135C0.261,-0.135 0.23,-0.187 0.23,-0.273C0.23,-0.358 0.261,-0.411 0.314,-0.411C0.364,-0.411 0.395,-0.358 0.395,-0.273C0.395,-0.187 0.364,-0.135 0.314,-0.135Z" style="fill:rgb(255,78,80);fill-rule:nonzero;"/>
                </g>
                <g transform="matrix(12,0,0,12,146.764,65.0641)">
                    <path d="M0.375,-0.545L0.281,-0.545L0.281,-0.676L0.085,-0.676L0.085,-0.545L0.016,-0.545L0.016,-0.403L0.085,-0.403L0.085,-0.157C0.084,-0.043 0.154,0.015 0.29,0.008C0.334,0.005 0.367,-0.004 0.385,-0.009L0.357,-0.147C0.349,-0.145 0.33,-0.141 0.318,-0.141C0.293,-0.141 0.281,-0.153 0.281,-0.175L0.281,-0.403L0.375,-0.403L0.375,-0.545Z" style="fill:rgb(255,78,80);fill-rule:nonzero;"/>
                </g>
            </g>
        </g>
        <path d="M399.844,43.311C399.844,27.594 378.622,14.834 352.483,14.834L59.725,14.834C33.586,14.834 12.365,27.594 12.365,43.311L12.365,76.598C12.365,92.315 33.586,105.075 59.725,105.075C59.725,105.075 352.483,105.075 352.483,105.075C378.622,105.075 399.844,92.315 399.844,76.598C399.844,76.598 399.844,43.311 399.844,43.311ZM386.68,43.311C386.68,31.963 371.357,22.75 352.483,22.75L59.725,22.75C40.851,22.75 25.529,31.963 25.529,43.311L25.529,76.598C25.529,87.947 40.851,97.16 59.725,97.16L352.483,97.16C371.357,97.16 386.68,87.947 386.68,76.598L386.68,43.311Z" style="fill:rgb(255,78,80);"/>
    </g>
    <g transform="matrix(2.20581,0,0,2.20581,-98.9075,140.691)">
        <g transform="matrix(12,0,0,12,71.9772,65.0641)">
            <path d="M0.047,-0L0.244,-0L0.244,-0.216L0.354,-0.216C0.52,-0.216 0.631,-0.314 0.631,-0.47C0.631,-0.625 0.522,-0.727 0.361,-0.727L0.047,-0.727L0.047,-0ZM0.244,-0.369L0.244,-0.57L0.314,-0.57C0.383,-0.57 0.425,-0.533 0.425,-0.47C0.425,-0.408 0.383,-0.369 0.314,-0.369L0.244,-0.369Z" style="fill:rgb(255,78,80);fill-rule:nonzero;"/>
        </g>
        <g transform="matrix(12,0,0,12,79.8522,65.0641)">
            <path d="M0.05,-0L0.246,-0L0.246,-0.284C0.246,-0.347 0.289,-0.388 0.347,-0.388C0.367,-0.388 0.399,-0.385 0.419,-0.378L0.419,-0.545C0.403,-0.55 0.386,-0.553 0.369,-0.553C0.311,-0.553 0.266,-0.518 0.246,-0.442L0.24,-0.442L0.24,-0.545L0.05,-0.545L0.05,-0Z" style="fill:rgb(255,78,80);fill-rule:nonzero;"/>
        </g>
        <g transform="matrix(12,0,0,12,84.676,65.0641)">
            <path d="M0.312,0.01C0.49,0.01 0.595,-0.104 0.595,-0.271C0.595,-0.439 0.49,-0.553 0.312,-0.553C0.135,-0.553 0.03,-0.439 0.03,-0.271C0.03,-0.104 0.135,0.01 0.312,0.01ZM0.314,-0.135C0.261,-0.135 0.23,-0.187 0.23,-0.273C0.23,-0.358 0.261,-0.411 0.314,-0.411C0.364,-0.411 0.395,-0.358 0.395,-0.273C0.395,-0.187 0.364,-0.135 0.314,-0.135Z" style="fill:rgb(255,78,80);fill-rule:nonzero;"/>
        </g>
        <g transform="matrix(12,0,0,12,92.176,65.0641)">
            <path d="M0.05,-0.545L0.05,0.014C0.05,0.046 0.036,0.06 -0.011,0.06C-0.018,0.06 -0.025,0.059 -0.034,0.058L-0.034,0.203C-0.02,0.204 -0.009,0.205 0.006,0.205C0.15,0.205 0.246,0.162 0.246,0.018L0.246,-0.545L0.05,-0.545ZM0.148,-0.602C0.201,-0.602 0.244,-0.642 0.244,-0.692C0.244,-0.741 0.201,-0.781 0.148,-0.781C0.094,-0.781 0.051,-0.741 0.051,-0.692C0.051,-0.642 0.094,-0.602 0.148,-0.602Z" style="fill:rgb(255,78,80);fill-rule:nonzero;"/>
        </g>
        <g transform="matrix(12,0,0,12,95.7215,65.0641)">
            <path d="M0.311,0.01C0.462,0.01 0.56,-0.062 0.578,-0.176L0.399,-0.176C0.388,-0.145 0.355,-0.128 0.315,-0.128C0.257,-0.128 0.223,-0.166 0.223,-0.219L0.223,-0.227L0.578,-0.227L0.578,-0.273C0.578,-0.446 0.472,-0.553 0.307,-0.553C0.138,-0.553 0.03,-0.44 0.03,-0.271C0.03,-0.095 0.136,0.01 0.311,0.01ZM0.223,-0.335C0.224,-0.382 0.263,-0.415 0.311,-0.415C0.36,-0.415 0.397,-0.382 0.398,-0.335L0.223,-0.335Z" style="fill:rgb(255,78,80);fill-rule:nonzero;"/>
        </g>
        <g transform="matrix(12,0,0,12,103.017,65.0641)">
            <path d="M0.312,0.01C0.474,0.01 0.573,-0.083 0.575,-0.227L0.393,-0.227C0.389,-0.17 0.358,-0.139 0.315,-0.139C0.264,-0.139 0.23,-0.183 0.23,-0.273C0.23,-0.362 0.264,-0.406 0.315,-0.406C0.359,-0.406 0.388,-0.375 0.393,-0.318L0.575,-0.318C0.574,-0.46 0.473,-0.553 0.312,-0.553C0.135,-0.553 0.03,-0.439 0.03,-0.271C0.03,-0.104 0.135,0.01 0.312,0.01Z" style="fill:rgb(255,78,80);fill-rule:nonzero;"/>
        </g>
        <g transform="matrix(12,0,0,12,110.295,65.0641)">
            <path d="M0.375,-0.545L0.281,-0.545L0.281,-0.676L0.085,-0.676L0.085,-0.545L0.016,-0.545L0.016,-0.403L0.085,-0.403L0.085,-0.157C0.084,-0.043 0.154,0.015 0.29,0.008C0.334,0.005 0.367,-0.004 0.385,-0.009L0.357,-0.147C0.349,-0.145 0.33,-0.141 0.318,-0.141C0.293,-0.141 0.281,-0.153 0.281,-0.175L0.281,-0.403L0.375,-0.403L0.375,-0.545Z" style="fill:rgb(255,78,80);fill-rule:nonzero;"/>
        </g>
        <g transform="matrix(12,0,0,12,117.54,65.0641)">
            <path d="M0.048,-0L0.607,-0L0.607,-0.158L0.322,-0.158L0.322,-0.162L0.391,-0.219C0.556,-0.357 0.599,-0.429 0.599,-0.513C0.599,-0.648 0.488,-0.737 0.313,-0.737C0.144,-0.737 0.034,-0.643 0.034,-0.49L0.222,-0.49C0.221,-0.551 0.259,-0.585 0.313,-0.585C0.368,-0.585 0.406,-0.551 0.406,-0.496C0.406,-0.444 0.373,-0.411 0.32,-0.366L0.048,-0.142L0.048,-0Z" style="fill:rgb(255,78,80);fill-rule:nonzero;"/>
        </g>
        <g transform="matrix(12,0,0,12,127.682,65.0641)">
            <path d="M0.403,-0.239C0.404,-0.185 0.373,-0.152 0.324,-0.152C0.274,-0.152 0.246,-0.185 0.246,-0.239L0.246,-0.545L0.05,-0.545L0.05,-0.197C0.05,-0.078 0.125,0.007 0.24,0.007C0.321,0.007 0.384,-0.034 0.408,-0.104L0.413,-0.104L0.413,-0L0.599,-0L0.599,-0.545L0.403,-0.545L0.403,-0.239Z" style="fill:rgb(255,78,80);fill-rule:nonzero;"/>
        </g>
        <g transform="matrix(12,0,0,12,135.471,65.0641)">
            <path d="M0.548,-0.368C0.543,-0.483 0.447,-0.553 0.29,-0.553C0.134,-0.553 0.038,-0.489 0.038,-0.375C0.038,-0.289 0.093,-0.234 0.205,-0.214L0.301,-0.197C0.344,-0.19 0.363,-0.178 0.364,-0.158C0.363,-0.135 0.337,-0.122 0.301,-0.122C0.257,-0.122 0.225,-0.141 0.22,-0.176L0.026,-0.176C0.036,-0.064 0.133,0.01 0.3,0.01C0.451,0.01 0.562,-0.064 0.562,-0.18C0.562,-0.261 0.508,-0.308 0.396,-0.328L0.286,-0.348C0.244,-0.355 0.232,-0.37 0.233,-0.386C0.232,-0.409 0.26,-0.422 0.294,-0.422C0.333,-0.422 0.365,-0.401 0.368,-0.368L0.548,-0.368Z" style="fill:rgb(255,78,80);fill-rule:nonzero;"/>
        </g>
        <g transform="matrix(12,0,0,12,142.528,65.0641)">
            <path d="M0.05,-0L0.246,-0L0.246,-0.545L0.05,-0.545L0.05,-0ZM0.148,-0.602C0.201,-0.602 0.244,-0.642 0.244,-0.692C0.244,-0.741 0.201,-0.781 0.148,-0.781C0.094,-0.781 0.051,-0.741 0.051,-0.692C0.051,-0.642 0.094,-0.602 0.148,-0.602Z" style="fill:rgb(255,78,80);fill-rule:nonzero;"/>
        </g>
        <g transform="matrix(12,0,0,12,146.074,65.0641)">
            <path d="M0.246,-0.307C0.246,-0.361 0.277,-0.393 0.325,-0.393C0.375,-0.393 0.404,-0.361 0.403,-0.307L0.403,-0L0.599,-0L0.599,-0.348C0.6,-0.467 0.525,-0.553 0.409,-0.553C0.329,-0.553 0.265,-0.511 0.241,-0.442L0.236,-0.442L0.236,-0.545L0.05,-0.545L0.05,-0L0.246,-0L0.246,-0.307Z" style="fill:rgb(255,78,80);fill-rule:nonzero;"/>
        </g>
        <g transform="matrix(12,0,0,12,153.829,65.0641)">
            <path d="M0.312,0.216C0.485,0.216 0.599,0.137 0.599,-0.001L0.599,-0.545L0.403,-0.545L0.403,-0.45L0.399,-0.45C0.378,-0.506 0.327,-0.553 0.246,-0.553C0.138,-0.553 0.033,-0.47 0.033,-0.273C0.033,-0.084 0.131,-0.007 0.247,-0.007C0.321,-0.007 0.379,-0.038 0.401,-0.094L0.406,-0.094L0.406,-0.001C0.406,0.063 0.369,0.084 0.318,0.084C0.273,0.084 0.24,0.07 0.234,0.036L0.045,0.036C0.053,0.141 0.148,0.216 0.312,0.216ZM0.32,-0.146C0.266,-0.146 0.234,-0.192 0.234,-0.273C0.234,-0.354 0.266,-0.402 0.32,-0.402C0.374,-0.402 0.406,-0.354 0.406,-0.273C0.406,-0.193 0.374,-0.146 0.32,-0.146Z" style="fill:rgb(255,78,80);fill-rule:nonzero;"/>
        </g>
    </g>
    <defs>
        <linearGradient id="_Linear1" x1="0" y1="0" x2="1" y2="0" gradientUnits="userSpaceOnUse" gradientTransform="matrix(6.85802e-15,112,-112,6.85802e-15,190,47)"><stop offset="0" style="stop-color:rgb(255,222,223);stop-opacity:1"/><stop offset="1" style="stop-color:white;stop-opacity:1"/></linearGradient>
        <linearGradient id="_Linear2" x1="0" y1="0" x2="1" y2="0" gradientUnits="userSpaceOnUse" gradientTransform="matrix(6.85802e-15,112,-112,6.85802e-15,190,47)"><stop offset="0" style="stop-color:white;stop-opacity:1"/><stop offset="1" style="stop-color:rgb(255,222,223);stop-opacity:1"/></linearGradient>
    </defs>
</svg>
