<?xml version="1.0" encoding="UTF-8" standalone="no"?>
<!DOCTYPE svg PUBLIC "-//W3C//DTD SVG 1.1//EN" "http://www.w3.org/Graphics/SVG/1.1/DTD/svg11.dtd">
<svg width="100%" height="100%" viewBox="0 0 416 373" version="1.1" xmlns="http://www.w3.org/2000/svg" xmlns:xlink="http://www.w3.org/1999/xlink" xml:space="preserve" xmlns:serif="http://www.serif.com/" style="fill-rule:evenodd;clip-rule:evenodd;stroke-linecap:round;stroke-linejoin:round;stroke-miterlimit:1.5;">
    <g id="icon.svg" transform="matrix(2.42153,0,0,2.42153,87.2412,117.773)">
        <g transform="matrix(1,0,0,1,-25.5,-25.5)">
            <g transform="matrix(1.19563,0,0,1.19563,-5.76736,-18.9428)">
                <g>
                    <g>
                        <circle cx="26.044" cy="37.064" r="21.22" style="fill:rgb(255,78,80);"/>
                        <g transform="matrix(0.897144,0,0,0.897144,4.58919,17.2899)">
                            <g>
                                <path d="M15.184,23.75C16.848,24.767 18.227,26.206 19.171,27.917L14.344,30.574C14.794,31.389 15.05,32.326 15.05,33.323L9.348,33.323L14.344,30.574C13.864,29.703 13.162,28.972 12.316,28.454L15.184,23.75ZM20.915,14.349C24.213,16.365 26.946,19.217 28.818,22.609L24.001,25.259C25.322,27.652 26.073,30.4 26.073,33.323L20.56,33.323C20.56,31.364 20.056,29.521 19.171,27.917L24.001,25.259C22.593,22.707 20.536,20.56 18.054,19.043L20.915,14.349ZM38.481,17.292L33.653,19.948C35.843,23.917 37.089,28.475 37.089,33.323L31.57,33.323C31.57,29.44 30.572,25.788 28.818,22.609L33.653,19.948C31.317,15.714 27.906,12.154 23.788,9.637L26.656,4.932C31.591,7.949 35.68,12.217 38.481,17.292Z" style="fill:white;"/>
                            </g>
                        </g>
                    </g>
                </g>
            </g>
        </g>
    </g>
    <g transform="matrix(2.63808,0,0,2.63808,250.178,162.677)">
        <circle cx="26.044" cy="37.064" r="21.22" style="fill:rgb(0,175,229);"/>
        <g transform="matrix(0.897144,0,0,0.897144,4.58919,17.2899)">
            <g>
                <path d="M15.184,23.75C16.848,24.767 18.227,26.206 19.171,27.917L14.344,30.574C14.794,31.389 15.05,32.326 15.05,33.323L9.348,33.323L14.344,30.574C13.864,29.703 13.162,28.972 12.316,28.454L15.184,23.75ZM20.915,14.349C24.213,16.365 26.946,19.217 28.818,22.609L24.001,25.259C25.322,27.652 26.073,30.4 26.073,33.323L20.56,33.323C20.56,31.364 20.056,29.521 19.171,27.917L24.001,25.259C22.593,22.707 20.536,20.56 18.054,19.043L20.915,14.349ZM38.481,17.292L33.653,19.948C35.843,23.917 37.089,28.475 37.089,33.323L31.57,33.323C31.57,29.44 30.572,25.788 28.818,22.609L33.653,19.948C31.317,15.714 27.906,12.154 23.788,9.637L26.656,4.932C31.591,7.949 35.68,12.217 38.481,17.292Z" style="fill:white;"/>
            </g>
        </g>
    </g>
    <g transform="matrix(1.57584,0,0,1.57584,109.002,237.351)">
        <g transform="matrix(12,0,0,12,95.1846,65.0641)">
            <path d="M0.047,-0L0.244,-0L0.244,-0.187L0.31,-0.273L0.473,-0L0.709,-0L0.457,-0.403L0.703,-0.727L0.473,-0.727L0.254,-0.433L0.244,-0.433L0.244,-0.727L0.047,-0.727L0.047,-0Z" style="fill:rgb(0,175,229);fill-rule:nonzero;"/>
        </g>
        <g transform="matrix(12,0,0,12,103.281,65.0641)">
            <path d="M0.312,0.01C0.49,0.01 0.595,-0.104 0.595,-0.271C0.595,-0.439 0.49,-0.553 0.312,-0.553C0.135,-0.553 0.03,-0.439 0.03,-0.271C0.03,-0.104 0.135,0.01 0.312,0.01ZM0.314,-0.135C0.261,-0.135 0.23,-0.187 0.23,-0.273C0.23,-0.358 0.261,-0.411 0.314,-0.411C0.364,-0.411 0.395,-0.358 0.395,-0.273C0.395,-0.187 0.364,-0.135 0.314,-0.135Z" style="fill:rgb(0,175,229);fill-rule:nonzero;"/>
        </g>
        <g transform="matrix(12,0,0,12,110.781,65.0641)">
            <path d="M0.311,0.01C0.462,0.01 0.56,-0.062 0.578,-0.176L0.399,-0.176C0.388,-0.145 0.355,-0.128 0.315,-0.128C0.257,-0.128 0.223,-0.166 0.223,-0.219L0.223,-0.227L0.578,-0.227L0.578,-0.273C0.578,-0.446 0.472,-0.553 0.307,-0.553C0.138,-0.553 0.03,-0.44 0.03,-0.271C0.03,-0.095 0.136,0.01 0.311,0.01ZM0.223,-0.335C0.224,-0.382 0.263,-0.415 0.311,-0.415C0.36,-0.415 0.397,-0.382 0.398,-0.335L0.223,-0.335Z" style="fill:rgb(0,175,229);fill-rule:nonzero;"/>
        </g>
        <g transform="matrix(12,0,0,12,118.077,65.0641)">
            <path d="M0.439,-0.5L0.628,-0.5C0.627,-0.643 0.517,-0.737 0.341,-0.737C0.168,-0.737 0.046,-0.644 0.047,-0.506C0.047,-0.392 0.125,-0.329 0.254,-0.301L0.327,-0.286C0.408,-0.268 0.435,-0.248 0.436,-0.214C0.435,-0.179 0.403,-0.153 0.339,-0.153C0.264,-0.153 0.219,-0.189 0.216,-0.256L0.028,-0.256C0.029,-0.073 0.153,0.009 0.342,0.009C0.527,0.009 0.637,-0.071 0.638,-0.214C0.637,-0.325 0.571,-0.403 0.411,-0.437L0.351,-0.45C0.282,-0.465 0.251,-0.485 0.253,-0.52C0.253,-0.552 0.28,-0.575 0.341,-0.575C0.405,-0.575 0.435,-0.547 0.439,-0.5Z" style="fill:rgb(0,175,229);fill-rule:nonzero;"/>
        </g>
        <g transform="matrix(12,0,0,12,126.071,65.0641)">
            <path d="M0.312,0.01C0.474,0.01 0.573,-0.083 0.575,-0.227L0.393,-0.227C0.389,-0.17 0.358,-0.139 0.315,-0.139C0.264,-0.139 0.23,-0.183 0.23,-0.273C0.23,-0.362 0.264,-0.406 0.315,-0.406C0.359,-0.406 0.388,-0.375 0.393,-0.318L0.575,-0.318C0.574,-0.46 0.473,-0.553 0.312,-0.553C0.135,-0.553 0.03,-0.439 0.03,-0.271C0.03,-0.104 0.135,0.01 0.312,0.01Z" style="fill:rgb(0,175,229);fill-rule:nonzero;"/>
        </g>
        <g transform="matrix(12,0,0,12,133.349,65.0641)">
            <path d="M0.05,-0L0.246,-0L0.246,-0.284C0.246,-0.347 0.289,-0.388 0.347,-0.388C0.367,-0.388 0.399,-0.385 0.419,-0.378L0.419,-0.545C0.403,-0.55 0.386,-0.553 0.369,-0.553C0.311,-0.553 0.266,-0.518 0.246,-0.442L0.24,-0.442L0.24,-0.545L0.05,-0.545L0.05,-0Z" style="fill:rgb(0,175,229);fill-rule:nonzero;"/>
        </g>
        <g transform="matrix(12,0,0,12,138.548,65.0641)">
            <path d="M0.05,-0L0.246,-0L0.246,-0.545L0.05,-0.545L0.05,-0ZM0.148,-0.602C0.201,-0.602 0.244,-0.642 0.244,-0.692C0.244,-0.741 0.201,-0.781 0.148,-0.781C0.094,-0.781 0.051,-0.741 0.051,-0.692C0.051,-0.642 0.094,-0.602 0.148,-0.602Z" style="fill:rgb(0,175,229);fill-rule:nonzero;"/>
        </g>
        <g transform="matrix(12,0,0,12,142.094,65.0641)">
            <path d="M0.05,0.205L0.246,0.205L0.246,-0.089L0.249,-0.089C0.271,-0.034 0.324,0.007 0.401,0.007C0.517,0.007 0.615,-0.084 0.615,-0.273C0.615,-0.47 0.51,-0.553 0.402,-0.553C0.321,-0.553 0.27,-0.506 0.249,-0.45L0.244,-0.45L0.244,-0.545L0.05,-0.545L0.05,0.205ZM0.241,-0.273C0.241,-0.354 0.274,-0.402 0.328,-0.402C0.382,-0.402 0.413,-0.354 0.413,-0.273C0.413,-0.192 0.382,-0.143 0.328,-0.143C0.274,-0.143 0.241,-0.193 0.241,-0.273Z" style="fill:rgb(0,175,229);fill-rule:nonzero;"/>
        </g>
        <g transform="matrix(12,0,0,12,149.866,65.0641)">
            <path d="M0.375,-0.545L0.281,-0.545L0.281,-0.676L0.085,-0.676L0.085,-0.545L0.016,-0.545L0.016,-0.403L0.085,-0.403L0.085,-0.157C0.084,-0.043 0.154,0.015 0.29,0.008C0.334,0.005 0.367,-0.004 0.385,-0.009L0.357,-0.147C0.349,-0.145 0.33,-0.141 0.318,-0.141C0.293,-0.141 0.281,-0.153 0.281,-0.175L0.281,-0.403L0.375,-0.403L0.375,-0.545Z" style="fill:rgb(0,175,229);fill-rule:nonzero;"/>
        </g>
        <g transform="matrix(12,0,0,12,154.554,65.0641)">
            <path d="M0.267,-0.033L0.426,-0.033L0.426,-0.216L0.609,-0.216L0.609,-0.375L0.426,-0.375L0.426,-0.558L0.267,-0.558L0.267,-0.375L0.084,-0.375L0.084,-0.216L0.267,-0.216L0.267,-0.033Z" style="fill:rgb(0,175,229);fill-rule:nonzero;"/>
        </g>
        <g transform="matrix(12,0,0,12,162.872,65.0641)">
            <path d="M0.267,-0.033L0.426,-0.033L0.426,-0.216L0.609,-0.216L0.609,-0.375L0.426,-0.375L0.426,-0.558L0.267,-0.558L0.267,-0.375L0.084,-0.375L0.084,-0.216L0.267,-0.216L0.267,-0.033Z" style="fill:rgb(0,175,229);fill-rule:nonzero;"/>
        </g>
    </g>
    <g transform="matrix(2.63808,0,0,2.63808,250.178,-17.5879)">
        <circle cx="26.044" cy="37.064" r="21.22" style="fill:rgb(255,78,80);"/>
        <g transform="matrix(0.897144,0,0,0.897144,4.58919,17.2899)">
            <g>
                <path d="M15.184,23.75C16.848,24.767 18.227,26.206 19.171,27.917L14.344,30.574C14.794,31.389 15.05,32.326 15.05,33.323L9.348,33.323L14.344,30.574C13.864,29.703 13.162,28.972 12.316,28.454L15.184,23.75ZM20.915,14.349C24.213,16.365 26.946,19.217 28.818,22.609L24.001,25.259C25.322,27.652 26.073,30.4 26.073,33.323L20.56,33.323C20.56,31.364 20.056,29.521 19.171,27.917L24.001,25.259C22.593,22.707 20.536,20.56 18.054,19.043L20.915,14.349ZM38.481,17.292L33.653,19.948C35.843,23.917 37.089,28.475 37.089,33.323L31.57,33.323C31.57,29.44 30.572,25.788 28.818,22.609L33.653,19.948C31.317,15.714 27.906,12.154 23.788,9.637L26.656,4.932C31.591,7.949 35.68,12.217 38.481,17.292Z" style="fill:white;"/>
            </g>
        </g>
    </g>
    <g transform="matrix(1.57584,0,0,1.57584,109.176,53.6792)">
        <g transform="matrix(12,0,0,12,103.418,65.0641)">
            <path d="M0.047,-0L0.244,-0L0.244,-0.187L0.31,-0.273L0.473,-0L0.709,-0L0.457,-0.403L0.703,-0.727L0.473,-0.727L0.254,-0.433L0.244,-0.433L0.244,-0.727L0.047,-0.727L0.047,-0Z" style="fill:rgb(255,78,80);fill-rule:nonzero;"/>
        </g>
        <g transform="matrix(12,0,0,12,111.514,65.0641)">
            <path d="M0.312,0.01C0.49,0.01 0.595,-0.104 0.595,-0.271C0.595,-0.439 0.49,-0.553 0.312,-0.553C0.135,-0.553 0.03,-0.439 0.03,-0.271C0.03,-0.104 0.135,0.01 0.312,0.01ZM0.314,-0.135C0.261,-0.135 0.23,-0.187 0.23,-0.273C0.23,-0.358 0.261,-0.411 0.314,-0.411C0.364,-0.411 0.395,-0.358 0.395,-0.273C0.395,-0.187 0.364,-0.135 0.314,-0.135Z" style="fill:rgb(255,78,80);fill-rule:nonzero;"/>
        </g>
        <g transform="matrix(12,0,0,12,119.014,65.0641)">
            <path d="M0.311,0.01C0.462,0.01 0.56,-0.062 0.578,-0.176L0.399,-0.176C0.388,-0.145 0.355,-0.128 0.315,-0.128C0.257,-0.128 0.223,-0.166 0.223,-0.219L0.223,-0.227L0.578,-0.227L0.578,-0.273C0.578,-0.446 0.472,-0.553 0.307,-0.553C0.138,-0.553 0.03,-0.44 0.03,-0.271C0.03,-0.095 0.136,0.01 0.311,0.01ZM0.223,-0.335C0.224,-0.382 0.263,-0.415 0.311,-0.415C0.36,-0.415 0.397,-0.382 0.398,-0.335L0.223,-0.335Z" style="fill:rgb(255,78,80);fill-rule:nonzero;"/>
        </g>
        <g transform="matrix(12,0,0,12,126.31,65.0641)">
            <path d="M0.439,-0.5L0.628,-0.5C0.627,-0.643 0.517,-0.737 0.341,-0.737C0.168,-0.737 0.046,-0.644 0.047,-0.506C0.047,-0.392 0.125,-0.329 0.254,-0.301L0.327,-0.286C0.408,-0.268 0.435,-0.248 0.436,-0.214C0.435,-0.179 0.403,-0.153 0.339,-0.153C0.264,-0.153 0.219,-0.189 0.216,-0.256L0.028,-0.256C0.029,-0.073 0.153,0.009 0.342,0.009C0.527,0.009 0.637,-0.071 0.638,-0.214C0.637,-0.325 0.571,-0.403 0.411,-0.437L0.351,-0.45C0.282,-0.465 0.251,-0.485 0.253,-0.52C0.253,-0.552 0.28,-0.575 0.341,-0.575C0.405,-0.575 0.435,-0.547 0.439,-0.5Z" style="fill:rgb(255,78,80);fill-rule:nonzero;"/>
        </g>
        <g transform="matrix(12,0,0,12,134.304,65.0641)">
            <path d="M0.312,0.01C0.474,0.01 0.573,-0.083 0.575,-0.227L0.393,-0.227C0.389,-0.17 0.358,-0.139 0.315,-0.139C0.264,-0.139 0.23,-0.183 0.23,-0.273C0.23,-0.362 0.264,-0.406 0.315,-0.406C0.359,-0.406 0.388,-0.375 0.393,-0.318L0.575,-0.318C0.574,-0.46 0.473,-0.553 0.312,-0.553C0.135,-0.553 0.03,-0.439 0.03,-0.271C0.03,-0.104 0.135,0.01 0.312,0.01Z" style="fill:rgb(255,78,80);fill-rule:nonzero;"/>
        </g>
        <g transform="matrix(12,0,0,12,141.582,65.0641)">
            <path d="M0.05,-0L0.246,-0L0.246,-0.284C0.246,-0.347 0.289,-0.388 0.347,-0.388C0.367,-0.388 0.399,-0.385 0.419,-0.378L0.419,-0.545C0.403,-0.55 0.386,-0.553 0.369,-0.553C0.311,-0.553 0.266,-0.518 0.246,-0.442L0.24,-0.442L0.24,-0.545L0.05,-0.545L0.05,-0Z" style="fill:rgb(255,78,80);fill-rule:nonzero;"/>
        </g>
        <g transform="matrix(12,0,0,12,146.781,65.0641)">
            <path d="M0.05,-0L0.246,-0L0.246,-0.545L0.05,-0.545L0.05,-0ZM0.148,-0.602C0.201,-0.602 0.244,-0.642 0.244,-0.692C0.244,-0.741 0.201,-0.781 0.148,-0.781C0.094,-0.781 0.051,-0.741 0.051,-0.692C0.051,-0.642 0.094,-0.602 0.148,-0.602Z" style="fill:rgb(255,78,80);fill-rule:nonzero;"/>
        </g>
        <g transform="matrix(12,0,0,12,150.327,65.0641)">
            <path d="M0.05,0.205L0.246,0.205L0.246,-0.089L0.249,-0.089C0.271,-0.034 0.324,0.007 0.401,0.007C0.517,0.007 0.615,-0.084 0.615,-0.273C0.615,-0.47 0.51,-0.553 0.402,-0.553C0.321,-0.553 0.27,-0.506 0.249,-0.45L0.244,-0.45L0.244,-0.545L0.05,-0.545L0.05,0.205ZM0.241,-0.273C0.241,-0.354 0.274,-0.402 0.328,-0.402C0.382,-0.402 0.413,-0.354 0.413,-0.273C0.413,-0.192 0.382,-0.143 0.328,-0.143C0.274,-0.143 0.241,-0.193 0.241,-0.273Z" style="fill:rgb(255,78,80);fill-rule:nonzero;"/>
        </g>
        <g transform="matrix(12,0,0,12,158.099,65.0641)">
            <path d="M0.375,-0.545L0.281,-0.545L0.281,-0.676L0.085,-0.676L0.085,-0.545L0.016,-0.545L0.016,-0.403L0.085,-0.403L0.085,-0.157C0.084,-0.043 0.154,0.015 0.29,0.008C0.334,0.005 0.367,-0.004 0.385,-0.009L0.357,-0.147C0.349,-0.145 0.33,-0.141 0.318,-0.141C0.293,-0.141 0.281,-0.153 0.281,-0.175L0.281,-0.403L0.375,-0.403L0.375,-0.545Z" style="fill:rgb(255,78,80);fill-rule:nonzero;"/>
        </g>
        <g transform="matrix(12,0,0,12,96.7613,77.0641)">
            <path d="M0.376,-0.545L0.277,-0.545L0.277,-0.57C0.277,-0.595 0.287,-0.612 0.324,-0.612C0.338,-0.612 0.359,-0.609 0.374,-0.605L0.402,-0.746C0.379,-0.751 0.327,-0.761 0.277,-0.761C0.158,-0.761 0.081,-0.696 0.081,-0.561L0.081,-0.545L0.011,-0.545L0.011,-0.403L0.081,-0.403L0.081,-0L0.277,-0L0.277,-0.403L0.376,-0.403L0.376,-0.545Z" style="fill:rgb(255,78,80);fill-rule:nonzero;"/>
        </g>
        <g transform="matrix(12,0,0,12,101.381,77.0641)">
            <path d="M0.312,0.01C0.49,0.01 0.595,-0.104 0.595,-0.271C0.595,-0.439 0.49,-0.553 0.312,-0.553C0.135,-0.553 0.03,-0.439 0.03,-0.271C0.03,-0.104 0.135,0.01 0.312,0.01ZM0.314,-0.135C0.261,-0.135 0.23,-0.187 0.23,-0.273C0.23,-0.358 0.261,-0.411 0.314,-0.411C0.364,-0.411 0.395,-0.358 0.395,-0.273C0.395,-0.187 0.364,-0.135 0.314,-0.135Z" style="fill:rgb(255,78,80);fill-rule:nonzero;"/>
        </g>
        <g transform="matrix(12,0,0,12,108.881,77.0641)">
            <path d="M0.05,-0L0.246,-0L0.246,-0.284C0.246,-0.347 0.289,-0.388 0.347,-0.388C0.367,-0.388 0.399,-0.385 0.419,-0.378L0.419,-0.545C0.403,-0.55 0.386,-0.553 0.369,-0.553C0.311,-0.553 0.266,-0.518 0.246,-0.442L0.24,-0.442L0.24,-0.545L0.05,-0.545L0.05,-0Z" style="fill:rgb(255,78,80);fill-rule:nonzero;"/>
        </g>
        <g transform="matrix(12,0,0,12,116.466,77.0641)">
            <path d="M0.047,-0L0.57,-0L0.57,-0.159L0.244,-0.159L0.244,-0.284L0.544,-0.284L0.544,-0.443L0.244,-0.443L0.244,-0.568L0.571,-0.568L0.571,-0.727L0.047,-0.727L0.047,-0Z" style="fill:rgb(255,78,80);fill-rule:nonzero;"/>
        </g>
        <g transform="matrix(12,0,0,12,123.932,77.0641)">
            <path d="M0.246,-0.307C0.246,-0.361 0.277,-0.393 0.325,-0.393C0.375,-0.393 0.404,-0.361 0.403,-0.307L0.403,-0L0.599,-0L0.599,-0.348C0.6,-0.467 0.525,-0.553 0.409,-0.553C0.329,-0.553 0.265,-0.511 0.241,-0.442L0.236,-0.442L0.236,-0.545L0.05,-0.545L0.05,-0L0.246,-0L0.246,-0.307Z" style="fill:rgb(255,78,80);fill-rule:nonzero;"/>
        </g>
        <g transform="matrix(12,0,0,12,131.687,77.0641)">
            <path d="M0.312,0.216C0.485,0.216 0.599,0.137 0.599,-0.001L0.599,-0.545L0.403,-0.545L0.403,-0.45L0.399,-0.45C0.378,-0.506 0.327,-0.553 0.246,-0.553C0.138,-0.553 0.033,-0.47 0.033,-0.273C0.033,-0.084 0.131,-0.007 0.247,-0.007C0.321,-0.007 0.379,-0.038 0.401,-0.094L0.406,-0.094L0.406,-0.001C0.406,0.063 0.369,0.084 0.318,0.084C0.273,0.084 0.24,0.07 0.234,0.036L0.045,0.036C0.053,0.141 0.148,0.216 0.312,0.216ZM0.32,-0.146C0.266,-0.146 0.234,-0.192 0.234,-0.273C0.234,-0.354 0.266,-0.402 0.32,-0.402C0.374,-0.402 0.406,-0.354 0.406,-0.273C0.406,-0.193 0.374,-0.146 0.32,-0.146Z" style="fill:rgb(255,78,80);fill-rule:nonzero;"/>
        </g>
        <g transform="matrix(12,0,0,12,139.477,77.0641)">
            <path d="M0.05,-0L0.246,-0L0.246,-0.545L0.05,-0.545L0.05,-0ZM0.148,-0.602C0.201,-0.602 0.244,-0.642 0.244,-0.692C0.244,-0.741 0.201,-0.781 0.148,-0.781C0.094,-0.781 0.051,-0.741 0.051,-0.692C0.051,-0.642 0.094,-0.602 0.148,-0.602Z" style="fill:rgb(255,78,80);fill-rule:nonzero;"/>
        </g>
        <g transform="matrix(12,0,0,12,143.023,77.0641)">
            <path d="M0.246,-0.307C0.246,-0.361 0.277,-0.393 0.325,-0.393C0.375,-0.393 0.404,-0.361 0.403,-0.307L0.403,-0L0.599,-0L0.599,-0.348C0.6,-0.467 0.525,-0.553 0.409,-0.553C0.329,-0.553 0.265,-0.511 0.241,-0.442L0.236,-0.442L0.236,-0.545L0.05,-0.545L0.05,-0L0.246,-0L0.246,-0.307Z" style="fill:rgb(255,78,80);fill-rule:nonzero;"/>
        </g>
        <g transform="matrix(12,0,0,12,150.778,77.0641)">
            <path d="M0.311,0.01C0.462,0.01 0.56,-0.062 0.578,-0.176L0.399,-0.176C0.388,-0.145 0.355,-0.128 0.315,-0.128C0.257,-0.128 0.223,-0.166 0.223,-0.219L0.223,-0.227L0.578,-0.227L0.578,-0.273C0.578,-0.446 0.472,-0.553 0.307,-0.553C0.138,-0.553 0.03,-0.44 0.03,-0.271C0.03,-0.095 0.136,0.01 0.311,0.01ZM0.223,-0.335C0.224,-0.382 0.263,-0.415 0.311,-0.415C0.36,-0.415 0.397,-0.382 0.398,-0.335L0.223,-0.335Z" style="fill:rgb(255,78,80);fill-rule:nonzero;"/>
        </g>
        <g transform="matrix(12,0,0,12,160.46,77.0641)">
            <path d="M0.259,-0.727L0.037,-0.727L0.253,-0.364L0.03,-0L0.254,-0L0.378,-0.216L0.384,-0.216L0.507,-0L0.733,-0L0.507,-0.364L0.724,-0.727L0.504,-0.727L0.384,-0.516L0.378,-0.516L0.259,-0.727Z" style="fill:rgb(255,78,80);fill-rule:nonzero;"/>
        </g>
    </g>
    <g transform="matrix(-0.74196,0,0,0.74196,251.877,-6.52734)">
        <path d="M181.748,204.855L260.794,283.902" style="fill:none;stroke:rgb(128,128,128);stroke-width:23.14px;"/>
    </g>
    <g transform="matrix(0.9683,0,0,0.9683,-82.7478,-56.7852)">
        <circle cx="206.316" cy="208.874" r="38.89" style="fill:white;"/>
        <clipPath id="_clip1">
            <circle cx="206.316" cy="208.874" r="38.89"/>
        </clipPath>
        <g clip-path="url(#_clip1)">
            <g transform="matrix(0.891581,0,0,0.891581,44.2732,26.2287)">
                <rect x="57.709" y="141.133" width="225.888" height="123.384" style="fill:rgb(20,22,26);"/>
            </g>
            <g transform="matrix(1.98799,0,0,1.98799,-112.396,-165.631)">
                <g transform="matrix(20,0,0,20,148.288,195.573)">
                    <path d="M0.198,-0.417C0.257,-0.417 0.284,-0.444 0.28,-0.499L0.27,-0.656C0.269,-0.683 0.272,-0.708 0.28,-0.729C0.288,-0.75 0.3,-0.769 0.317,-0.784C0.333,-0.799 0.353,-0.81 0.376,-0.818C0.399,-0.826 0.424,-0.83 0.453,-0.83L0.521,-0.83L0.521,-0.715L0.47,-0.715C0.446,-0.715 0.427,-0.709 0.414,-0.698C0.401,-0.687 0.395,-0.669 0.396,-0.644L0.406,-0.487C0.408,-0.45 0.397,-0.42 0.374,-0.398C0.35,-0.376 0.318,-0.364 0.279,-0.363L0.279,-0.358C0.319,-0.357 0.351,-0.344 0.374,-0.322C0.397,-0.299 0.408,-0.268 0.406,-0.231L0.396,-0.075C0.395,-0.053 0.401,-0.036 0.414,-0.024C0.428,-0.011 0.447,-0.005 0.47,-0.005L0.521,-0.005L0.521,0.111L0.453,0.111C0.425,0.111 0.399,0.107 0.376,0.098C0.353,0.09 0.333,0.078 0.317,0.063C0.3,0.048 0.288,0.029 0.28,0.007C0.271,-0.015 0.268,-0.04 0.27,-0.067L0.28,-0.219C0.282,-0.246 0.277,-0.267 0.264,-0.281C0.251,-0.295 0.229,-0.302 0.198,-0.302L0.079,-0.302L0.079,-0.417L0.198,-0.417Z" style="fill:rgb(226,226,226);fill-rule:nonzero;"/>
                </g>
                <g transform="matrix(20,0,0,20,160.288,195.573)">
                    <path d="M0.082,0.111L0.082,-0.005L0.133,-0.005C0.157,-0.005 0.176,-0.011 0.19,-0.022C0.203,-0.033 0.209,-0.051 0.208,-0.075L0.198,-0.232C0.195,-0.269 0.206,-0.299 0.23,-0.321C0.253,-0.343 0.285,-0.355 0.324,-0.356L0.324,-0.361C0.284,-0.362 0.252,-0.375 0.229,-0.398C0.206,-0.421 0.195,-0.451 0.198,-0.488L0.208,-0.644C0.209,-0.667 0.203,-0.684 0.189,-0.697C0.175,-0.709 0.156,-0.715 0.133,-0.715L0.082,-0.715L0.082,-0.83L0.151,-0.83C0.179,-0.83 0.204,-0.826 0.228,-0.818C0.251,-0.809 0.27,-0.797 0.286,-0.782C0.303,-0.767 0.315,-0.748 0.324,-0.727C0.332,-0.705 0.335,-0.68 0.333,-0.653L0.323,-0.5C0.321,-0.473 0.327,-0.452 0.34,-0.439C0.353,-0.425 0.374,-0.418 0.405,-0.418L0.524,-0.418L0.524,-0.303L0.405,-0.303C0.346,-0.303 0.319,-0.275 0.323,-0.22L0.333,-0.064C0.334,-0.037 0.331,-0.013 0.323,0.008C0.315,0.03 0.303,0.049 0.287,0.064C0.271,0.079 0.251,0.091 0.228,0.099C0.205,0.107 0.179,0.111 0.151,0.111L0.082,0.111Z" style="fill:rgb(226,226,226);fill-rule:nonzero;"/>
                </g>
            </g>
        </g>
        <path d="M206.316,163.998C181.548,163.998 161.439,184.106 161.439,208.874C161.439,233.642 181.548,253.75 206.316,253.75C231.084,253.75 251.192,233.642 251.192,208.874C251.192,184.106 231.084,163.998 206.316,163.998ZM206.316,169.984C227.78,169.984 245.206,187.41 245.206,208.874C245.206,230.338 227.78,247.764 206.316,247.764C184.852,247.764 167.426,230.338 167.426,208.874C167.426,187.41 184.852,169.984 206.316,169.984Z" style="fill:rgb(128,128,128);"/>
    </g>
    <g id="fork_git.svg" transform="matrix(5.10411,0,0,5.10411,202.583,199.061)">
        <g transform="matrix(1,0,0,1,-10.5,-10.5)">
            <g transform="matrix(1,0,0,1,2,3)">
                <path d="M12.5,0.5L15.5,3.5L12.5,6.5" style="fill:none;stroke:black;stroke-width:1px;stroke-miterlimit:4;"/>
                <path d="M15.5,3.5L10.5,3.5L6.5,8.586" style="fill:none;stroke:black;stroke-width:1px;stroke-miterlimit:4;"/>
                <path d="M12.5,9.5L15.5,12.5L12.5,15.5" style="fill:none;stroke:black;stroke-width:1px;stroke-miterlimit:4;"/>
                <path d="M15.5,12.5L10.5,12.5L6.5,8.5L0.5,8.5" style="fill:none;stroke:black;stroke-width:1px;stroke-miterlimit:4;"/>
            </g>
        </g>
    </g>
</svg>
