<?xml version="1.0" encoding="UTF-8" standalone="no"?>
<!DOCTYPE svg PUBLIC "-//W3C//DTD SVG 1.1//EN" "http://www.w3.org/Graphics/SVG/1.1/DTD/svg11.dtd">
<svg width="100%" height="100%" viewBox="0 0 416 373" version="1.1" xmlns="http://www.w3.org/2000/svg" xmlns:xlink="http://www.w3.org/1999/xlink" xml:space="preserve" xmlns:serif="http://www.serif.com/" style="fill-rule:evenodd;clip-rule:evenodd;stroke-linejoin:round;stroke-miterlimit:2;">
    <g transform="matrix(4.38588e-17,0.716268,-1.31448,8.0489e-17,390.408,-72.6269)">
        <path d="M160.454,162.57L160.454,114.71L296.441,114.71L296.441,90.78L384.274,138.64L296.441,186.5L296.441,162.57L160.454,162.57Z" style="fill:url(#_Linear1);"/>
    </g>
    <g transform="matrix(0.450776,0,0,0.528375,12.1179,3.62005)">
        <rect x="25.529" y="22.75" width="361.151" height="74.41" style="fill:rgb(235,235,235);"/>
        <path d="M395.22,104.446L395.22,15.464L16.989,15.464L16.989,104.446L395.22,104.446ZM386.68,22.75L25.529,22.75L25.529,97.16L386.68,97.16L386.68,22.75Z"/>
    </g>
    <g transform="matrix(1.94709,0,0,1.94709,-154.385,-84.6494)">
        <g transform="matrix(12,0,0,12,99.7868,65.0641)">
            <path d="M0.457,0.011C0.665,0.011 0.833,-0.157 0.832,-0.364C0.832,-0.571 0.665,-0.739 0.457,-0.739C0.251,-0.739 0.083,-0.571 0.082,-0.364C0.082,-0.157 0.251,0.011 0.457,0.011ZM0.457,-0.131C0.329,-0.131 0.224,-0.235 0.224,-0.363C0.225,-0.492 0.33,-0.597 0.457,-0.597C0.586,-0.597 0.69,-0.493 0.69,-0.363C0.691,-0.235 0.587,-0.131 0.457,-0.131Z" style="fill-rule:nonzero;"/>
        </g>
        <g transform="matrix(12,0,0,12,110.764,65.0641)">
            <path d="M0.457,0.011C0.665,0.011 0.833,-0.157 0.832,-0.364C0.832,-0.571 0.665,-0.739 0.457,-0.739C0.251,-0.739 0.083,-0.571 0.082,-0.364C0.082,-0.157 0.251,0.011 0.457,0.011ZM0.457,-0.131C0.329,-0.131 0.224,-0.235 0.224,-0.363C0.225,-0.492 0.33,-0.597 0.457,-0.597C0.586,-0.597 0.69,-0.493 0.69,-0.363C0.691,-0.235 0.587,-0.131 0.457,-0.131Z" style="fill-rule:nonzero;"/>
        </g>
        <g transform="matrix(12,0,0,12,121.741,65.0641)">
            <path d="M0.457,0.011C0.665,0.011 0.833,-0.157 0.832,-0.364C0.832,-0.571 0.665,-0.739 0.457,-0.739C0.251,-0.739 0.083,-0.571 0.082,-0.364C0.082,-0.157 0.251,0.011 0.457,0.011ZM0.457,-0.131C0.329,-0.131 0.224,-0.235 0.224,-0.363C0.225,-0.492 0.33,-0.597 0.457,-0.597C0.586,-0.597 0.69,-0.493 0.69,-0.363C0.691,-0.235 0.587,-0.131 0.457,-0.131Z" style="fill-rule:nonzero;"/>
        </g>
        <g transform="matrix(12,0,0,12,132.719,65.0641)">
            <path d="M0.676,-0.727L0.479,-0.727L0.479,-0.347L0.473,-0.347L0.214,-0.727L0.047,-0.727L0.047,-0L0.244,-0L0.244,-0.382L0.249,-0.382L0.511,-0L0.676,-0L0.676,-0.727Z" style="fill-rule:nonzero;"/>
        </g>
        <g transform="matrix(12,0,0,12,141.395,65.0641)">
            <path d="M0.312,0.01C0.49,0.01 0.595,-0.104 0.595,-0.271C0.595,-0.439 0.49,-0.553 0.312,-0.553C0.135,-0.553 0.03,-0.439 0.03,-0.271C0.03,-0.104 0.135,0.01 0.312,0.01ZM0.314,-0.135C0.261,-0.135 0.23,-0.187 0.23,-0.273C0.23,-0.358 0.261,-0.411 0.314,-0.411C0.364,-0.411 0.395,-0.358 0.395,-0.273C0.395,-0.187 0.364,-0.135 0.314,-0.135Z" style="fill-rule:nonzero;"/>
        </g>
        <g transform="matrix(12,0,0,12,148.69,65.0641)">
            <path d="M0.599,-0.545L0.393,-0.545L0.305,-0.185L0.3,-0.185L0.212,-0.545L0.006,-0.545L0.189,-0L0.416,-0L0.599,-0.545Z" style="fill-rule:nonzero;"/>
        </g>
        <g transform="matrix(12,0,0,12,155.747,65.0641)">
            <path d="M0.311,0.01C0.462,0.01 0.56,-0.062 0.578,-0.176L0.399,-0.176C0.388,-0.145 0.355,-0.128 0.315,-0.128C0.257,-0.128 0.223,-0.166 0.223,-0.219L0.223,-0.227L0.578,-0.227L0.578,-0.273C0.578,-0.446 0.472,-0.553 0.307,-0.553C0.138,-0.553 0.03,-0.44 0.03,-0.271C0.03,-0.095 0.136,0.01 0.311,0.01ZM0.223,-0.335C0.224,-0.382 0.263,-0.415 0.311,-0.415C0.36,-0.415 0.397,-0.382 0.398,-0.335L0.223,-0.335Z" style="fill-rule:nonzero;"/>
        </g>
        <g transform="matrix(12,0,0,12,163.043,65.0641)">
            <rect x="0.05" y="-0.727" width="0.196" height="0.727" style="fill-rule:nonzero;"/>
        </g>
    </g>
    <g transform="matrix(0.450776,0,0,0.528375,218.068,3.62005)">
        <rect x="25.529" y="22.75" width="361.151" height="74.41" style="fill:rgb(235,235,235);"/>
        <path d="M395.22,104.446L395.22,15.464L16.989,15.464L16.989,104.446L395.22,104.446ZM386.68,22.75L25.529,22.75L25.529,97.16L386.68,97.16L386.68,22.75Z"/>
    </g>
    <g transform="matrix(1.94709,0,0,1.94709,51.565,-84.6494)">
        <g transform="matrix(12,0,0,12,117.148,65.0641)">
            <path d="M0.477,-0.727L0.477,-0.278C0.477,-0.211 0.429,-0.162 0.361,-0.162C0.293,-0.162 0.244,-0.211 0.244,-0.278L0.244,-0.727L0.047,-0.727L0.047,-0.261C0.047,-0.095 0.173,0.009 0.361,0.009C0.548,0.009 0.675,-0.095 0.675,-0.261L0.675,-0.727L0.477,-0.727Z" style="fill-rule:nonzero;"/>
        </g>
        <g transform="matrix(12,0,0,12,125.807,65.0641)">
            <path d="M0.246,-0.307C0.246,-0.361 0.277,-0.393 0.325,-0.393C0.375,-0.393 0.404,-0.361 0.403,-0.307L0.403,-0L0.599,-0L0.599,-0.348C0.6,-0.467 0.525,-0.553 0.409,-0.553C0.329,-0.553 0.265,-0.511 0.241,-0.442L0.236,-0.442L0.236,-0.545L0.05,-0.545L0.05,-0L0.246,-0L0.246,-0.307Z" style="fill-rule:nonzero;"/>
        </g>
        <g transform="matrix(12,0,0,12,133.562,65.0641)">
            <path d="M0.05,-0L0.246,-0L0.246,-0.545L0.05,-0.545L0.05,-0ZM0.148,-0.602C0.201,-0.602 0.244,-0.642 0.244,-0.692C0.244,-0.741 0.201,-0.781 0.148,-0.781C0.094,-0.781 0.051,-0.741 0.051,-0.692C0.051,-0.642 0.094,-0.602 0.148,-0.602Z" style="fill-rule:nonzero;"/>
        </g>
        <g transform="matrix(12,0,0,12,137.108,65.0641)">
            <path d="M0.375,-0.545L0.281,-0.545L0.281,-0.676L0.085,-0.676L0.085,-0.545L0.016,-0.545L0.016,-0.403L0.085,-0.403L0.085,-0.157C0.084,-0.043 0.154,0.015 0.29,0.008C0.334,0.005 0.367,-0.004 0.385,-0.009L0.357,-0.147C0.349,-0.145 0.33,-0.141 0.318,-0.141C0.293,-0.141 0.281,-0.153 0.281,-0.175L0.281,-0.403L0.375,-0.403L0.375,-0.545Z" style="fill-rule:nonzero;"/>
        </g>
        <g transform="matrix(12,0,0,12,141.966,65.0641)">
            <path d="M0.169,0.205C0.306,0.205 0.37,0.136 0.401,0.045L0.599,-0.545L0.393,-0.545L0.304,-0.168L0.298,-0.168L0.21,-0.545L0.006,-0.545L0.197,0.024L0.193,0.034C0.18,0.064 0.142,0.063 0.094,0.046L0.051,0.185C0.082,0.197 0.124,0.205 0.169,0.205Z" style="fill-rule:nonzero;"/>
        </g>
    </g>
    <g transform="matrix(0.390538,0,0,0.799408,30.565,187.413)">
        <path d="M386.68,35.259C386.68,28.355 375.206,22.75 361.074,22.75L51.134,22.75C37.002,22.75 25.529,28.355 25.529,35.259L25.529,84.651C25.529,91.555 37.002,97.16 51.134,97.16L361.074,97.16C375.206,97.16 386.68,91.555 386.68,84.651L386.68,35.259Z" style="fill:rgb(255,78,80);fill-opacity:0.18;"/>
        <path d="M396.537,35.259C396.537,25.697 380.647,17.934 361.074,17.934L51.134,17.934C31.562,17.934 15.672,25.697 15.672,35.259L15.672,84.651C15.672,94.213 31.562,101.976 51.134,101.976L361.074,101.976C380.647,101.976 396.537,94.213 396.537,84.651C396.537,84.651 396.537,35.259 396.537,35.259ZM386.68,35.259C386.68,28.355 375.206,22.75 361.074,22.75L51.134,22.75C37.002,22.75 25.529,28.355 25.529,35.259L25.529,84.651C25.529,91.555 37.002,97.16 51.134,97.16L361.074,97.16C375.206,97.16 386.68,91.555 386.68,84.651L386.68,35.259Z" style="fill:rgb(255,78,80);"/>
    </g>
    <g transform="matrix(2.94585,0,0,2.94585,-278.946,53.865)">
        <g transform="matrix(12,0,0,12,117.148,65.0641)">
            <path d="M0.477,-0.727L0.477,-0.278C0.477,-0.211 0.429,-0.162 0.361,-0.162C0.293,-0.162 0.244,-0.211 0.244,-0.278L0.244,-0.727L0.047,-0.727L0.047,-0.261C0.047,-0.095 0.173,0.009 0.361,0.009C0.548,0.009 0.675,-0.095 0.675,-0.261L0.675,-0.727L0.477,-0.727Z" style="fill:rgb(255,78,80);fill-rule:nonzero;"/>
        </g>
        <g transform="matrix(12,0,0,12,125.807,65.0641)">
            <path d="M0.246,-0.307C0.246,-0.361 0.277,-0.393 0.325,-0.393C0.375,-0.393 0.404,-0.361 0.403,-0.307L0.403,-0L0.599,-0L0.599,-0.348C0.6,-0.467 0.525,-0.553 0.409,-0.553C0.329,-0.553 0.265,-0.511 0.241,-0.442L0.236,-0.442L0.236,-0.545L0.05,-0.545L0.05,-0L0.246,-0L0.246,-0.307Z" style="fill:rgb(255,78,80);fill-rule:nonzero;"/>
        </g>
        <g transform="matrix(12,0,0,12,133.562,65.0641)">
            <path d="M0.05,-0L0.246,-0L0.246,-0.545L0.05,-0.545L0.05,-0ZM0.148,-0.602C0.201,-0.602 0.244,-0.642 0.244,-0.692C0.244,-0.741 0.201,-0.781 0.148,-0.781C0.094,-0.781 0.051,-0.741 0.051,-0.692C0.051,-0.642 0.094,-0.602 0.148,-0.602Z" style="fill:rgb(255,78,80);fill-rule:nonzero;"/>
        </g>
        <g transform="matrix(12,0,0,12,137.108,65.0641)">
            <path d="M0.375,-0.545L0.281,-0.545L0.281,-0.676L0.085,-0.676L0.085,-0.545L0.016,-0.545L0.016,-0.403L0.085,-0.403L0.085,-0.157C0.084,-0.043 0.154,0.015 0.29,0.008C0.334,0.005 0.367,-0.004 0.385,-0.009L0.357,-0.147C0.349,-0.145 0.33,-0.141 0.318,-0.141C0.293,-0.141 0.281,-0.153 0.281,-0.175L0.281,-0.403L0.375,-0.403L0.375,-0.545Z" style="fill:rgb(255,78,80);fill-rule:nonzero;"/>
        </g>
        <g transform="matrix(12,0,0,12,141.966,65.0641)">
            <path d="M0.169,0.205C0.306,0.205 0.37,0.136 0.401,0.045L0.599,-0.545L0.393,-0.545L0.304,-0.168L0.298,-0.168L0.21,-0.545L0.006,-0.545L0.197,0.024L0.193,0.034C0.18,0.064 0.142,0.063 0.094,0.046L0.051,0.185C0.082,0.197 0.124,0.205 0.169,0.205Z" style="fill:rgb(255,78,80);fill-rule:nonzero;"/>
        </g>
    </g>
    <g transform="matrix(0.445112,0,0,0.799408,219.323,168.314)">
        <path d="M386.68,35.259C386.68,28.355 376.613,22.75 364.214,22.75L47.995,22.75C35.595,22.75 25.529,28.355 25.529,35.259L25.529,84.651C25.529,91.555 35.595,97.16 47.995,97.16L364.214,97.16C376.613,97.16 386.68,91.555 386.68,84.651L386.68,35.259Z" style="fill:rgb(255,78,80);fill-opacity:0.18;"/>
        <path d="M395.328,35.259C395.328,25.697 381.386,17.934 364.214,17.934L47.995,17.934C30.822,17.934 16.88,25.697 16.88,35.259C16.88,35.259 16.88,84.651 16.88,84.651C16.88,94.213 30.822,101.976 47.995,101.976L364.214,101.976C381.386,101.976 395.328,94.213 395.328,84.651C395.328,84.651 395.328,35.259 395.328,35.259ZM386.68,35.259C386.68,28.355 376.613,22.75 364.214,22.75L47.995,22.75C35.595,22.75 25.529,28.355 25.529,35.259L25.529,84.651C25.529,91.555 35.595,97.16 47.995,97.16L364.214,97.16C376.613,97.16 386.68,91.555 386.68,84.651L386.68,35.259Z" style="fill:rgb(255,78,80);"/>
    </g>
    <g transform="matrix(2.94585,0,0,2.94585,-78.9403,34.7659)">
        <g transform="matrix(12,0,0,12,113.602,65.0641)">
            <path d="M0.477,-0.727L0.477,-0.278C0.477,-0.211 0.429,-0.162 0.361,-0.162C0.293,-0.162 0.244,-0.211 0.244,-0.278L0.244,-0.727L0.047,-0.727L0.047,-0.261C0.047,-0.095 0.173,0.009 0.361,0.009C0.548,0.009 0.675,-0.095 0.675,-0.261L0.675,-0.727L0.477,-0.727Z" style="fill:rgb(255,78,80);fill-rule:nonzero;"/>
        </g>
        <g transform="matrix(12,0,0,12,122.261,65.0641)">
            <path d="M0.246,-0.307C0.246,-0.361 0.277,-0.393 0.325,-0.393C0.375,-0.393 0.404,-0.361 0.403,-0.307L0.403,-0L0.599,-0L0.599,-0.348C0.6,-0.467 0.525,-0.553 0.409,-0.553C0.329,-0.553 0.265,-0.511 0.241,-0.442L0.236,-0.442L0.236,-0.545L0.05,-0.545L0.05,-0L0.246,-0L0.246,-0.307Z" style="fill:rgb(255,78,80);fill-rule:nonzero;"/>
        </g>
        <g transform="matrix(12,0,0,12,130.017,65.0641)">
            <path d="M0.05,-0L0.246,-0L0.246,-0.284C0.246,-0.347 0.289,-0.388 0.347,-0.388C0.367,-0.388 0.399,-0.385 0.419,-0.378L0.419,-0.545C0.403,-0.55 0.386,-0.553 0.369,-0.553C0.311,-0.553 0.266,-0.518 0.246,-0.442L0.24,-0.442L0.24,-0.545L0.05,-0.545L0.05,-0Z" style="fill:rgb(255,78,80);fill-rule:nonzero;"/>
        </g>
        <g transform="matrix(12,0,0,12,134.841,65.0641)">
            <path d="M0.311,0.01C0.462,0.01 0.56,-0.062 0.578,-0.176L0.399,-0.176C0.388,-0.145 0.355,-0.128 0.315,-0.128C0.257,-0.128 0.223,-0.166 0.223,-0.219L0.223,-0.227L0.578,-0.227L0.578,-0.273C0.578,-0.446 0.472,-0.553 0.307,-0.553C0.138,-0.553 0.03,-0.44 0.03,-0.271C0.03,-0.095 0.136,0.01 0.311,0.01ZM0.223,-0.335C0.224,-0.382 0.263,-0.415 0.311,-0.415C0.36,-0.415 0.397,-0.382 0.398,-0.335L0.223,-0.335Z" style="fill:rgb(255,78,80);fill-rule:nonzero;"/>
        </g>
        <g transform="matrix(12,0,0,12,142.136,65.0641)">
            <path d="M0.202,0.009C0.273,0.009 0.326,-0.016 0.359,-0.077L0.364,-0.077L0.364,-0L0.547,-0L0.547,-0.374C0.547,-0.474 0.451,-0.553 0.295,-0.553C0.132,-0.553 0.052,-0.467 0.045,-0.368L0.226,-0.368C0.23,-0.402 0.255,-0.418 0.293,-0.418C0.327,-0.418 0.351,-0.402 0.351,-0.374L0.351,-0.372C0.351,-0.341 0.316,-0.331 0.224,-0.324C0.112,-0.316 0.024,-0.27 0.024,-0.151C0.024,-0.042 0.097,0.009 0.202,0.009ZM0.266,-0.115C0.232,-0.115 0.209,-0.131 0.209,-0.162C0.209,-0.19 0.229,-0.212 0.274,-0.219C0.305,-0.224 0.332,-0.23 0.352,-0.239L0.352,-0.193C0.352,-0.143 0.31,-0.115 0.266,-0.115Z" style="fill:rgb(255,78,80);fill-rule:nonzero;"/>
        </g>
        <g transform="matrix(12,0,0,12,149.227,65.0641)">
            <rect x="0.05" y="-0.727" width="0.196" height="0.727" style="fill:rgb(255,78,80);fill-rule:nonzero;"/>
        </g>
    </g>
    <g transform="matrix(0.877804,0,0,0.799408,29.9191,281.643)">
        <path d="M386.68,35.259C386.68,28.355 381.575,22.75 375.288,22.75L36.921,22.75C30.633,22.75 25.529,28.355 25.529,35.259L25.529,84.651C25.529,91.555 30.633,97.16 36.921,97.16L375.288,97.16C381.575,97.16 386.68,91.555 386.68,84.651L386.68,35.259Z" style="fill:rgb(255,78,80);fill-opacity:0.18;"/>
        <path d="M391.065,35.259C391.065,25.697 383.996,17.934 375.288,17.934L36.921,17.934C28.213,17.934 21.143,25.697 21.143,35.259L21.143,84.651C21.143,94.213 28.213,101.976 36.921,101.976L375.288,101.976C383.996,101.976 391.065,94.213 391.065,84.651C391.065,84.651 391.065,35.259 391.065,35.259ZM386.68,35.259C386.68,28.355 381.575,22.75 375.288,22.75L36.921,22.75C30.633,22.75 25.529,28.355 25.529,35.259L25.529,84.651C25.529,91.555 30.633,97.16 36.921,97.16L375.288,97.16C381.575,97.16 386.68,91.555 386.68,84.651L386.68,35.259Z" style="fill:rgb(255,78,80);"/>
    </g>
    <g transform="matrix(2.94585,0,0,2.94585,-179.164,148.095)">
        <g transform="matrix(12,0,0,12,87.3692,65.0641)">
            <path d="M0.726,-0.455C0.71,-0.635 0.578,-0.737 0.395,-0.737C0.199,-0.737 0.044,-0.607 0.044,-0.364C0.044,-0.122 0.195,0.01 0.395,0.01C0.608,0.01 0.716,-0.138 0.726,-0.261L0.526,-0.263C0.516,-0.201 0.472,-0.162 0.399,-0.162C0.303,-0.162 0.247,-0.23 0.247,-0.364C0.247,-0.49 0.301,-0.565 0.401,-0.565C0.477,-0.565 0.52,-0.521 0.526,-0.455L0.726,-0.455Z" style="fill:rgb(255,78,80);fill-rule:nonzero;"/>
        </g>
        <g transform="matrix(12,0,0,12,96.5908,65.0641)">
            <path d="M0.403,-0.239C0.404,-0.185 0.373,-0.152 0.324,-0.152C0.274,-0.152 0.246,-0.185 0.246,-0.239L0.246,-0.545L0.05,-0.545L0.05,-0.197C0.05,-0.078 0.125,0.007 0.24,0.007C0.321,0.007 0.384,-0.034 0.408,-0.104L0.413,-0.104L0.413,-0L0.599,-0L0.599,-0.545L0.403,-0.545L0.403,-0.239Z" style="fill:rgb(255,78,80);fill-rule:nonzero;"/>
        </g>
        <g transform="matrix(12,0,0,12,104.381,65.0641)">
            <path d="M0.548,-0.368C0.543,-0.483 0.447,-0.553 0.29,-0.553C0.134,-0.553 0.038,-0.489 0.038,-0.375C0.038,-0.289 0.093,-0.234 0.205,-0.214L0.301,-0.197C0.344,-0.19 0.363,-0.178 0.364,-0.158C0.363,-0.135 0.337,-0.122 0.301,-0.122C0.257,-0.122 0.225,-0.141 0.22,-0.176L0.026,-0.176C0.036,-0.064 0.133,0.01 0.3,0.01C0.451,0.01 0.562,-0.064 0.562,-0.18C0.562,-0.261 0.508,-0.308 0.396,-0.328L0.286,-0.348C0.244,-0.355 0.232,-0.37 0.233,-0.386C0.232,-0.409 0.26,-0.422 0.294,-0.422C0.333,-0.422 0.365,-0.401 0.368,-0.368L0.548,-0.368Z" style="fill:rgb(255,78,80);fill-rule:nonzero;"/>
        </g>
        <g transform="matrix(12,0,0,12,111.437,65.0641)">
            <path d="M0.375,-0.545L0.281,-0.545L0.281,-0.676L0.085,-0.676L0.085,-0.545L0.016,-0.545L0.016,-0.403L0.085,-0.403L0.085,-0.157C0.084,-0.043 0.154,0.015 0.29,0.008C0.334,0.005 0.367,-0.004 0.385,-0.009L0.357,-0.147C0.349,-0.145 0.33,-0.141 0.318,-0.141C0.293,-0.141 0.281,-0.153 0.281,-0.175L0.281,-0.403L0.375,-0.403L0.375,-0.545Z" style="fill:rgb(255,78,80);fill-rule:nonzero;"/>
        </g>
        <g transform="matrix(12,0,0,12,116.227,65.0641)">
            <path d="M0.312,0.01C0.49,0.01 0.595,-0.104 0.595,-0.271C0.595,-0.439 0.49,-0.553 0.312,-0.553C0.135,-0.553 0.03,-0.439 0.03,-0.271C0.03,-0.104 0.135,0.01 0.312,0.01ZM0.314,-0.135C0.261,-0.135 0.23,-0.187 0.23,-0.273C0.23,-0.358 0.261,-0.411 0.314,-0.411C0.364,-0.411 0.395,-0.358 0.395,-0.273C0.395,-0.187 0.364,-0.135 0.314,-0.135Z" style="fill:rgb(255,78,80);fill-rule:nonzero;"/>
        </g>
        <g transform="matrix(12,0,0,12,123.727,65.0641)">
            <path d="M0.05,-0L0.246,-0L0.246,-0.318C0.246,-0.366 0.271,-0.395 0.311,-0.395C0.352,-0.395 0.378,-0.366 0.378,-0.318L0.378,-0L0.565,-0L0.565,-0.318C0.565,-0.366 0.59,-0.395 0.631,-0.395C0.671,-0.395 0.697,-0.366 0.697,-0.318L0.697,-0L0.893,-0L0.893,-0.368C0.893,-0.48 0.822,-0.553 0.717,-0.553C0.636,-0.553 0.571,-0.509 0.553,-0.442L0.547,-0.442C0.536,-0.509 0.474,-0.553 0.398,-0.553C0.322,-0.553 0.264,-0.51 0.241,-0.442L0.236,-0.442L0.236,-0.545L0.05,-0.545L0.05,-0Z" style="fill:rgb(255,78,80);fill-rule:nonzero;"/>
        </g>
        <g transform="matrix(12,0,0,12,137.398,65.0641)">
            <path d="M0.047,-0L0.57,-0L0.57,-0.159L0.244,-0.159L0.244,-0.284L0.544,-0.284L0.544,-0.443L0.244,-0.443L0.244,-0.568L0.571,-0.568L0.571,-0.727L0.047,-0.727L0.047,-0Z" style="fill:rgb(255,78,80);fill-rule:nonzero;"/>
        </g>
        <g transform="matrix(12,0,0,12,144.864,65.0641)">
            <path d="M0.246,-0.307C0.246,-0.361 0.277,-0.393 0.325,-0.393C0.375,-0.393 0.404,-0.361 0.403,-0.307L0.403,-0L0.599,-0L0.599,-0.348C0.6,-0.467 0.525,-0.553 0.409,-0.553C0.329,-0.553 0.265,-0.511 0.241,-0.442L0.236,-0.442L0.236,-0.545L0.05,-0.545L0.05,-0L0.246,-0L0.246,-0.307Z" style="fill:rgb(255,78,80);fill-rule:nonzero;"/>
        </g>
        <g transform="matrix(12,0,0,12,152.619,65.0641)">
            <path d="M0.312,0.216C0.485,0.216 0.599,0.137 0.599,-0.001L0.599,-0.545L0.403,-0.545L0.403,-0.45L0.399,-0.45C0.378,-0.506 0.327,-0.553 0.246,-0.553C0.138,-0.553 0.033,-0.47 0.033,-0.273C0.033,-0.084 0.131,-0.007 0.247,-0.007C0.321,-0.007 0.379,-0.038 0.401,-0.094L0.406,-0.094L0.406,-0.001C0.406,0.063 0.369,0.084 0.318,0.084C0.273,0.084 0.24,0.07 0.234,0.036L0.045,0.036C0.053,0.141 0.148,0.216 0.312,0.216ZM0.32,-0.146C0.266,-0.146 0.234,-0.192 0.234,-0.273C0.234,-0.354 0.266,-0.402 0.32,-0.402C0.374,-0.402 0.406,-0.354 0.406,-0.273C0.406,-0.193 0.374,-0.146 0.32,-0.146Z" style="fill:rgb(255,78,80);fill-rule:nonzero;"/>
        </g>
        <g transform="matrix(12,0,0,12,160.409,65.0641)">
            <path d="M0.05,-0L0.246,-0L0.246,-0.545L0.05,-0.545L0.05,-0ZM0.148,-0.602C0.201,-0.602 0.244,-0.642 0.244,-0.692C0.244,-0.741 0.201,-0.781 0.148,-0.781C0.094,-0.781 0.051,-0.741 0.051,-0.692C0.051,-0.642 0.094,-0.602 0.148,-0.602Z" style="fill:rgb(255,78,80);fill-rule:nonzero;"/>
        </g>
        <g transform="matrix(12,0,0,12,163.954,65.0641)">
            <path d="M0.246,-0.307C0.246,-0.361 0.277,-0.393 0.325,-0.393C0.375,-0.393 0.404,-0.361 0.403,-0.307L0.403,-0L0.599,-0L0.599,-0.348C0.6,-0.467 0.525,-0.553 0.409,-0.553C0.329,-0.553 0.265,-0.511 0.241,-0.442L0.236,-0.442L0.236,-0.545L0.05,-0.545L0.05,-0L0.246,-0L0.246,-0.307Z" style="fill:rgb(255,78,80);fill-rule:nonzero;"/>
        </g>
        <g transform="matrix(12,0,0,12,171.71,65.0641)">
            <path d="M0.311,0.01C0.462,0.01 0.56,-0.062 0.578,-0.176L0.399,-0.176C0.388,-0.145 0.355,-0.128 0.315,-0.128C0.257,-0.128 0.223,-0.166 0.223,-0.219L0.223,-0.227L0.578,-0.227L0.578,-0.273C0.578,-0.446 0.472,-0.553 0.307,-0.553C0.138,-0.553 0.03,-0.44 0.03,-0.271C0.03,-0.095 0.136,0.01 0.311,0.01ZM0.223,-0.335C0.224,-0.382 0.263,-0.415 0.311,-0.415C0.36,-0.415 0.397,-0.382 0.398,-0.335L0.223,-0.335Z" style="fill:rgb(255,78,80);fill-rule:nonzero;"/>
        </g>
    </g>
    <g id="icon.svg" transform="matrix(1.58373,0,0,1.58373,210.326,265.083)">
        <g transform="matrix(1,0,0,1,-25.5,-25.5)">
            <g transform="matrix(1.19563,0,0,1.19563,-5.76736,-18.9428)">
                <g>
                    <g>
                        <circle cx="26.044" cy="37.064" r="21.22" style="fill:rgb(255,78,80);"/>
                        <g transform="matrix(0.897144,0,0,0.897144,4.58919,17.2899)">
                            <g>
                                <path d="M15.184,23.75C16.848,24.767 18.227,26.206 19.171,27.917L14.344,30.574C14.794,31.389 15.05,32.326 15.05,33.323L9.348,33.323L14.344,30.574C13.864,29.703 13.162,28.972 12.316,28.454L15.184,23.75ZM20.915,14.349C24.213,16.365 26.946,19.217 28.818,22.609L24.001,25.259C25.322,27.652 26.073,30.4 26.073,33.323L20.56,33.323C20.56,31.364 20.056,29.521 19.171,27.917L24.001,25.259C22.593,22.707 20.536,20.56 18.054,19.043L20.915,14.349ZM38.481,17.292L33.653,19.948C35.843,23.917 37.089,28.475 37.089,33.323L31.57,33.323C31.57,29.44 30.572,25.788 28.818,22.609L33.653,19.948C31.317,15.714 27.906,12.154 23.788,9.637L26.656,4.932C31.591,7.949 35.68,12.217 38.481,17.292Z" style="fill:white;"/>
                            </g>
                        </g>
                    </g>
                </g>
            </g>
        </g>
    </g>
    <g transform="matrix(1,0,0,1,-13.7339,13.5284)">
        <g transform="matrix(29.7524,0,0,29.7524,211.59,28.8016)">
            <path d="M0.267,-0.033L0.426,-0.033L0.426,-0.216L0.609,-0.216L0.609,-0.375L0.426,-0.375L0.426,-0.558L0.267,-0.558L0.267,-0.375L0.084,-0.375L0.084,-0.216L0.267,-0.216L0.267,-0.033Z" style="fill-rule:nonzero;"/>
        </g>
    </g>
    <g transform="matrix(0.450776,0,0,0.528375,12.1179,56.4657)">
        <rect x="25.529" y="22.75" width="361.151" height="74.41" style="fill:rgb(235,235,235);"/>
        <path d="M395.22,104.446L395.22,15.464L16.989,15.464L16.989,104.446L395.22,104.446ZM386.68,22.75L25.529,22.75L25.529,97.16L386.68,97.16L386.68,22.75Z"/>
    </g>
    <g transform="matrix(1.94709,0,0,1.94709,-154.385,-31.8038)">
        <g transform="matrix(12,0,0,12,109.153,65.0641)">
            <path d="M0.457,0.011C0.665,0.011 0.833,-0.157 0.832,-0.364C0.832,-0.571 0.665,-0.739 0.457,-0.739C0.251,-0.739 0.083,-0.571 0.082,-0.364C0.082,-0.157 0.251,0.011 0.457,0.011ZM0.457,-0.131C0.329,-0.131 0.224,-0.235 0.224,-0.363C0.225,-0.492 0.33,-0.597 0.457,-0.597C0.586,-0.597 0.69,-0.493 0.69,-0.363C0.691,-0.235 0.587,-0.131 0.457,-0.131Z" style="fill-rule:nonzero;"/>
        </g>
        <g transform="matrix(12,0,0,12,120.131,65.0641)">
            <path d="M0.457,0.011C0.665,0.011 0.833,-0.157 0.832,-0.364C0.832,-0.571 0.665,-0.739 0.457,-0.739C0.251,-0.739 0.083,-0.571 0.082,-0.364C0.082,-0.157 0.251,0.011 0.457,0.011ZM0.457,-0.131C0.329,-0.131 0.224,-0.235 0.224,-0.363C0.225,-0.492 0.33,-0.597 0.457,-0.597C0.586,-0.597 0.69,-0.493 0.69,-0.363C0.691,-0.235 0.587,-0.131 0.457,-0.131Z" style="fill-rule:nonzero;"/>
        </g>
        <g transform="matrix(12,0,0,12,131.108,65.0641)">
            <path d="M0.457,0.011C0.665,0.011 0.833,-0.157 0.832,-0.364C0.832,-0.571 0.665,-0.739 0.457,-0.739C0.251,-0.739 0.083,-0.571 0.082,-0.364C0.082,-0.157 0.251,0.011 0.457,0.011ZM0.457,-0.131C0.329,-0.131 0.224,-0.235 0.224,-0.363C0.225,-0.492 0.33,-0.597 0.457,-0.597C0.586,-0.597 0.69,-0.493 0.69,-0.363C0.691,-0.235 0.587,-0.131 0.457,-0.131Z" style="fill-rule:nonzero;"/>
        </g>
        <g transform="matrix(12,0,0,12,142.085,65.0641)">
            <path d="M0.047,-0L0.244,-0L0.244,-0.216L0.354,-0.216C0.52,-0.216 0.631,-0.314 0.631,-0.47C0.631,-0.625 0.522,-0.727 0.361,-0.727L0.047,-0.727L0.047,-0ZM0.244,-0.369L0.244,-0.57L0.314,-0.57C0.383,-0.57 0.425,-0.533 0.425,-0.47C0.425,-0.408 0.383,-0.369 0.314,-0.369L0.244,-0.369Z" style="fill-rule:nonzero;"/>
        </g>
        <g transform="matrix(12,0,0,12,149.96,65.0641)">
            <path d="M0.169,0.205C0.306,0.205 0.37,0.136 0.401,0.045L0.599,-0.545L0.393,-0.545L0.304,-0.168L0.298,-0.168L0.21,-0.545L0.006,-0.545L0.197,0.024L0.193,0.034C0.18,0.064 0.142,0.063 0.094,0.046L0.051,0.185C0.082,0.197 0.124,0.205 0.169,0.205Z" style="fill-rule:nonzero;"/>
        </g>
    </g>
    <g transform="matrix(0.450776,0,0,0.528375,218.068,56.4657)">
        <rect x="25.529" y="22.75" width="361.151" height="74.41" style="fill:rgb(235,235,235);"/>
        <path d="M395.22,104.446L395.22,15.464L16.989,15.464L16.989,104.446L395.22,104.446ZM386.68,22.75L25.529,22.75L25.529,97.16L386.68,97.16L386.68,22.75Z"/>
    </g>
    <g transform="matrix(1.94709,0,0,1.94709,51.565,-31.8038)">
        <g transform="matrix(12,0,0,12,111.616,65.0641)">
            <path d="M0.047,-0L0.244,-0L0.244,-0.216L0.354,-0.216C0.52,-0.216 0.631,-0.314 0.631,-0.47C0.631,-0.625 0.522,-0.727 0.361,-0.727L0.047,-0.727L0.047,-0ZM0.244,-0.369L0.244,-0.57L0.314,-0.57C0.383,-0.57 0.425,-0.533 0.425,-0.47C0.425,-0.408 0.383,-0.369 0.314,-0.369L0.244,-0.369Z" style="fill-rule:nonzero;"/>
        </g>
        <g transform="matrix(12,0,0,12,119.491,65.0641)">
            <path d="M0.169,0.205C0.306,0.205 0.37,0.136 0.401,0.045L0.599,-0.545L0.393,-0.545L0.304,-0.168L0.298,-0.168L0.21,-0.545L0.006,-0.545L0.197,0.024L0.193,0.034C0.18,0.064 0.142,0.063 0.094,0.046L0.051,0.185C0.082,0.197 0.124,0.205 0.169,0.205Z" style="fill-rule:nonzero;"/>
        </g>
        <g transform="matrix(12,0,0,12,126.753,65.0641)">
            <path d="M0.375,-0.545L0.281,-0.545L0.281,-0.676L0.085,-0.676L0.085,-0.545L0.016,-0.545L0.016,-0.403L0.085,-0.403L0.085,-0.157C0.084,-0.043 0.154,0.015 0.29,0.008C0.334,0.005 0.367,-0.004 0.385,-0.009L0.357,-0.147C0.349,-0.145 0.33,-0.141 0.318,-0.141C0.293,-0.141 0.281,-0.153 0.281,-0.175L0.281,-0.403L0.375,-0.403L0.375,-0.545Z" style="fill-rule:nonzero;"/>
        </g>
        <g transform="matrix(12,0,0,12,131.747,65.0641)">
            <path d="M0.246,-0.307C0.246,-0.361 0.277,-0.393 0.325,-0.393C0.375,-0.393 0.404,-0.361 0.403,-0.307L0.403,-0L0.599,-0L0.599,-0.348C0.6,-0.467 0.524,-0.553 0.409,-0.553C0.328,-0.553 0.269,-0.511 0.244,-0.442L0.239,-0.442L0.239,-0.727L0.05,-0.727L0.05,-0L0.246,-0L0.246,-0.307Z" style="fill-rule:nonzero;"/>
        </g>
        <g transform="matrix(12,0,0,12,139.503,65.0641)">
            <path d="M0.312,0.01C0.49,0.01 0.595,-0.104 0.595,-0.271C0.595,-0.439 0.49,-0.553 0.312,-0.553C0.135,-0.553 0.03,-0.439 0.03,-0.271C0.03,-0.104 0.135,0.01 0.312,0.01ZM0.314,-0.135C0.261,-0.135 0.23,-0.187 0.23,-0.273C0.23,-0.358 0.261,-0.411 0.314,-0.411C0.364,-0.411 0.395,-0.358 0.395,-0.273C0.395,-0.187 0.364,-0.135 0.314,-0.135Z" style="fill-rule:nonzero;"/>
        </g>
        <g transform="matrix(12,0,0,12,147.003,65.0641)">
            <path d="M0.246,-0.307C0.246,-0.361 0.277,-0.393 0.325,-0.393C0.375,-0.393 0.404,-0.361 0.403,-0.307L0.403,-0L0.599,-0L0.599,-0.348C0.6,-0.467 0.525,-0.553 0.409,-0.553C0.329,-0.553 0.265,-0.511 0.241,-0.442L0.236,-0.442L0.236,-0.545L0.05,-0.545L0.05,-0L0.246,-0L0.246,-0.307Z" style="fill-rule:nonzero;"/>
        </g>
    </g>
    <g transform="matrix(1,0,0,1,-13.7339,66.3741)">
        <g transform="matrix(29.7524,0,0,29.7524,211.59,28.8016)">
            <path d="M0.267,-0.033L0.426,-0.033L0.426,-0.216L0.609,-0.216L0.609,-0.375L0.426,-0.375L0.426,-0.558L0.267,-0.558L0.267,-0.375L0.084,-0.375L0.084,-0.216L0.267,-0.216L0.267,-0.033Z" style="fill-rule:nonzero;"/>
        </g>
    </g>
    <defs>
        <linearGradient id="_Linear1" x1="0" y1="0" x2="1" y2="0" gradientUnits="userSpaceOnUse" gradientTransform="matrix(223.819,-1.57772e-30,1.57772e-30,114.829,160.454,138.64)"><stop offset="0" style="stop-color:rgb(255,78,80);stop-opacity:0"/><stop offset="1" style="stop-color:rgb(215,0,2);stop-opacity:0.5"/></linearGradient>
    </defs>
</svg>
