<?xml version="1.0" encoding="UTF-8" standalone="no"?>
<!DOCTYPE svg PUBLIC "-//W3C//DTD SVG 1.1//EN" "http://www.w3.org/Graphics/SVG/1.1/DTD/svg11.dtd">
<svg width="100%" height="100%" viewBox="0 0 213 51" version="1.1" xmlns="http://www.w3.org/2000/svg" xmlns:xlink="http://www.w3.org/1999/xlink" xml:space="preserve" xmlns:serif="http://www.serif.com/" style="fill-rule:evenodd;clip-rule:evenodd;stroke-linejoin:round;stroke-miterlimit:2;">
    <g transform="matrix(1,0,0,1,-12.6997,-6.6286)">
        <g id="White">
            <g transform="matrix(2.6314,0,0,2.6314,-214.014,-267.14)">
                <path d="M113.665,113.891L114.565,112.955L117.433,116.818L119.581,116.818L115.717,111.839L119.209,108.072L117.085,108.072L113.665,111.911L113.665,108.072L111.867,108.072L111.867,116.818L113.665,116.818L113.665,113.891Z" style="fill:white;fill-rule:nonzero;"/>
                <path d="M122.858,110.232C120.877,110.232 119.667,111.538 119.667,113.663C119.667,115.799 120.877,117.094 122.87,117.094C124.85,117.094 126.073,115.799 126.073,113.711C126.073,111.514 124.886,110.232 122.858,110.232ZM122.87,111.586C123.794,111.586 124.395,112.414 124.395,113.687C124.395,114.899 123.77,115.74 122.87,115.74C121.957,115.74 121.345,114.911 121.345,113.663C121.345,112.414 121.957,111.586 122.87,111.586Z" style="fill:white;fill-rule:nonzero;"/>
                <path d="M132.866,114.106C132.878,113.962 132.878,113.902 132.878,113.818C132.878,113.171 132.782,112.571 132.626,112.115C132.194,110.939 131.15,110.232 129.842,110.232C127.982,110.232 126.842,111.574 126.842,113.747C126.842,115.824 127.97,117.094 129.806,117.094C131.258,117.094 132.434,116.279 132.806,114.995L131.15,114.995C130.946,115.511 130.478,115.812 129.866,115.812C129.386,115.812 129.002,115.607 128.762,115.247C128.606,115.007 128.546,114.719 128.522,114.106L132.866,114.106ZM128.546,112.992C128.654,111.995 129.074,111.514 129.818,111.514C130.586,111.514 131.042,112.031 131.126,112.992L128.546,112.992Z" style="fill:white;fill-rule:nonzero;"/>
                <path d="M140.533,110.734C140.521,108.922 139.31,107.928 137.102,107.928C135.002,107.928 133.791,108.91 133.791,110.614C133.791,111.971 134.474,112.631 136.249,112.967L137.474,113.207C138.674,113.435 139.119,113.771 139.119,114.479C139.119,115.211 138.446,115.656 137.354,115.656C136.129,115.656 135.445,115.139 135.385,114.203L133.635,114.203C133.743,116.075 135.026,117.094 137.258,117.094C139.514,117.094 140.845,116.051 140.845,114.263C140.845,112.883 140.15,112.163 138.53,111.851L137.162,111.587C135.877,111.334 135.505,111.082 135.505,110.446C135.505,109.786 136.081,109.366 137.018,109.366C138.158,109.366 138.794,109.846 138.854,110.734L140.533,110.734Z" style="fill:white;fill-rule:nonzero;"/>
                <path d="M147.613,112.762C147.493,111.178 146.449,110.232 144.817,110.232C142.874,110.232 141.759,111.502 141.759,113.711C141.759,115.847 142.874,117.094 144.793,117.094C146.365,117.094 147.457,116.123 147.613,114.575L146.005,114.575C145.801,115.415 145.465,115.74 144.793,115.74C143.941,115.74 143.437,114.983 143.437,113.711C143.437,113.087 143.557,112.522 143.761,112.138C143.953,111.778 144.325,111.586 144.805,111.586C145.489,111.586 145.813,111.91 146.005,112.762L147.613,112.762Z" style="fill:white;fill-rule:nonzero;"/>
                <path d="M148.779,110.34L148.779,116.818L150.457,116.818L150.457,113.375C150.457,112.39 150.949,111.898 151.933,111.898C152.113,111.898 152.233,111.91 152.461,111.946L152.461,110.244C152.365,110.232 152.329,110.232 152.257,110.232C151.489,110.232 150.829,110.735 150.457,111.61L150.457,110.34L148.779,110.34Z" style="fill:white;fill-rule:nonzero;"/>
                <path d="M155.113,110.34L153.435,110.34L153.435,116.818L155.113,116.818L155.113,110.34ZM155.113,108.072L153.435,108.072L153.435,109.57L155.113,109.57L155.113,108.072Z" style="fill:white;fill-rule:nonzero;"/>
                <path d="M158.341,110.34L156.663,110.34L156.663,119.434L158.341,119.434L158.341,116.051C158.749,116.77 159.326,117.106 160.142,117.106C161.702,117.106 162.853,115.644 162.853,113.675C162.853,112.763 162.589,111.85 162.158,111.25C161.726,110.639 160.922,110.232 160.142,110.232C159.326,110.232 158.749,110.579 158.341,111.298L158.341,110.34ZM159.758,111.634C160.61,111.634 161.175,112.45 161.175,113.699C161.175,114.887 160.598,115.704 159.758,115.704C158.905,115.704 158.341,114.887 158.341,113.675C158.341,112.45 158.905,111.634 159.758,111.634Z" style="fill:white;fill-rule:nonzero;"/>
                <path d="M166.849,110.472L165.913,110.472L165.913,108.732L164.235,108.732L164.235,110.472L163.407,110.472L163.407,111.586L164.235,111.586L164.235,115.571C164.235,116.591 164.774,117.094 165.877,117.094C166.261,117.094 166.537,117.058 166.849,116.962L166.849,115.788C166.681,115.812 166.597,115.824 166.465,115.824C166.021,115.824 165.913,115.691 165.913,115.115L165.913,111.586L166.849,111.586L166.849,110.472Z" style="fill:white;fill-rule:nonzero;"/>
            </g>
            <g id="Icon">
                <path d="M38.071,6.629C52.074,6.629 63.443,17.997 63.443,32C63.443,46.003 52.074,57.371 38.071,57.371C24.068,57.371 12.7,46.003 12.7,32C12.7,17.997 24.068,6.629 38.071,6.629ZM28.707,33.833C30.492,34.924 31.97,36.468 32.983,38.304L27.805,41.153C28.288,42.028 28.563,43.033 28.563,44.102L22.446,44.102L27.805,41.153C27.29,40.219 26.538,39.434 25.63,38.88L28.707,33.833ZM34.854,23.75C38.392,25.913 41.323,28.972 43.331,32.61L38.164,35.453C39.58,38.019 40.386,40.967 40.386,44.102L34.473,44.102C34.473,42 33.933,40.024 32.983,38.304L38.164,35.453C36.653,32.714 34.447,30.412 31.785,28.784L34.854,23.75ZM53.696,26.906L48.518,29.756C50.866,34.012 52.203,38.902 52.203,44.102L46.283,44.102C46.283,39.937 45.212,36.02 43.331,32.61L48.518,29.756C46.011,25.214 42.352,21.395 37.936,18.695L41.012,13.649C46.306,16.885 50.692,21.462 53.696,26.906Z" style="fill:white;"/>
            </g>
        </g>
    </g>
</svg>
